<svg width="1920" height="548" viewBox="0 0 1920 548" fill="none" xmlns="http://www.w3.org/2000/svg">
<g opacity="0.3">
<path d="M651.673 547.273C642.202 547.273 632.983 546.826 624.124 545.935C605.543 544.064 588.378 540.222 573.102 534.516C556.684 528.386 542.284 520.031 530.299 509.687C506.212 488.896 494.161 463.996 482.506 439.916C480.216 435.187 477.849 430.298 475.445 425.554C459.045 393.221 438.255 364.898 411.892 338.968C359.303 287.243 285.344 243.1 198.009 211.31C97.0064 174.547 -11.5879 156.234 -107.772 159.745C-164.304 161.81 -238.999 181.444 -272.382 214.975C-292.193 234.875 -293.791 256.959 -276.999 278.836L-277.332 278.929C-286.137 267.455 -289.973 255.953 -288.731 244.742C-287.591 234.457 -282.198 224.403 -272.697 214.861C-257.587 199.682 -232.668 186.23 -200.633 175.956C-171.032 166.464 -138.063 160.628 -107.794 159.523C-57.4578 157.687 -3.92279 161.762 51.3233 171.637C101.403 180.59 150.82 193.873 198.199 211.118C285.586 242.926 359.589 287.093 412.208 338.849C438.585 364.797 459.386 393.135 475.797 425.486C478.204 430.23 480.571 435.121 482.857 439.849C494.502 463.912 506.545 488.794 530.6 509.555C553.862 529.636 585.351 541.801 624.186 545.71C677.966 551.126 743.274 539.8 798.879 515.411C879.011 480.266 934.624 429.111 988.408 379.643C997.836 370.971 1007.58 362.005 1017.23 353.347C1042.29 330.865 1076.22 301.732 1116.55 275.779C1157.77 249.25 1199.65 229.759 1244.6 216.19C1272.12 207.885 1301.28 202.289 1331.27 199.559C1358.97 197.036 1388.3 196.88 1418.43 199.09C1470.11 202.883 1525.78 213.597 1588.64 231.842C1712.42 267.77 1836.05 311.379 1956.12 361.459C2070.25 409.059 2182.18 462.922 2288.8 521.546L2288.55 521.709C2067.53 400.183 1831.99 302.725 1588.48 232.04C1450.91 192.105 1341.69 187.13 1244.77 216.386C1146.17 246.148 1077.29 299.859 1017.54 353.469C1007.89 362.124 998.143 371.09 988.716 379.761C934.917 429.248 879.286 480.418 799.099 515.587C773.187 526.953 744.036 535.817 714.801 541.222C699.357 544.077 684.005 545.944 669.166 546.771C663.252 547.108 657.415 547.273 651.673 547.273Z" fill="#FFE492"/>
<path d="M660.934 534.943C636.781 534.943 614.408 532.181 594.414 526.728C572.118 520.648 552.878 511.226 537.226 498.727C535.841 497.619 534.466 496.475 533.14 495.321C509.309 474.62 496.723 450.044 484.555 426.276C482.093 421.473 479.55 416.504 476.971 411.683C461.607 382.978 443.108 357.677 420.409 334.341C417.613 331.468 414.719 328.589 411.799 325.784C358.436 274.504 283.877 230.919 196.182 199.742C94.4503 163.606 -14.4517 146.051 -110.464 150.31C-166.586 152.826 -240.936 172.782 -274.462 206.055C-294.537 225.98 -296.809 248.107 -281.039 270.048L-281.376 270.136C-289.642 258.637 -293.038 247.112 -291.466 235.888C-290.023 225.579 -284.41 215.503 -274.777 205.941C-259.513 190.789 -234.667 177.321 -202.933 166.994C-173.602 157.449 -140.776 151.446 -110.497 150.09C-60.2227 147.86 -6.62903 151.545 48.793 161.042C98.9937 169.645 148.645 182.602 196.365 199.552C284.111 230.748 358.711 274.359 412.107 325.668C415.027 328.474 417.925 331.356 420.721 334.231C443.434 357.583 461.945 382.896 477.315 411.617C479.898 416.438 482.441 421.406 484.903 426.212C497.068 449.965 509.643 474.523 533.441 495.196C534.763 496.345 536.137 497.49 537.519 498.595C569.865 524.432 614.309 534.943 661.047 534.943C661.304 534.943 661.557 534.943 661.813 534.943C661.52 534.941 661.227 534.943 660.934 534.943ZM670.904 534.789C714.355 533.449 759.192 523.417 797.657 508.494C880.629 476.172 940.261 426.249 997.932 377.972C1000.31 375.982 1002.68 373.996 1005.06 372.01C1010.27 367.652 1016.45 362.492 1022.76 357.29C1051.06 333.962 1085.32 306.82 1124.77 282.389C1166.74 256.393 1208.68 237.103 1252.97 223.413C1280.18 215.01 1308.94 209.091 1338.44 205.82C1365.78 202.788 1394.67 201.932 1424.3 203.273C1475.49 205.591 1530.53 214.378 1592.57 230.14C1653.06 245.483 1702.78 259.927 1749.05 275.594C1814.59 297.81 1877.02 323.407 1929.45 345.515C2051.34 397.062 2170.93 455.593 2284.91 519.485L2284.66 519.646C2170.69 455.763 2051.11 397.236 1929.24 345.695C1876.82 323.59 1814.4 297.997 1748.87 275.787C1702.62 260.125 1652.91 245.686 1592.43 230.347C1457.29 196.01 1349.47 193.868 1253.14 223.611C1153.15 254.513 1081.95 308.885 1023.06 357.422C1016.74 362.624 1010.57 367.782 1005.35 372.143C1002.98 374.126 1000.6 376.114 998.229 378.104C940.539 426.397 880.885 476.337 797.855 508.683C777.267 516.67 755.359 523.014 732.738 527.538C711.681 531.745 690.924 534.177 670.904 534.789Z" fill="#FFE492"/>
<path d="M671.145 522.896C668.24 522.896 665.352 522.858 662.487 522.781C638.356 522.141 616.024 518.814 596.113 512.891C574.338 506.412 555.472 496.816 540.043 484.368C538.672 483.258 537.306 482.111 535.987 480.958C512.423 460.358 499.314 436.11 486.64 412.663C483.998 407.776 481.265 402.722 478.495 397.817C462.373 369.209 443.386 344.111 420.442 321.089C417.602 318.243 414.664 315.388 411.699 312.605C357.563 261.772 282.403 218.746 194.35 188.181C91.8926 152.673 -17.3173 135.872 -113.161 140.88C-167.124 143.744 -241.259 162.561 -276.507 197.105C-296.871 217.062 -299.835 239.25 -285.08 261.268L-285.421 261.349C-293.152 249.814 -296.102 238.264 -294.196 227.019C-292.445 216.677 -286.597 206.575 -276.818 196.99C-261.392 181.874 -236.627 168.402 -205.197 158.027C-176.142 148.435 -143.466 142.269 -113.194 140.662C-62.9783 138.041 -9.32605 141.334 46.2682 150.452C96.5935 158.707 146.476 171.336 194.533 187.991C282.638 218.577 357.838 261.626 412.007 312.489C414.971 315.273 417.914 318.128 420.753 320.979C443.708 344.014 462.706 369.127 478.835 397.751C481.605 402.658 484.339 407.712 486.98 412.599C499.651 436.033 512.75 460.263 536.284 480.839C537.603 481.992 538.962 483.137 540.332 484.242C603.027 534.825 714.135 529.394 796.433 501.576C882.867 472.102 947.101 423.115 1009.22 375.742L1009.86 375.256C1015.87 370.664 1022.1 365.918 1028.29 361.231C1093.63 311.789 1165.45 260.977 1261.33 230.631C1288.25 222.13 1316.62 215.887 1345.63 212.076C1372.61 208.532 1401.07 206.976 1430.19 207.451C1480.97 208.279 1535.37 215.143 1596.51 228.435C1660.76 242.354 1709.12 255.148 1753.29 269.921C1816.23 291.012 1877.19 317.664 1930.98 341.179C2050.74 393.815 2168.51 453.111 2281.03 517.414L2280.77 517.573C2168.27 453.276 2050.51 393.987 1930.76 341.355C1876.98 317.845 1816.03 291.197 1753.11 270.113C1708.95 255.344 1660.62 242.554 1596.39 228.639C1463.86 199.828 1357.45 200.521 1261.5 230.823C1165.68 261.149 1093.89 311.938 1028.57 361.363C1022.38 366.05 1016.16 370.798 1010.14 375.388L1009.51 375.874C978.549 399.482 946.541 423.892 911.974 445.697C873.128 470.2 835.392 488.539 796.609 501.763C756.033 515.477 711.834 522.896 671.145 522.896Z" fill="#FFE492"/>
<path d="M2276.89 515.497C2165.85 450.786 2049.91 390.736 1932.29 337.014C1927.31 334.755 1922.32 332.486 1917.31 330.209C1866.37 307.047 1813.69 283.096 1757.36 264.438C1702.71 246.386 1647.32 235.349 1600.35 226.933C1470.69 203.559 1365.69 207.088 1269.88 238.035C1171.54 269.897 1095.33 322.797 1034.1 365.306C1030.43 367.857 1026.76 370.413 1023.09 372.971C1020.37 374.859 1017.66 376.748 1014.94 378.635C980.081 402.863 948.368 424.524 913.329 444.29C873.3 466.869 834.718 483.406 795.37 494.846C758.495 505.569 719.103 511.242 682.463 511.244C675.787 511.244 669.21 511.057 662.747 510.676C639.151 509.287 617.306 505.384 597.82 499.075C576.558 492.191 558.066 482.413 542.849 470.01C541.49 468.899 540.134 467.75 538.822 466.594C515.537 446.102 501.918 422.195 488.75 399.076C485.914 394.097 482.979 388.946 480.011 383.947C463.12 355.428 443.642 330.531 420.471 307.831C417.587 305.006 414.601 302.177 411.596 299.419C356.684 249.032 280.926 206.566 192.517 176.61C89.3347 141.73 -20.1792 125.689 -115.854 131.439C-181.261 135.447 -248.144 158.751 -278.504 188.106C-299.187 208.105 -302.855 230.363 -289.118 252.473L-289.463 252.55C-296.655 240.973 -299.162 229.388 -296.912 218.115C-294.842 207.735 -288.752 197.6 -278.815 187.989C-263.229 172.916 -238.544 159.444 -207.429 149.032C-178.652 139.401 -146.145 133.074 -115.891 131.221C-65.734 128.205 -12.0268 131.108 43.7396 139.848C94.1859 147.755 144.306 160.058 192.7 176.417C281.165 206.39 356.962 248.881 411.908 299.298C414.916 302.059 417.902 304.889 420.786 307.714C443.972 330.427 463.457 355.338 480.359 383.87C483.327 388.871 486.262 394.02 489.098 399.002C502.259 422.107 515.871 445.998 539.126 466.466C540.438 467.62 541.79 468.767 543.146 469.876C608.596 523.224 719.84 516.56 795.212 494.646C885.138 468.498 953.953 420.68 1014.67 378.489C1017.38 376.601 1020.1 374.712 1022.81 372.825C1026.48 370.267 1030.15 367.712 1033.83 365.16C1068.78 340.897 1103.29 317.318 1141.24 295.591C1184.87 270.603 1226.9 251.714 1269.71 237.841C1296.35 229.236 1324.31 222.669 1352.82 218.326C1379.47 214.264 1407.48 212.01 1436.09 211.623C1486.54 210.94 1540.31 215.88 1600.46 226.722C1647.45 235.142 1702.86 246.184 1757.54 264.246C1813.89 282.911 1866.58 306.869 1917.54 330.036C1922.54 332.312 1927.54 334.581 1932.52 336.84C2050.14 390.566 2166.1 450.623 2277.15 515.341L2276.89 515.497Z" fill="#FFE492"/>
<path d="M2273.01 513.423C2161.33 447.061 2047.22 386.247 1933.82 332.672C1927.04 329.467 1920.1 326.163 1913.38 322.969C1865.31 300.092 1815.6 276.437 1761.61 258.762C1707.69 241.175 1651.84 231.939 1604.31 225.224C1477.81 207.18 1374.2 213.542 1278.26 245.246C1186.75 275.596 1115.05 321.234 1045.72 365.369L1038.1 370.214C1032.09 374.042 1025.87 377.998 1019.74 381.879C950.34 425.761 880.863 466.889 794.132 487.925C773.086 493.03 751.475 496.567 729.894 498.445C706.719 500.459 684.208 500.488 662.982 498.529C639.928 496.4 618.578 491.929 599.525 485.239C578.79 477.959 560.668 468.002 545.667 455.648C544.315 454.53 542.971 453.379 541.67 452.225C518.671 431.854 504.561 408.3 490.916 385.52C487.871 380.437 484.72 375.18 481.54 370.075C463.864 341.645 443.903 316.948 420.512 294.574C417.588 291.778 414.558 288.971 411.505 286.235C355.82 236.295 279.465 194.388 190.693 165.042C86.7814 130.793 -23.0404 115.507 -118.55 122.003C-183.36 126.505 -249.939 149.971 -280.453 179.071C-301.48 199.121 -305.874 221.465 -293.159 243.687L-293.508 243.76C-300.161 232.132 -302.217 220.503 -299.619 209.196C-297.223 198.773 -290.88 188.598 -280.768 178.957C-265.012 163.934 -240.416 150.475 -209.631 140.032C-181.139 130.366 -148.808 123.888 -118.594 121.787C-68.4962 118.38 -14.734 120.891 41.2083 129.252C91.7791 136.812 142.13 148.787 190.865 164.85C279.689 194.212 356.087 236.145 411.806 286.114C414.858 288.852 417.892 291.661 420.816 294.457C444.221 316.842 464.194 341.553 481.877 369.998C485.057 375.103 488.208 380.362 491.253 385.445C504.89 408.212 518.993 431.755 541.967 452.102C543.264 453.251 544.608 454.4 545.957 455.519C609.832 508.124 715.964 506.647 793.989 487.722C880.651 466.704 950.098 425.591 1019.47 381.729C1025.6 377.848 1031.82 373.893 1037.83 370.064L1045.45 365.219C1079.48 343.556 1114.67 321.153 1152.89 300.312C1196.18 276.71 1237.13 258.634 1278.08 245.052C1304.44 236.339 1332.01 229.449 1360 224.575C1386.32 219.992 1413.9 217.038 1441.97 215.794C1492.21 213.568 1545.33 216.584 1604.39 225.009C1651.94 231.727 1707.82 240.966 1761.77 258.568C1815.8 276.25 1865.52 299.912 1913.61 322.795C1920.32 325.989 1927.26 329.291 1934.05 332.498C2047.45 386.077 2161.58 446.896 2273.26 513.264L2273.01 513.423Z" fill="#FFE492"/>
<path d="M2269.12 511.349C2158.41 444.25 2046.11 382.674 1935.35 328.334C1927.03 324.25 1918.49 320.004 1910.24 315.898C1864.76 293.268 1817.73 269.868 1765.85 253.092C1712.19 235.807 1656.08 228.443 1608.27 223.521C1485.28 210.663 1383.07 219.86 1286.63 252.462C1202.47 281.033 1133.37 321.525 1066.54 360.683C1059.51 364.803 1052.24 369.063 1045.15 373.191C1036.83 378.038 1030.47 381.721 1024.54 385.129C992.769 403.369 954.942 424.372 915.246 441.842C873.179 460.353 833.157 473.165 792.89 481.01C771.715 485.136 750.196 487.738 728.927 488.742C706.089 489.82 683.977 489.028 663.209 486.384C640.708 483.52 619.856 478.481 601.225 471.408C581.021 463.739 563.276 453.604 548.481 441.289C547.147 440.173 545.81 439.02 544.513 437.862C521.818 417.627 507.235 394.436 493.129 372.008C489.857 366.807 486.475 361.429 483.063 356.205C464.593 327.854 444.144 303.359 420.544 281.317C417.576 278.546 414.502 275.766 411.406 273.051C354.947 223.558 277.992 182.21 188.861 153.474C84.2272 119.855 -25.9023 105.328 -121.244 112.566C-175.493 116.775 -246.348 136.165 -282.351 169.991C-303.756 190.102 -308.893 212.547 -297.201 234.897L-297.549 234.963C-303.665 223.277 -305.262 211.596 -302.302 200.246C-299.568 189.77 -292.962 179.551 -282.659 169.872C-266.735 154.911 -242.23 141.474 -211.786 131.009C-183.58 121.314 -151.443 114.688 -121.288 112.348C-71.2482 108.549 -17.4274 110.669 38.6834 118.651C89.3752 125.862 139.961 137.512 189.033 153.28C278.215 182.032 355.215 223.404 411.707 272.926C414.803 275.64 417.88 278.425 420.848 281.198C444.459 303.252 464.919 327.759 483.401 356.124C486.815 361.35 490.197 366.727 493.469 371.929C507.565 394.346 522.144 417.524 544.813 437.736C546.11 438.892 547.444 440.043 548.778 441.157C601.917 485.391 693.133 500.211 792.776 480.797C883.014 463.217 956.624 423.815 1024.29 384.966C1030.22 381.558 1036.57 377.875 1044.89 373.028C1051.98 368.9 1059.25 364.641 1066.28 360.52C1099.18 341.242 1133.2 321.309 1169.49 302.644C1210.52 281.535 1248.78 265.056 1286.46 252.266C1312.57 243.439 1339.73 236.225 1367.19 230.827C1393.2 225.713 1420.35 222.061 1447.87 219.968C1497.98 216.16 1550.47 217.249 1608.34 223.299C1656.17 228.225 1712.31 235.591 1766.02 252.891C1817.93 269.679 1864.98 293.086 1910.47 315.722C1918.72 319.828 1927.26 324.074 1935.58 328.158C2046.35 382.505 2158.66 444.085 2269.38 511.189L2269.12 511.349Z" fill="#FFE492"/>
<path d="M2265.24 509.276C2155.48 441.435 2045.01 379.095 1936.87 323.993C1927.67 319.306 1918.23 314.386 1909.09 309.629C1865.56 286.969 1820.56 263.537 1770.09 247.417C1716.39 230.339 1660.16 224.891 1612.23 221.813C1494.81 214.071 1391.04 226.456 1295 259.674C1218.53 286.244 1152.98 321.79 1089.58 356.166C1076.78 363.109 1063.54 370.29 1050.67 377.134C1042.79 381.323 1035.82 385.001 1029.33 388.378C999.173 404.065 959.055 424.179 916.186 440.616C873.112 457.131 832.372 468.082 791.639 474.094C747.213 480.652 702.874 480.7 663.42 474.237C641.484 470.642 621.126 465.038 602.912 457.578C583.248 449.523 565.88 439.212 551.286 426.935C549.964 425.816 548.637 424.661 547.348 423.503C524.975 403.422 509.938 380.612 495.399 358.554C491.882 353.218 488.247 347.702 484.579 342.341C465.299 314.065 444.363 289.769 420.572 268.068C417.561 265.32 414.442 262.564 411.302 259.874C354.07 210.828 276.518 170.037 187.028 141.915C81.6723 108.928 -28.765 95.1584 -123.942 103.138C-188.443 108.664 -252.846 131.866 -284.195 160.871C-306.011 181.055 -311.906 203.617 -301.244 226.117L-301.595 226.176C-307.168 214.419 -308.304 202.677 -304.974 191.278C-301.896 180.742 -295.007 170.471 -284.503 160.75C-268.41 145.86 -244.001 132.454 -213.912 121.98C-186.003 112.265 -154.067 105.494 -123.993 102.918C-74.012 98.7268 -20.1325 100.457 36.1505 108.058C86.9668 114.922 137.787 126.246 187.196 141.717C276.737 169.857 354.334 210.67 411.603 259.747C414.743 262.437 417.861 265.195 420.876 267.945C444.678 289.659 465.625 313.966 484.916 342.255C488.584 347.616 492.219 353.135 495.736 358.471C510.268 380.517 525.297 403.316 547.648 423.377C548.938 424.535 550.26 425.687 551.583 426.805C603.81 470.753 693.516 488.35 791.551 473.881C880.924 460.688 958.535 424.909 1029.09 388.213C1035.57 384.836 1042.55 381.16 1050.42 376.971C1063.29 370.127 1076.53 362.948 1089.33 356.005C1152.74 321.622 1218.31 286.068 1294.82 259.487C1320.7 250.534 1347.46 242.999 1374.37 237.086C1400.1 231.433 1426.81 227.081 1453.75 224.151C1503.84 218.703 1555.7 217.868 1612.27 221.597C1660.22 224.677 1716.5 230.128 1770.26 247.225C1820.76 263.357 1865.78 286.797 1909.33 309.466C1918.47 314.223 1927.91 319.141 1937.11 323.828C2045.25 378.934 2155.74 441.279 2265.5 509.124L2265.24 509.276Z" fill="#FFE492"/>
<path d="M2261.35 507.202C2152.58 438.613 2043.92 375.513 1938.4 319.654C1928.71 314.52 1918.73 309.085 1909.09 303.828C1867.15 280.976 1823.78 257.345 1774.33 241.744C1720.41 224.811 1664.13 221.304 1616.19 220.107C1503.21 217.078 1400.88 232.379 1303.38 266.888C1234.99 291.204 1174.04 321.979 1115.08 351.739C1094.81 361.973 1075.66 371.639 1056.19 381.076C1048.27 384.917 1041.05 388.369 1034.13 391.625C989.446 412.615 952.271 427.791 917.133 439.383C873.051 453.927 831.596 463.019 790.398 467.175C774.415 468.787 758.491 469.59 742.857 469.59C715.142 469.59 688.325 467.072 663.637 462.083C618.958 453.056 582.105 436.398 554.101 412.573C552.782 411.444 551.467 410.288 550.192 409.134C528.16 389.228 512.701 366.822 497.752 345.152C493.964 339.662 490.05 333.987 486.104 328.468C466 300.258 444.572 276.164 420.61 254.809C417.554 252.086 414.392 249.354 411.208 246.688C353.203 198.089 275.049 157.857 185.2 130.345C79.1227 97.9913 -31.6187 84.977 -126.63 93.6987C-191.399 99.7678 -253.944 122.53 -285.964 151.689C-308.223 171.957 -314.899 194.653 -305.277 217.324L-305.633 217.379C-310.656 205.54 -311.323 193.728 -307.611 182.27C-304.174 171.664 -296.997 161.335 -286.268 151.568C-270.007 136.759 -245.704 123.397 -215.981 112.923C-188.373 103.193 -156.661 96.2897 -126.685 93.4808C-76.7631 88.8976 -22.825 90.236 33.6266 97.4586C84.5675 103.977 135.618 114.975 185.368 130.146C275.269 157.677 353.466 197.93 411.508 246.558C414.692 249.226 417.854 251.958 420.914 254.683C444.891 276.05 466.329 300.157 486.441 328.378C490.387 333.897 494.304 339.574 498.089 345.064C513.031 366.723 528.482 389.12 550.496 409.009C551.771 410.16 553.082 411.316 554.401 412.443C606.694 456.937 692.689 476.806 790.335 466.955C883.288 457.577 965.619 423.525 1033.9 391.449C1040.82 388.193 1048.04 384.743 1055.96 380.902C1075.43 371.465 1094.58 361.801 1114.85 351.567C1173.81 321.8 1234.78 291.021 1303.19 266.696C1328.88 257.605 1355.24 249.746 1381.56 243.335C1407.05 237.128 1433.32 232.076 1459.64 228.322C1509.84 221.166 1561.06 218.405 1616.21 219.884C1664.19 221.082 1720.51 224.593 1774.5 241.546C1823.99 257.158 1867.37 280.8 1909.33 303.661C1918.98 308.918 1928.95 314.353 1938.64 319.484C2044.16 375.348 2152.83 438.454 2261.61 507.048L2261.35 507.202Z" fill="#FFE492"/>
<path d="M2257.47 505.129C2148.15 434.809 2044.28 372.72 1939.93 315.313C1929.97 309.836 1920.17 304.242 1909.79 298.321C1869.22 275.171 1827.26 251.236 1778.58 236.071C1723.98 219.145 1665.23 217.736 1620.15 218.401C1512.31 219.783 1411.43 238.004 1311.75 274.104C1251.94 295.868 1196.72 322.005 1143.32 347.283C1115.25 360.568 1088.74 373.114 1061.71 385.021C1053.68 388.558 1046.23 391.781 1038.92 394.874C993.63 414.017 955.231 427.767 918.071 438.148C872.967 450.749 830.797 457.98 789.152 460.256C767.754 461.425 746.503 461.205 725.988 459.603C704.268 457.905 683.361 454.65 663.85 449.928C620.603 439.46 584.626 422.063 556.915 398.216C555.607 397.084 554.303 395.926 553.035 394.773C531.373 375.071 515.526 353.093 500.2 331.839C496.111 326.168 491.883 320.303 487.629 314.602C466.681 286.453 444.771 262.56 420.643 241.557C417.539 238.858 414.333 236.15 411.113 233.509C352.335 185.356 273.584 145.684 183.375 118.781C100.114 94.0532 14.2515 81.1511 -64.4847 81.1511C-86.7436 81.1511 -108.416 82.1813 -129.32 84.266C-193.308 90.7732 -255.461 113.617 -287.668 142.463C-310.399 162.826 -317.885 185.676 -309.315 208.541L-309.674 208.589C-314.148 196.658 -314.334 184.764 -310.231 173.24C-306.427 162.557 -298.938 152.16 -287.975 142.34C-271.546 127.624 -247.356 114.317 -218.015 103.854C-190.318 93.9761 -159.669 87.1277 -129.385 84.0503C-79.5218 79.0752 -25.5251 80.024 31.0987 86.8658C82.1605 93.034 133.449 103.704 183.537 118.581C273.796 145.499 352.595 185.193 411.41 233.374C414.634 236.016 417.844 238.726 420.947 241.427C445.086 262.441 467.008 286.345 487.966 314.507C492.22 320.209 496.452 326.073 500.541 331.746C515.86 352.991 531.699 374.961 553.343 394.647C554.611 395.799 555.915 396.957 557.219 398.086C609.04 442.679 693.561 465.256 789.123 460.034C885.82 454.749 973.302 422.336 1038.72 394.689C1046.02 391.596 1053.47 388.374 1061.5 384.838C1088.53 372.936 1115.03 360.388 1143.1 347.105C1196.51 321.825 1251.73 295.681 1311.56 273.91C1362.89 255.324 1413.25 241.779 1465.53 232.498C1515.96 223.548 1566.54 218.863 1620.15 218.176C1650.74 217.725 1675.7 218.509 1698.69 220.64C1728.38 223.391 1754.57 228.373 1778.75 235.871C1827.48 251.049 1869.46 274.997 1910.05 298.158C1920.43 304.08 1930.23 309.671 1940.18 315.148C2044.54 372.557 2148.42 434.65 2257.74 504.975L2257.47 505.129Z" fill="#FFE492"/>
<path d="M2253.58 503.055C2145.27 431.965 2043.17 369.136 1941.45 310.972C1931.39 305.218 1921.47 299.289 1910.97 293.013C1871.61 269.499 1830.91 245.18 1782.82 230.396C1727.77 213.549 1669.09 214.223 1624.11 216.69C1522.35 222.081 1422.91 243.221 1320.12 281.313C1269.48 300.172 1221.26 321.754 1174.63 342.627C1137.76 359.126 1102.95 374.712 1067.23 388.957C1059.16 392.18 1051.24 395.262 1043.71 398.115C998.335 415.294 957.544 427.98 919.009 436.9C872.868 447.581 829.984 452.957 787.907 453.331C766.498 453.52 745.331 452.358 725.006 449.873C703.7 447.266 683.196 443.192 664.063 437.759C622.3 425.9 587.195 407.763 559.726 383.85C558.436 382.721 557.139 381.56 555.875 380.4C534.62 360.938 518.429 339.424 502.769 318.619C498.339 312.733 493.755 306.644 489.15 300.725C467.345 272.629 444.947 248.938 420.676 228.294C417.529 225.619 414.279 222.936 411.014 220.318C351.463 172.613 272.111 133.499 181.544 107.206C74.0268 76.1232 -37.3338 64.6233 -132.016 74.8244C-195.176 81.7476 -256.915 104.65 -289.301 133.169C-312.546 153.639 -320.863 176.661 -313.359 199.749L-313.718 199.791C-317.632 187.756 -317.331 175.769 -312.821 164.166C-308.633 153.395 -300.825 142.923 -289.605 133.043C-273.015 118.433 -248.946 105.192 -220 94.751C-192.622 84.8758 -162.222 77.9107 -132.082 74.6065C-82.2731 69.2418 -28.2214 69.7965 28.571 76.2597C79.7574 82.0844 131.277 92.4286 181.701 107.006C272.324 133.312 351.719 172.45 411.304 220.184C414.572 222.801 417.826 225.487 420.973 228.164C445.258 248.819 467.664 272.521 489.479 300.628C494.089 306.547 498.669 312.636 503.102 318.525C518.755 339.321 534.939 360.826 556.179 380.275C557.443 381.433 558.74 382.593 560.026 383.72C612.393 429.305 693.32 453.952 787.899 453.106C864.642 452.424 945.866 434.888 1043.52 397.923C1051.04 395.07 1058.95 391.99 1067.02 388.768C1102.73 374.525 1137.55 358.944 1174.4 342.445C1221.04 321.569 1269.27 299.983 1319.93 281.119C1371.75 261.913 1421.3 247.375 1471.42 236.67C1522.18 225.826 1572.12 219.215 1624.08 216.464C1669.1 213.992 1727.85 213.32 1782.99 230.193C1831.13 244.995 1871.85 269.325 1911.23 292.85C1921.73 299.126 1931.65 305.052 1941.71 310.805C2043.43 368.971 2145.53 431.804 2253.85 502.899L2253.58 503.055Z" fill="#FFE492"/>
<path d="M2249.7 500.981C2142.39 429.118 2042.07 365.545 1942.98 306.633C1932.93 300.652 1922.99 294.437 1912.48 287.858C1874.24 263.922 1834.69 239.173 1787.07 224.723C1731.5 207.938 1672.91 210.7 1628.08 214.982C1532.32 223.952 1437.13 247.322 1328.5 288.527C1287.75 304.051 1247.93 321.08 1209.43 337.549C1162.66 357.55 1118.49 376.444 1072.75 392.899C1064.51 395.867 1056.35 398.715 1048.51 401.361C1002.32 416.934 960.265 428.152 919.949 435.654C897.368 439.856 875.076 442.901 853.693 444.704C830.884 446.626 808.332 447.2 786.663 446.412C742.698 444.812 701.522 437.807 664.281 425.594C624.061 412.403 589.832 393.529 562.546 369.49C561.263 368.352 559.977 367.19 558.721 366.036C537.92 346.86 521.439 325.857 505.504 305.548C500.679 299.399 495.692 293.042 490.676 286.856C467.992 258.806 445.107 235.316 420.712 215.039C417.52 212.387 414.223 209.727 410.918 207.136C350.593 159.876 270.644 121.321 179.718 95.6425C71.4825 65.1956 -40.1822 54.453 -134.707 65.3915C-235.918 77.2854 -334.542 128.676 -317.395 190.963L-317.758 190.998C-322.048 175.417 -319.535 160.067 -310.29 145.371C-301.848 131.949 -287.995 119.318 -269.114 107.831C-251.56 97.1504 -230.499 87.9289 -206.522 80.4223C-183.717 73.2834 -158.908 68.0089 -134.78 65.1736C-85.0299 59.4171 -30.9196 59.5822 26.045 65.6667C77.356 71.1459 129.11 81.1642 179.872 95.4443C270.849 121.141 350.846 159.717 411.207 207.004C414.516 209.597 417.813 212.257 421.008 214.912C445.414 235.197 468.311 258.701 491.006 286.761C496.022 292.947 501.009 299.305 505.834 305.455C521.765 325.758 538.239 346.753 559.028 365.917C560.281 367.071 561.564 368.233 562.846 369.369C615.289 415.567 694.784 442.848 786.685 446.194C864.487 449.023 950.071 434.298 1048.33 401.172C1056.17 398.526 1064.32 395.68 1072.56 392.712C1118.29 376.262 1162.46 357.37 1209.22 337.37C1247.73 320.9 1287.55 303.868 1328.3 288.342C1436.98 247.119 1532.21 223.741 1628.02 214.764C1658.14 211.887 1683.08 210.967 1706.52 211.871C1736.47 213.027 1762.87 217.166 1787.23 224.525C1834.9 238.99 1874.47 263.755 1912.74 287.704C1923.25 294.281 1933.18 300.496 1943.24 306.474C2042.33 365.391 2142.66 428.966 2249.96 500.834L2249.7 500.981Z" fill="#FFE492"/>
<path d="M2245.81 498.907C2139.53 426.261 2040.97 361.948 1944.51 302.292C1934.53 296.119 1924.67 289.654 1914.23 282.805C1877.02 258.412 1838.54 233.187 1791.31 219.048C1734.53 202.121 1673.22 207.645 1632.04 213.271C1520.27 228.355 1420.11 263.422 1336.87 295.74C1306.96 307.403 1277.12 319.757 1248.25 331.704C1190.36 355.67 1135.68 378.306 1078.28 396.842C1069.83 399.569 1061.44 402.182 1053.31 404.61C1006.22 418.653 962.904 428.4 920.899 434.406C873.282 441.214 827.705 442.927 785.426 439.493C741.992 435.964 701.307 427.194 664.506 413.425C625.905 398.984 592.552 379.372 565.365 355.133C564.097 353.995 562.818 352.83 561.569 351.672C541.285 332.849 524.599 312.422 508.459 292.667C503.171 286.193 497.701 279.501 492.205 272.987C468.297 244.585 445.591 221.962 420.753 201.785C417.518 199.156 414.18 196.523 410.827 193.954C349.722 147.143 269.172 109.147 177.887 84.0763C68.9335 54.2678 -43.0391 44.2803 -137.402 55.9563C-238.976 68.6911 -335.586 119.384 -321.435 182.177L-321.798 182.206C-325.308 166.627 -322.271 151.292 -312.773 136.629C-304.068 123.194 -290.133 110.55 -271.352 99.0499C-253.838 88.3249 -232.887 79.0352 -209.078 71.4339C-186.409 64.1959 -161.647 58.7696 -137.476 55.7383C-87.7805 49.59 -33.6152 49.3654 23.5179 55.0691C74.9535 60.2027 126.942 69.8952 178.041 83.876C269.381 108.96 349.975 146.978 411.109 193.818C414.462 196.389 417.803 199.024 421.042 201.653C445.895 221.839 468.609 244.475 492.527 272.888C498.023 279.402 503.494 286.096 508.781 292.57C524.917 312.319 541.6 332.738 561.869 351.553C563.119 352.711 564.394 353.874 565.661 355.012C618.511 402.129 696.573 432.055 785.47 439.275C865.199 445.751 952.754 434.346 1053.14 404.412C1061.27 401.986 1069.67 399.376 1078.1 396.648C1135.49 378.117 1190.16 355.485 1248.05 331.521C1276.91 319.574 1306.75 307.218 1336.67 295.553C1392.64 273.824 1439.2 257.769 1483.19 245.03C1534.98 230.035 1583.64 219.576 1631.95 213.056C1661.41 209.031 1687.08 207.209 1710.43 207.486C1740.51 207.843 1767.02 211.559 1791.47 218.85C1838.77 233.006 1877.26 258.247 1914.49 282.656C1924.94 289.502 1934.8 295.967 1944.77 302.135C2041.24 361.794 2139.8 426.111 2246.09 498.76L2245.81 498.907Z" fill="#FFE492"/>
<path d="M2241.93 496.832C2136.67 423.399 2039.88 358.345 1946.04 297.949C1936.2 291.615 1926.46 284.925 1916.15 277.841C1879.92 252.957 1842.47 227.226 1795.56 213.373C1738.16 196.486 1677.01 204.25 1636 211.561C1534.74 229.46 1444.41 263.541 1345.25 302.952C1327.36 310.087 1309.27 317.45 1291.78 324.574C1224.49 351.967 1154.92 380.292 1083.8 400.782C1075.16 403.274 1066.51 405.654 1058.1 407.855C1010.69 420.253 964.846 428.764 921.841 433.151C873.124 438.122 826.811 437.926 784.176 432.572C741.351 427.194 701.161 416.656 664.718 401.251C627.84 385.661 595.354 365.314 568.167 340.776C566.911 339.635 565.643 338.469 564.401 337.311C544.729 318.927 527.937 299.166 511.698 280.056C505.846 273.17 499.797 266.051 493.718 259.123C468.876 230.75 445.698 208.321 420.775 188.535C417.503 185.937 414.117 183.326 410.717 180.777C348.85 134.406 267.707 96.9698 176.055 72.5106C66.3869 43.3405 -45.8897 34.1103 -140.099 46.5215C-238.449 59.6195 -336.842 108.533 -325.48 173.39L-325.843 173.412C-328.573 157.833 -325.011 142.516 -315.261 127.886C-306.296 114.435 -292.277 101.78 -273.598 90.2667C-239.134 69.028 -190.505 53.0044 -140.18 46.3035C-90.5432 39.7655 -36.3193 39.1491 20.986 44.472C72.5461 49.2621 124.766 58.6267 176.201 72.3081C267.904 96.7805 349.096 134.241 411.003 180.634C414.407 183.186 417.792 185.796 421.068 188.396C446.002 208.193 469.191 230.631 494.041 259.015C500.119 265.945 506.172 273.064 512.024 279.95C528.259 299.056 545.047 318.813 564.709 337.188C565.947 338.345 567.215 339.51 568.472 340.65C622.864 389.745 697.478 421.455 784.246 432.354C864.591 442.445 956.675 434.135 1057.95 407.653C1066.35 405.451 1074.99 403.074 1083.63 400.584C1154.73 380.101 1224.29 351.78 1291.56 324.391C1309.06 317.268 1327.15 309.904 1345.04 302.769C1388.44 285.518 1438.95 265.73 1489.08 249.208C1541.52 231.928 1589.54 219.545 1635.89 211.352C1665.07 206.15 1690.74 203.451 1714.35 203.103C1744.12 202.663 1771.49 206.053 1795.71 213.177C1816.72 219.382 1837.87 228.643 1860.37 241.491C1880.23 252.834 1898.63 265.474 1916.42 277.696C1926.72 284.778 1936.46 291.468 1946.3 297.799C2040.15 358.197 2136.94 423.254 2242.2 496.689L2241.93 496.832Z" fill="#FFE492"/>
<path d="M2238.04 494.758C2133.82 420.532 2038.8 354.736 1947.57 293.609C1937.9 287.137 1928.33 280.245 1918.2 272.95C1882.92 247.548 1846.44 221.282 1799.8 207.702C1756.22 195.05 1703.93 195.755 1639.96 209.855C1550.51 229.458 1470.56 262.247 1385.9 296.964C1375.36 301.288 1364.47 305.756 1353.62 310.17C1349.37 311.902 1345.12 313.639 1340.88 315.374C1260.22 348.326 1176.81 382.401 1089.32 404.727C1080.47 406.985 1071.59 409.132 1062.9 411.104C1014.45 422.095 967.307 429.091 922.797 431.896C872.955 435.035 825.898 432.935 782.941 425.653C740.783 418.505 701.087 406.199 664.956 389.077C629.935 372.481 598.322 351.401 570.992 326.418C569.746 325.276 568.49 324.107 567.255 322.947C548.33 305.14 531.593 286.175 515.401 267.836C508.847 260.409 502.064 252.728 495.253 245.252C469.451 216.899 445.803 194.663 420.822 175.278C417.502 172.702 414.077 170.118 410.632 167.593C347.981 121.671 266.237 84.7915 174.226 60.9443C63.8473 32.4148 -48.7408 23.9396 -142.793 37.086C-239.336 50.6926 -337.59 100.007 -329.519 164.604L-329.885 164.621C-331.831 149.04 -327.749 133.741 -317.746 119.148C-308.516 105.682 -294.417 93.0113 -275.837 81.4895C-241.52 60.2068 -193.059 43.9455 -142.877 36.8725C-93.2953 29.9427 -39.0165 28.9345 18.4574 33.8787C70.1421 38.321 122.6 47.3597 174.373 60.7417C266.435 84.6044 348.23 121.503 410.907 167.45C414.351 169.975 417.785 172.564 421.104 175.139C446.096 194.535 469.759 216.778 495.568 245.142C502.383 252.618 509.162 260.301 515.72 267.728C531.904 286.063 548.642 305.023 567.559 322.823C568.794 323.983 570.047 325.15 571.293 326.293C626.865 377.091 700.083 411.373 783.036 425.435C864.924 439.317 959.038 434.423 1062.77 410.893C1071.45 408.92 1080.33 406.776 1089.17 404.52C1176.64 382.203 1260.03 348.134 1340.67 315.187C1344.92 313.45 1349.16 311.715 1353.41 309.983C1364.26 305.569 1375.15 301.1 1385.69 296.779C1470.37 262.055 1550.35 229.257 1639.83 209.645C1668.73 203.275 1694.39 199.702 1718.27 198.718C1748.16 197.487 1775.64 200.444 1799.96 207.501C1820.85 213.584 1841.73 222.887 1863.81 235.943C1883.28 247.462 1901.18 260.347 1918.48 272.807C1928.62 280.1 1938.18 286.99 1947.84 293.46C2039.08 354.589 2134.1 420.387 2238.32 494.614L2238.04 494.758Z" fill="#FFE492"/>
<path d="M2234.16 492.684C2139.03 423.518 2043.12 355.078 1949.09 289.269C1939.52 282.607 1930.03 275.451 1919.99 267.876C1887.33 243.234 1850.3 215.306 1804.05 202.029C1759.95 189.4 1707.58 191.401 1643.92 208.145C1568.23 227.988 1501.24 257.164 1430.33 288.054C1408.12 297.726 1385.15 307.731 1361.99 317.382C1321.56 334.264 1277.82 352.128 1231.97 368.398C1182.87 385.824 1138.01 398.995 1094.83 408.668C1085.76 410.7 1076.63 412.613 1067.68 414.349C1018.2 423.954 969.785 429.42 923.768 430.595C872.827 431.894 825.026 427.905 781.688 418.73C701.659 401.577 631.713 365.689 573.795 312.059C572.561 310.915 571.315 309.744 570.087 308.583C552.123 291.563 535.678 273.606 519.777 256.24C512.291 248.066 504.553 239.613 496.767 231.386C469.983 203.04 445.859 181 420.848 162.026C417.481 159.473 414.011 156.913 410.526 154.414C347.113 108.934 264.768 72.6163 172.398 49.3789C61.3047 21.4878 -51.5875 13.7721 -145.485 27.6516C-242.615 42.0902 -338.407 90.7511 -333.56 155.819L-333.926 155.827C-335.088 140.242 -330.478 124.96 -320.23 110.405C-310.733 96.9215 -296.553 84.2373 -278.079 72.7066C-260.675 61.8429 -240.047 52.3441 -216.769 44.4721C-194.169 36.8312 -170.218 31.0989 -145.577 27.4358C-96.0504 20.1164 -41.713 18.7163 15.9295 23.2797C67.7387 27.3808 120.427 36.0916 172.537 49.1742C264.962 72.4248 347.355 108.765 410.805 154.267C414.289 156.767 417.766 159.33 421.134 161.883C446.155 180.868 470.29 202.916 497.085 231.272C504.871 239.501 512.61 247.954 520.095 256.13C535.997 273.494 552.438 291.448 570.395 308.462C571.619 309.625 572.868 310.794 574.099 311.938C631.973 365.526 701.857 401.386 781.809 418.521C864.165 435.956 962.98 434.441 1067.57 414.138C1076.51 412.401 1085.64 410.491 1094.7 408.461C1191.25 386.837 1279.58 351.521 1361.78 317.199C1384.94 307.549 1407.9 297.546 1430.11 287.873C1501.04 256.977 1568.04 227.794 1643.77 207.942C1707.52 191.172 1760 189.171 1804.2 201.829C1824.92 207.775 1845.49 217.095 1867.09 230.319C1886.13 241.979 1903.49 255.075 1920.28 267.737C1930.32 275.312 1939.8 282.467 1949.37 289.123C2043.4 354.935 2139.31 423.375 2234.44 492.544L2234.16 492.684Z" fill="#FFE492"/>
<path d="M2230.27 490.611C2136.6 421.061 2042.51 351.86 1950.62 284.928C1941.35 278.194 1932.15 270.912 1922.4 263.203C1890.54 237.986 1854.43 209.404 1808.29 196.352C1763.67 183.745 1711.2 187.043 1647.87 206.43C1581.53 226.713 1520.57 255.353 1461.63 283.052C1432.07 296.94 1401.5 311.302 1370.36 324.592C1321.2 345.588 1279.84 361.605 1240.2 375C1191.31 391.517 1145.56 403.818 1100.35 412.606C1091.07 414.411 1081.69 416.089 1072.48 417.592C1024.46 425.422 977.314 429.385 932.209 429.387C929.703 429.387 927.212 429.374 924.72 429.349C872.574 428.839 824.033 422.935 780.446 411.805C759.407 406.403 738.804 399.545 719.213 391.422C700.797 383.788 682.701 374.796 665.425 364.696C634.343 346.526 605.287 324.609 576.605 297.698C575.374 296.54 574.146 295.38 572.926 294.215C556.284 278.337 540.54 261.739 525.316 245.686C516.526 236.421 507.439 226.838 498.287 217.511C470.107 188.775 446.235 167.572 420.877 148.765C417.466 146.236 413.952 143.7 410.423 141.226C346.241 96.1972 263.298 60.4385 170.569 37.8109C58.7651 10.5604 -54.4349 3.60191 -148.179 18.2145C-243.487 33.1132 -339.155 82.1438 -337.598 147.029L-337.964 147.031C-338.69 116.808 -318.754 88.0699 -280.315 63.9233C-262.94 53.009 -242.421 43.4419 -219.323 35.4818C-196.848 27.7375 -172.944 21.8555 -148.271 17.9987C-98.8025 10.2874 -44.4065 8.4977 13.4045 12.6803C65.3383 16.438 118.262 24.8229 170.705 37.6039C263.492 60.247 346.482 96.0277 410.705 141.083C414.234 143.559 417.755 146.097 421.166 148.627C446.536 167.444 470.418 188.654 498.605 217.401C507.758 226.731 516.849 236.313 525.635 245.579C540.859 261.629 556.599 278.225 573.238 294.099C574.458 295.263 575.682 296.423 576.913 297.579C637.86 354.766 704.483 392.063 780.589 411.602C885.999 438.52 997.447 429.603 1072.38 417.381C1081.59 415.877 1090.96 414.202 1100.24 412.397C1204.22 392.184 1299.1 354.759 1370.15 324.413C1401.29 311.128 1431.85 296.767 1461.4 282.88C1520.37 255.176 1581.33 226.528 1647.71 206.236C1676.04 197.561 1701.69 192.233 1726.1 189.953C1756.22 187.139 1783.92 189.226 1808.44 196.156C1829.1 202.001 1849.48 211.396 1870.72 224.877C1889.44 236.756 1906.35 250.133 1922.7 263.073C1932.44 270.78 1941.63 278.06 1950.9 284.789C2042.79 351.721 2136.88 420.923 2230.56 490.472L2230.27 490.611Z" fill="#FFE492"/>
<path d="M2226.39 488.537L1952.15 280.589C1943.19 273.798 1934.3 266.408 1924.88 258.586C1893.81 232.773 1858.58 203.517 1812.53 190.681C1768 178.27 1713.94 182.994 1651.83 204.724C1592.13 225.612 1537.68 253.391 1485.02 280.256C1450.7 297.768 1415.2 315.874 1378.74 331.81C1269.13 379.707 1173.33 407.996 1077.28 420.841C1037.43 426.168 998.114 428.85 959.99 428.85C948.434 428.85 936.995 428.603 925.676 428.11C872.299 425.785 823.018 417.971 779.207 404.886C738.602 392.756 701.457 375.634 665.659 352.538C637.072 334.095 609.669 312.108 579.423 283.343C563.458 268.162 548 252.389 533.051 237.136C499.217 202.619 464.233 166.926 420.921 135.513C354.485 87.3323 267.281 49.5483 168.737 26.2448C56.2257 -0.362912 -57.282 -6.56631 -150.872 8.77929C-241.483 23.6362 -339.829 70.4853 -341.639 138.243L-342.006 138.238C-341.196 107.952 -320.637 79.2181 -282.553 55.1419C-248.119 33.3728 -201.388 16.8318 -150.967 8.56576C-101.554 0.464796 -47.0997 -1.71674 10.8762 2.08499C62.9346 5.49708 116.092 13.5584 168.872 26.0401C217.633 37.5707 263.943 52.7491 306.519 71.1545C349.45 89.7141 388.036 111.318 421.199 135.368C464.53 166.792 499.525 202.494 533.366 237.02C548.315 252.271 563.773 268.041 579.734 283.219C623.863 325.19 686.438 376.924 779.372 404.683C885.951 436.517 1000.15 430.921 1077.19 420.621C1173.21 407.785 1268.95 379.506 1378.52 331.627C1414.97 315.698 1450.46 297.592 1484.78 280.085C1537.45 253.215 1591.92 225.429 1651.65 204.53C1713.86 182.763 1768.04 178.034 1812.69 190.479C1833.31 196.226 1853.49 205.703 1874.4 219.455C1892.8 231.56 1909.26 245.233 1925.18 258.454C1934.59 266.276 1943.49 273.661 1952.44 280.45L2226.68 488.398L2226.39 488.537Z" fill="#FFE492"/>
<path d="M2224.18 472.551C2154.35 414.651 2094.43 367.667 2035.62 324.695C2007.08 303.819 1977.92 283.272 1948.97 263.623C1940.21 257.679 1931.54 251.357 1922.35 244.663C1899.27 227.838 1875.4 210.44 1847.93 197.529C1833.18 190.584 1818.98 185.611 1804.52 182.327C1760.14 172.146 1708.07 178.877 1649.75 202.337C1619.57 214.46 1592.09 228.256 1569.19 240.152C1544.95 252.746 1521.03 266.634 1497.9 280.065C1464.66 299.37 1430.28 319.332 1393.33 336.476C1370.84 346.939 1348.05 356.288 1325.58 364.266C1280.62 380.226 1232.36 393.377 1182.15 403.353C1151.13 409.449 1119.95 414.056 1089.5 417.046C1063.26 419.613 1036.96 421.094 1011.35 421.448C973.012 421.981 935.661 419.949 900.333 415.404C862.769 410.569 827.221 402.854 794.677 392.468C765.658 383.207 738.247 371.546 710.881 356.817C659.885 329.392 619.21 297.682 589.473 273.119C574.865 260.997 560.601 248.634 546.806 236.678C507.084 202.247 469.564 169.726 422.614 140.759C384.321 117.288 340.631 97.0334 292.746 80.5541C255.948 67.8898 215.926 57.5324 173.794 49.7683C163.758 47.9213 153.531 46.1999 143.408 44.6567C99.8206 38.0241 50.752 33.705 -2.43134 31.8185C-56.0506 29.8725 -102.441 31.5565 -144.244 36.9718C-167.877 40.0097 -190.773 44.7756 -212.307 51.1353C-288.328 73.5891 -337.143 111.283 -342.889 151.968L-343.347 151.944C-341.815 141.098 -337.319 130.415 -329.988 120.187C-323.022 110.473 -313.456 101.104 -301.555 92.3402C-279.069 75.786 -248.276 61.4508 -212.508 50.8866C-190.942 44.5159 -168.009 39.7433 -144.339 36.7011C-102.492 31.2813 -56.0653 29.5951 -2.40204 31.5433C50.8106 33.4299 99.9048 37.7533 143.521 44.3904C153.656 45.9357 163.886 47.6572 173.929 49.5063C216.095 57.2749 256.15 67.641 292.977 80.3164C340.895 96.8067 384.621 117.079 422.932 140.565C469.913 169.55 507.439 202.08 547.176 236.52C560.967 248.475 575.231 260.836 589.836 272.956C619.558 297.508 660.214 329.203 711.181 356.61C738.518 371.324 765.9 382.973 794.886 392.223C858.577 412.548 931.4 422.289 1011.33 421.173C1036.93 420.819 1063.2 419.337 1089.43 416.773C1119.86 413.783 1151.01 409.18 1182 403.089C1232.19 393.119 1280.41 379.977 1325.34 364.026C1347.8 356.055 1370.58 346.71 1393.04 336.256C1429.98 319.121 1464.35 299.163 1497.58 279.864C1520.71 266.432 1544.63 252.539 1568.89 239.941C1591.8 228.038 1619.29 214.238 1649.5 202.106C1675.46 191.661 1700.6 184.445 1724.22 180.656C1753.24 176.002 1780.31 176.478 1804.68 182.069C1819.19 185.365 1833.42 190.351 1848.21 197.311C1875.72 210.242 1899.6 227.65 1922.7 244.486C1931.89 251.178 1940.56 257.501 1949.31 263.44C1978.27 283.091 2007.43 303.641 2035.98 324.521C2094.79 367.498 2154.71 414.486 2224.55 472.39L2224.18 472.551Z" fill="#FFE492"/>
<path d="M2221.97 456.56C2157.22 397.681 2096.46 348.41 2036.19 305.935C2006.81 285.187 1976.39 265.243 1945.79 246.657C1937.67 241.726 1929.66 236.601 1921.17 231.177C1895.76 214.933 1869.48 198.137 1840.05 186.516C1825.19 180.623 1810.95 176.52 1796.51 173.971C1741.22 164.206 1685.06 182.706 1647.67 199.944C1621.19 212.122 1597 225.892 1572.49 240.106C1551.05 252.548 1530.87 265.932 1509.51 280.1C1477.8 301.132 1445.02 322.879 1407.92 341.139C1385.9 352.034 1362.92 361.453 1339.62 369.136C1296.22 383.449 1248.7 394.564 1194.33 403.118C1163.9 407.904 1132.75 411.314 1101.72 413.249C1075.54 414.862 1049.41 415.439 1024.04 414.957C986.313 414.248 949.431 411.06 914.417 405.484C877.645 399.627 842.559 391.068 810.136 380.046C781.728 370.391 754.3 358.411 726.281 343.424C675.395 316.244 631.804 286.112 599.517 262.896C587.565 254.302 575.803 245.655 564.426 237.29C519.121 203.98 476.328 172.513 424.307 146.005C385.428 126.193 341.778 109.44 294.578 96.2147C258.865 86.2073 221.012 78.7095 178.861 73.292C169.133 72.0438 159.237 70.919 149.45 69.9482C106.464 65.7062 60.5864 64.1014 5.08014 62.4416C-34.931 61.1846 -87.3082 60.3569 -137.626 65.1602C-161.457 67.3924 -184.493 71.269 -206.1 76.6777C-282.172 95.726 -333.776 129.002 -344.145 165.694L-344.688 165.639C-341.939 155.909 -336.37 146.366 -328.144 137.272C-320.303 128.608 -310 120.3 -297.524 112.573C-273.814 97.8943 -242.274 85.3752 -206.312 76.3717C-184.665 70.952 -161.585 67.0688 -137.714 64.8322C-87.3485 60.0223 -34.931 60.8522 5.10574 62.1092C60.6303 63.769 106.522 65.3738 149.538 69.618C159.332 70.591 169.236 71.7158 178.975 72.964C221.166 78.3881 259.056 85.8925 294.809 95.9109C342.057 109.15 385.743 125.915 424.662 145.747C476.721 172.276 519.531 203.751 564.851 237.075C576.224 245.438 587.986 254.084 599.938 262.676C632.218 285.883 675.791 316.004 726.647 343.171C754.633 358.142 782.032 370.109 810.407 379.753C874.161 401.425 946.049 413.156 1024.06 414.622C1049.4 415.102 1075.51 414.528 1101.66 412.914C1132.66 410.981 1163.79 407.576 1194.19 402.792C1248.51 394.247 1296 383.141 1339.36 368.841C1362.63 361.167 1385.58 351.761 1407.57 340.877C1444.64 322.632 1477.41 300.894 1509.11 279.873C1530.48 265.699 1550.66 252.312 1572.12 239.864C1596.63 225.641 1620.83 211.867 1647.34 199.676C1671.58 188.5 1695.48 180.46 1718.39 175.776C1746.17 170.096 1772.51 169.381 1796.67 173.647C1811.16 176.207 1825.45 180.324 1840.36 186.234C1869.84 197.877 1896.14 214.689 1921.58 230.946C1930.06 236.368 1938.08 241.491 1946.19 246.419C1976.8 265.012 2007.22 284.963 2036.62 305.717C2096.89 348.203 2157.68 397.483 2222.43 456.375L2221.97 456.56Z" fill="#FFE492"/>
<path d="M2219.76 440.57C2159.16 379.912 2099.31 329.736 2036.77 287.178C2006.53 266.558 1974.85 247.219 1942.62 229.694C1935.73 225.947 1928.63 221.972 1921.77 218.128C1893.45 202.248 1864.16 185.828 1832.18 175.506C1817.17 170.627 1802.88 167.391 1788.51 165.615C1733.33 158.793 1680.34 179.217 1645.59 197.55C1622.05 209.926 1600.52 223.953 1579.7 237.52L1575.8 240.06C1556.9 252.368 1539.17 265.867 1520.4 280.16C1490.5 302.92 1459.59 326.452 1422.51 345.802C1400.93 357.143 1377.77 366.633 1353.67 374.008C1311.65 386.866 1264.88 396.041 1206.5 402.883C1176.31 406.42 1145.17 408.631 1113.93 409.45C1087.81 410.108 1061.84 409.778 1036.73 408.463C960.701 404.503 889.663 390.762 825.587 367.624C797.887 357.621 770.44 345.326 741.681 330.031C693.011 304.203 649.725 277.655 609.563 252.676C604.177 249.328 598.85 246.002 593.563 242.702C538.709 208.473 486.899 176.142 426.011 151.258C386.26 135.012 342.654 121.764 296.41 111.88C262.46 104.624 225.665 99.6976 183.932 96.8183C174.527 96.1733 164.96 95.6428 155.496 95.2421C131.687 94.2515 106.434 94.0908 79.6981 93.9213C58.2233 93.7848 36.0193 93.6439 12.5879 93.0694C-32.6665 91.8653 -83.9554 90.5026 -131.016 93.3556C-155.298 94.8283 -178.473 97.8133 -199.9 102.229C-275.943 117.903 -330.339 146.765 -345.409 179.435L-346.028 179.331C-342.057 170.718 -335.417 162.315 -326.298 154.357C-317.577 146.747 -306.541 139.496 -293.497 132.806C-268.549 120.012 -236.254 109.313 -200.112 101.864C-178.637 97.4369 -155.415 94.4452 -131.086 92.9703C-83.9774 90.1152 -32.6628 91.48 12.6099 92.6842C36.0266 93.2565 58.2306 93.3996 79.6981 93.5361C106.445 93.7056 131.705 93.8663 155.536 94.8591C165.008 95.2619 174.585 95.7925 183.998 96.4375C225.783 99.319 262.621 104.252 296.619 111.519C342.918 121.414 386.571 134.677 426.366 150.941C487.31 175.847 539.145 208.193 594.021 242.438C599.308 245.737 604.639 249.061 610.021 252.412C650.175 277.386 693.448 303.928 742.102 329.747C770.832 345.025 798.25 357.308 825.917 367.298C889.909 390.408 960.855 404.129 1036.78 408.085C1061.87 409.397 1087.81 409.727 1113.9 409.069C1145.1 408.25 1176.22 406.042 1206.37 402.509C1264.69 395.674 1311.41 386.509 1353.37 373.669C1377.43 366.31 1400.54 356.837 1422.08 345.516C1459.12 326.19 1490.01 302.671 1519.89 279.924C1538.67 265.624 1556.41 252.119 1575.33 239.803L1579.22 237.262C1600.05 223.689 1621.59 209.653 1645.17 197.264C1680.02 178.871 1733.2 158.388 1788.63 165.241C1803.07 167.026 1817.41 170.273 1832.48 175.171C1864.53 185.515 1893.85 201.953 1922.21 217.851C1929.06 221.694 1936.16 225.67 1943.04 229.414C1975.29 246.948 2006.98 266.298 2037.24 286.929C2099.81 329.505 2159.68 379.698 2220.3 440.376L2219.76 440.57Z" fill="#FFE492"/>
<path d="M2217.55 424.577C2161.91 363.003 2101.28 310.463 2037.34 268.422C2006.26 247.932 1973.32 229.196 1939.45 212.735C1934.56 210.357 1929.55 207.889 1924.7 205.503C1892.69 189.739 1859.59 173.436 1824.33 164.499C1809.19 160.622 1794.86 158.256 1780.52 157.261C1725.5 153.448 1675.65 175.763 1643.53 195.155C1623.57 207.134 1605.57 220.457 1588.15 233.341C1585.14 235.571 1582.13 237.797 1579.11 240.014C1562.55 252.192 1547.06 265.796 1530.66 280.197C1502.79 304.681 1473.96 329.996 1437.1 350.469C1415.45 362.49 1392.76 371.784 1367.71 378.886C1315.32 393.738 1262.97 399.235 1218.67 402.656C1188.7 404.967 1157.57 405.98 1126.14 405.659C1100.1 405.361 1074.29 404.122 1049.42 401.978C975.673 395.636 905.565 379.901 841.045 355.208C814.199 344.937 786.737 332.323 757.084 316.647C727.131 300.85 699.219 285.65 672.222 270.949C653.876 260.957 636.545 251.52 619.621 242.466C555.647 208.239 497.049 178.147 427.729 156.517C387.124 143.848 343.563 134.1 298.253 127.547C265.779 122.849 231.066 120.562 189.014 120.344C179.942 120.304 170.701 120.368 161.552 120.535C147.655 120.806 133.277 121.372 118.06 121.973C88.8582 123.124 55.7538 124.43 20.0955 123.699C6.5166 123.419 -7.33707 123.025 -20.7364 122.642C-55.2002 121.658 -90.8365 120.641 -124.41 121.55C-149.065 122.22 -172.383 124.315 -193.708 127.78C-269.622 140.119 -326.807 164.569 -346.681 193.184L-347.358 193.015C-342.155 185.522 -334.446 178.261 -324.447 171.435C-314.844 164.879 -303.075 158.687 -289.474 153.032C-263.265 142.135 -230.22 133.257 -193.905 127.355C-172.53 123.882 -149.16 121.779 -124.45 121.11C-90.8401 120.199 -55.1892 121.218 -20.7071 122.202C-7.3114 122.585 6.54224 122.979 20.1175 123.259C55.7428 123.989 88.8215 122.686 118.009 121.535C133.233 120.934 147.614 120.368 161.527 120.097C170.687 119.93 179.935 119.866 189.018 119.906C231.129 120.122 265.893 122.415 298.422 127.12C343.786 133.682 387.406 143.441 428.062 156.127C459.375 165.897 491.106 178.275 525.068 193.966C555.472 208.013 585.047 223.383 620.105 242.138C637.029 251.194 654.36 260.632 672.709 270.623C699.702 285.322 727.615 300.522 757.561 316.317C787.184 331.977 814.617 344.578 841.43 354.838C905.862 379.498 975.87 395.211 1049.51 401.544C1074.36 403.686 1100.14 404.923 1126.14 405.221C1157.54 405.542 1188.64 404.532 1218.56 402.22C1262.81 398.806 1315.1 393.316 1367.39 378.49C1392.37 371.408 1415.01 362.138 1436.6 350.147C1473.39 329.71 1502.2 304.414 1530.05 279.951C1546.46 265.541 1561.95 251.93 1578.54 239.739C1581.55 237.522 1584.56 235.296 1587.57 233.068C1605 220.175 1623.02 206.844 1642.99 194.849C1663.9 182.233 1685.34 172.527 1706.73 166.002C1732.07 158.273 1756.92 155.187 1780.59 156.829C1795 157.829 1809.4 160.206 1824.6 164.098C1859.95 173.06 1893.1 189.383 1925.15 205.166C1930 207.553 1935.01 210.02 1939.89 212.396C1973.79 228.87 2006.75 247.624 2037.86 268.129C2071.81 290.453 2105.06 315.888 2136.68 343.726C2164.63 368.33 2192.05 395.464 2218.17 424.37L2217.55 424.577Z" fill="#FFE492"/>
<path d="M2215.33 408.579C2163.84 345.24 2104.15 291.773 2037.92 249.664C2005.98 229.304 1971.79 211.173 1936.29 195.773C1934.6 195.04 1932.91 194.307 1931.22 193.571C1894.3 177.537 1856.13 160.956 1816.49 153.491C1801.13 150.599 1786.75 149.1 1772.55 148.906C1717.75 148.162 1671.02 172.341 1641.47 192.755C1624.08 204.697 1608.64 217.786 1593.71 230.444C1590.02 233.574 1586.2 236.81 1582.44 239.963C1568.09 251.969 1554.75 265.619 1540.62 280.073C1514.94 306.364 1488.38 333.549 1451.71 355.131C1430.49 367.617 1407.61 376.981 1381.76 383.761C1330.84 397.117 1279.13 400.624 1230.84 402.424C1201.06 403.534 1169.94 403.344 1138.34 401.863C1112.4 400.608 1086.75 398.462 1062.11 395.486C990.871 386.9 921.694 369.171 856.507 342.788C830.401 332.223 803.705 319.662 772.499 303.258C713.189 272.166 669.148 250.267 629.701 232.253C551.243 196.426 491.362 175.349 429.48 161.775C388.051 152.688 344.534 146.443 300.129 143.211C269.322 140.97 236.628 141.17 194.125 143.867C185.416 144.426 176.505 145.084 167.638 145.826C159.262 146.537 150.754 147.352 141.745 148.213C108.479 151.393 70.7725 154.999 27.6176 154.326C4.8714 153.971 -18.3622 153 -40.83 152.063C-66.3645 150.997 -92.7675 149.894 -117.8 149.745C-142.899 149.595 -166.359 150.801 -187.512 153.333C-263.174 162.383 -323.154 182.426 -347.956 206.947L-348.659 206.689C-342.218 200.318 -333.439 194.201 -322.568 188.506C-312.074 183.007 -299.58 177.876 -285.429 173.251C-257.942 164.265 -224.137 157.207 -187.673 152.846C-166.462 150.31 -142.95 149.1 -117.793 149.249C-92.7382 149.399 -66.3206 150.502 -40.775 151.57C-18.3145 152.507 4.90802 153.478 27.636 153.833C70.7139 154.504 108.38 150.903 141.609 147.726C150.623 146.863 159.138 146.051 167.517 145.338C176.395 144.596 185.313 143.937 194.03 143.376C236.599 140.677 269.348 140.475 300.221 142.722C344.688 145.958 388.267 152.212 429.755 161.313C491.721 174.904 551.664 196.004 630.192 231.862C669.653 249.882 713.71 271.787 773.034 302.888C804.218 319.279 830.885 331.827 856.962 342.38C922.061 368.726 991.135 386.432 1062.26 395.004C1086.87 397.975 1112.49 400.117 1138.4 401.372C1169.96 402.851 1201.04 403.041 1230.78 401.933C1279 400.135 1330.62 396.637 1381.43 383.312C1407.18 376.558 1429.98 367.225 1451.12 354.783C1487.71 333.247 1514.25 306.091 1539.91 279.829C1554.04 265.366 1567.39 251.705 1581.76 239.681C1585.53 236.531 1589.35 233.295 1593.03 230.164C1607.97 217.496 1623.42 204.398 1640.84 192.435C1660.12 179.113 1680.34 168.575 1700.93 161.112C1725.05 152.371 1749.15 148.102 1772.56 148.417C1786.85 148.611 1801.29 150.119 1816.73 153.025C1856.5 160.516 1894.73 177.118 1931.7 193.177C1933.39 193.913 1935.08 194.648 1936.77 195.379C1972.31 210.797 2006.54 228.949 2038.51 249.331C2104.8 291.479 2164.54 344.987 2216.07 408.37L2215.33 408.579Z" fill="#FFE492"/>
<path d="M1249.07 402.196C1247.01 402.196 1244.99 402.194 1242.99 402.187C1213.37 402.112 1182.26 400.725 1150.54 398.062C1124.69 395.85 1099.2 392.796 1074.79 388.99C1039.91 383.562 1004.9 375.76 970.733 365.803C937.739 356.188 904.51 344.265 871.966 330.364C840.078 316.744 810.293 301.568 787.906 289.868C735.525 262.567 685.687 239.747 639.777 222.042C565.419 193.367 499.155 175.886 431.235 167.03C390.261 161.688 346.3 158.87 303.973 158.87C303.317 158.87 302.665 158.87 302.009 158.872C265.647 158.947 231.125 163.006 199.24 167.382C190.941 168.529 182.357 169.782 173.724 171.109C168.994 171.845 164.256 172.602 159.244 173.403C123.89 179.063 83.8164 185.475 35.1325 184.949C5.48325 184.628 -24.7999 182.783 -54.0865 180.998C-72.9965 179.844 -92.5477 178.653 -111.198 177.934C-136.835 176.945 -160.427 177.262 -181.327 178.88C-256.586 184.7 -319.362 200.339 -349.256 220.715L-349.945 220.351C-334.611 209.902 -311.546 200.854 -281.391 193.457C-252.592 186.396 -218.029 181.165 -181.444 178.336C-160.49 176.716 -136.835 176.395 -111.139 177.388C-92.4707 178.107 -72.9085 179.301 -53.9912 180.454C-24.723 182.239 5.54184 184.084 35.1508 184.403C83.7101 184.929 123.714 178.526 159.009 172.877C164.026 172.074 168.763 171.316 173.497 170.581C182.137 169.254 190.729 167.999 199.035 166.852C230.974 162.469 265.556 158.403 302.005 158.326C345.006 158.236 389.755 161.062 431.43 166.498C466.483 171.07 500.467 177.799 535.316 187.071C568.878 196.002 603.21 207.291 640.268 221.584C686.215 239.303 736.089 262.14 788.503 289.458C810.872 301.152 840.635 316.317 872.49 329.921C938.527 358.129 1006.67 377.825 1075.02 388.464C1099.4 392.266 1124.85 395.315 1150.67 397.525C1182.35 400.184 1213.41 401.571 1242.99 401.643C1289.28 401.758 1343.03 400.82 1395.46 388.129C1421.99 381.706 1444.95 372.313 1465.64 359.415C1501.98 336.763 1526.06 307.69 1549.36 279.572C1561.35 265.109 1572.67 251.448 1584.97 239.622C1588.92 235.833 1592.9 231.93 1596.74 228.155C1609.74 215.4 1623.18 202.214 1638.67 190.026C1656.36 176.003 1675.35 164.629 1695.11 156.219C1718.01 146.47 1741.36 141.015 1764.5 140.006C1778.79 139.384 1793.29 140.02 1808.83 141.952C1850.38 147.117 1891.57 162.121 1933.62 178.361C1970.28 192.52 2006.77 210.56 2039.14 230.533C2075.1 252.654 2108.89 278.606 2139.56 307.666C2166.88 333.556 2191.91 362.054 2213.95 392.371L2213.11 392.591C2165.78 327.484 2107.03 273.089 2038.49 230.918C2006.16 210.974 1969.73 192.96 1933.13 178.825C1891.15 162.614 1850.04 147.639 1808.64 142.492C1793.19 140.57 1778.77 139.938 1764.57 140.557C1722.04 142.413 1677.59 160.098 1639.4 190.36C1623.94 202.527 1610.51 215.702 1597.52 228.443C1593.68 232.221 1589.69 236.126 1585.75 239.915C1573.47 251.718 1562.15 265.369 1550.18 279.819C1538.75 293.614 1526.93 307.881 1513.37 321.596C1497.99 337.144 1482.6 349.639 1466.3 359.798C1445.52 372.753 1422.46 382.188 1395.8 388.642C1372.29 394.335 1347.02 398.097 1318.55 400.149C1294.43 401.877 1270.22 402.196 1249.07 402.196Z" fill="#FFE492"/>
<path d="M1307.82 403.298C1289.14 403.298 1271.19 402.629 1255.14 401.951C1225.62 400.705 1194.52 398.119 1162.73 394.262C1136.98 391.094 1111.66 387.136 1087.45 382.494C1021.18 369.807 955.74 348.69 887.41 317.939C857.61 304.531 829.518 290.103 803.306 276.477C751.555 249.653 699.929 227.904 649.853 211.83C576.206 188.189 507.301 175.622 433.002 172.28C390.667 170.376 346.025 171.153 303.896 174.525C268.633 177.348 235.39 184.159 204.356 190.89C196.591 192.583 188.333 194.432 179.814 196.385C177.685 196.876 175.538 197.375 173.362 197.88C137.619 206.183 97.1755 215.578 45.271 215.578C44.3953 215.578 43.5233 215.576 42.6403 215.57C7.52426 215.356 -28.3282 212.345 -63.0045 209.43C-76.7519 208.274 -90.9683 207.081 -104.609 206.115C-131.254 204.23 -154.33 203.674 -175.16 204.418C-250.921 207.125 -314.869 218.079 -350.601 234.477L-351.213 233.995C-333.549 225.89 -308.007 218.852 -277.357 213.643C-247.21 208.521 -211.892 205.122 -175.223 203.812C-154.334 203.066 -131.199 203.623 -104.496 205.512C-90.8401 206.478 -76.62 207.673 -62.869 208.827C-28.2256 211.737 7.59387 214.746 42.6439 214.96C95.6294 215.286 136.732 205.734 172.992 197.309C175.164 196.805 177.315 196.306 179.444 195.813C187.97 193.858 196.232 192.009 204.004 190.316C235.089 183.571 268.395 176.751 303.753 173.92C345.948 170.543 390.664 169.764 433.068 171.67C469.887 173.326 504.992 177.235 540.387 183.619C576.84 190.195 612.799 199.244 650.318 211.29C700.457 227.386 752.149 249.162 803.954 276.012C830.156 289.634 858.23 304.053 888.004 317.448C956.242 348.157 1021.58 369.244 1087.75 381.91C1111.92 386.544 1137.21 390.498 1162.92 393.661C1194.67 397.513 1225.72 400.098 1255.2 401.339C1304.8 403.431 1357.57 404.505 1409.48 392.932C1436.8 386.841 1459.91 377.389 1480.15 364.033C1516.19 340.243 1538.63 307.793 1558.42 279.162C1568.38 264.757 1577.79 251.15 1588.17 239.551C1591.92 235.366 1595.69 231.041 1599.33 226.858C1610.74 213.771 1622.53 200.239 1636.48 187.601C1652.63 172.879 1670.39 160.668 1689.28 151.308C1710.97 140.559 1733.56 133.919 1756.43 131.579C1770.73 130.115 1785.28 129.882 1800.92 130.86C1844.61 133.596 1889 147.116 1930.46 161.322C1968.75 174.437 2006.54 191.863 2039.77 211.715C2076.73 233.733 2110.78 259.944 2140.98 289.616C2167.98 316.152 2191.82 345.333 2211.83 376.354L2210.89 376.572C2168.36 310.633 2108.94 253.774 2039.06 212.142C2005.9 192.328 1968.18 174.935 1929.97 161.846C1888.6 147.673 1844.33 134.186 1800.82 131.46C1785.27 130.487 1770.81 130.721 1756.61 132.174C1714.38 136.495 1672.02 156.296 1637.33 187.932C1623.4 200.543 1611.62 214.062 1600.23 227.136C1596.59 231.32 1592.82 235.646 1589.07 239.835C1578.71 251.408 1569.31 265.001 1559.36 279.391C1539.53 308.066 1517.06 340.569 1480.89 364.438C1460.55 377.866 1437.3 387.372 1409.83 393.498C1386 398.812 1360.28 401.89 1331.21 402.9C1323.36 403.186 1315.53 403.298 1307.82 403.298Z" fill="#FFE492"/>
<path d="M1344.7 405.683C1344.43 405.683 1344.17 405.683 1343.9 405.683C1317.5 405.643 1291.58 403.701 1267.28 401.716C1237.81 399.308 1206.73 395.519 1174.92 390.46C1149.29 386.342 1124.13 381.474 1100.13 375.998C1036.5 361.497 973.818 339.103 902.865 305.517C877.312 293.425 852.166 280.404 827.844 267.814C824.803 266.238 821.758 264.664 818.713 263.09C766.695 236.273 713.277 215.592 659.947 201.622C586.92 182.494 513.269 174.614 434.786 177.53C391.752 179.131 347.15 183.505 305.801 190.179C273.177 195.447 244.106 203.898 209.489 214.399C202.472 216.536 194.979 218.843 185.914 221.661L185.409 221.819C167.92 227.292 148.098 233.493 125.865 238.208C100.33 243.624 75.5575 246.23 50.1548 246.199C10.5431 246.14 -29.8821 241.711 -68.9735 237.425C-78.5513 236.375 -88.4588 235.289 -98.0219 234.308C-125.447 231.497 -148.662 230.077 -168.994 229.969C-243.857 229.573 -310.55 236.238 -351.968 248.253L-352.444 247.659C-332.157 241.772 -304.79 236.995 -273.305 233.843C-241.762 230.684 -205.686 229.117 -168.983 229.311C-148.593 229.418 -125.319 230.841 -97.835 233.658C-88.2646 234.64 -78.3571 235.725 -68.7757 236.775C-29.7318 241.055 10.642 245.479 50.1585 245.539C50.3344 245.539 50.5139 245.539 50.6898 245.539C107.215 245.539 150.278 232.067 184.903 221.234L185.412 221.075C194.481 218.255 201.974 215.948 208.994 213.811C243.67 203.293 272.792 194.826 305.519 189.543C346.937 182.856 391.612 178.475 434.72 176.872C473.126 175.446 509.352 176.533 545.476 180.201C584.402 184.152 621.992 190.961 660.387 201.019C713.819 215.015 767.329 235.73 819.431 262.591C822.476 264.165 825.521 265.741 828.562 267.317C852.873 279.902 878.012 292.919 903.542 305.002C974.405 338.546 1036.99 360.909 1100.52 375.386C1124.48 380.856 1149.61 385.714 1175.2 389.829C1206.97 394.881 1238 398.663 1267.43 401.066C1320.15 405.377 1371.75 408.366 1423.53 397.764C1451.62 392.01 1474.9 382.498 1494.67 368.682C1530.39 343.726 1549.91 309.145 1567.13 278.632C1575.19 264.347 1582.8 250.853 1591.39 239.514C1594.7 235.151 1598.01 230.638 1601.22 226.273C1611.24 212.624 1621.61 198.514 1634.32 185.209C1648.95 169.779 1665.49 156.73 1683.46 146.423C1703.96 134.677 1725.79 126.858 1748.37 123.186C1762.37 120.91 1776.66 119.8 1792.01 119.8C1792.34 119.8 1792.68 119.8 1793.01 119.802C1840.74 119.952 1889.86 132.98 1927.32 144.312C1967.22 156.386 2006.33 173.196 2040.41 192.924C2078.37 214.841 2112.7 241.31 2142.42 271.599C2169.09 298.779 2191.74 328.644 2209.72 360.37L2208.68 360.584C2181.92 313.378 2130.86 246.056 2039.65 193.402C2005.65 173.718 1966.63 156.948 1926.82 144.902C1889.47 133.6 1840.51 120.61 1793.01 120.463C1777.37 120.408 1762.87 121.513 1748.66 123.824C1706.83 130.628 1666.56 152.545 1635.27 185.537C1622.59 198.811 1612.24 212.906 1602.22 226.539C1599.02 230.907 1595.7 235.422 1592.39 239.787C1583.83 251.097 1576.22 264.574 1568.17 278.843C1550.92 309.411 1531.37 344.058 1495.51 369.112C1475.6 383.02 1452.17 392.596 1423.88 398.387C1399.91 403.294 1374 405.683 1344.7 405.683Z" fill="#FFE492"/>
<path d="M1374.03 408.782C1368.34 408.782 1362.53 408.672 1356.58 408.452C1330.53 407.49 1305.22 404.604 1279.43 401.478C1249.53 397.854 1219.33 393.007 1187.11 386.658C1161.61 381.591 1136.61 375.819 1112.8 369.499C1052.39 353.49 992.41 329.925 918.32 293.092C899.919 283.945 881.526 274.352 863.737 265.073C854.053 260.023 844.043 254.8 834.124 249.699C781.487 222.702 726.285 203.092 670.049 191.412C595.746 175.978 519.381 173.152 436.581 182.771C392.837 187.854 348.275 195.825 307.718 205.822C275.137 213.852 246.756 225.13 216.707 237.07L214.63 237.895C209.936 239.767 205.191 241.664 200.388 243.584C197.621 244.691 194.836 245.805 192.026 246.928C174.505 253.965 155.58 261.307 133.878 266.958C108.681 273.518 83.7579 276.745 57.6774 276.824C14.2588 276.952 -30.0283 270.889 -72.8534 265.02C-78.9649 264.182 -85.2891 263.317 -91.4263 262.496C-120.2 258.643 -142.884 256.426 -162.823 255.515C-236.404 252.154 -305.845 254.522 -353.345 262.016L-353.649 261.324C-306.024 253.811 -236.441 251.434 -162.732 254.802C-142.737 255.715 -119.995 257.939 -91.1662 261.798C-85.0252 262.621 -78.7011 263.486 -72.5859 264.325C-30.2848 270.121 13.4417 276.111 56.2851 276.111C56.7468 276.111 57.2085 276.111 57.6738 276.109C113.089 275.941 152.535 261.928 191.37 246.333C194.181 245.211 196.965 244.097 199.732 242.989C204.535 241.068 209.276 239.172 213.974 237.299L216.051 236.473C246.151 224.513 274.58 213.216 307.267 205.159C347.897 195.143 392.536 187.159 436.358 182.067C519.366 172.423 595.937 175.258 670.441 190.734C726.816 202.445 782.146 222.099 834.901 249.155C844.819 254.258 854.833 259.48 864.517 264.532C882.299 273.808 900.688 283.4 919.078 292.54C993.08 329.331 1052.98 352.863 1113.28 368.845C1137.06 375.154 1162.02 380.919 1187.48 385.978C1219.65 392.318 1249.81 397.159 1279.67 400.775C1324.99 406.268 1381.4 413.105 1437.57 402.574C1466.45 397.161 1489.88 387.589 1509.19 373.311C1544.57 347.159 1560.97 310.377 1575.45 277.927C1581.74 263.83 1587.68 250.514 1594.61 239.463C1597.31 235.157 1600.02 230.704 1602.63 226.396C1611.41 211.948 1620.49 197.01 1632.15 182.802C1645.3 166.655 1660.61 152.767 1677.64 141.523C1696.94 128.781 1718.03 119.784 1740.3 114.781C1754.6 111.569 1769.25 109.59 1785.1 108.729C1806.32 107.576 1828.91 108.808 1854.16 112.489C1875.52 115.606 1898.42 120.445 1924.17 127.284C1965.7 138.315 2006.11 154.511 2041.04 174.118C2080.02 195.931 2114.61 222.662 2143.85 253.565C2170.18 281.392 2191.64 311.942 2207.61 344.37L2206.47 344.573C2172.74 276.111 2113.7 215.761 2040.23 174.642C2005.39 155.087 1965.09 138.938 1923.68 127.94C1868.2 113.204 1824.21 107.325 1785.21 109.442C1769.46 110.296 1754.92 112.262 1740.72 115.45C1687.72 127.353 1653 158.819 1633.22 183.117C1621.59 197.289 1612.52 212.21 1603.75 226.64C1601.13 230.95 1598.42 235.406 1595.72 239.714C1588.81 250.732 1582.88 264.032 1576.6 278.112C1562.1 310.632 1545.66 347.492 1510.11 373.763C1490.65 388.153 1467.03 397.801 1437.92 403.259C1418.19 406.957 1397.15 408.782 1374.03 408.782Z" fill="#FFE492"/>
<path d="M1399.43 412.335C1360.68 412.335 1323.43 406.354 1291.56 401.238C1261.58 396.426 1231.4 390.412 1199.28 382.855C1173.93 376.845 1149.09 370.166 1125.46 363.001C1054.62 341.546 991.461 310.752 933.767 280.668C921.987 274.526 910.086 268.195 898.581 262.073C882.606 253.572 866.085 244.782 849.531 236.311C796.106 209.047 739.119 190.505 680.158 181.2C603.884 169.165 524.796 171.391 438.376 188.007C393.88 196.561 349.363 208.129 309.634 221.461C278.991 231.741 253.065 244.72 225.618 258.461C223.672 259.434 221.723 260.411 219.762 261.389L218.7 261.921C212.028 265.265 205.128 268.721 198.134 272.191C181.375 280.54 162.919 289.176 141.572 295.774C116.792 303.432 91.8111 307.251 65.192 307.45C18.4684 307.8 -29.153 299.908 -75.2024 292.276C-78.4304 291.741 -81.6437 291.208 -84.8424 290.682C-115.21 285.676 -137.363 282.709 -156.665 281.058C-228.399 274.925 -300.595 272.996 -354.742 275.768L-354.852 274.999C-300.617 272.221 -228.315 274.152 -156.485 280.294C-137.128 281.949 -114.928 284.923 -84.5053 289.938C-81.3066 290.464 -78.0933 290.997 -74.8616 291.534C-28.9001 299.15 18.6296 307.023 65.1737 306.679C122.981 306.248 163.692 288.344 197.313 271.596C204.308 268.127 211.207 264.671 217.879 261.329L218.942 260.796C220.902 259.817 222.851 258.842 224.797 257.869C252.292 244.104 278.262 231.102 309.007 220.787C348.809 207.431 393.411 195.843 437.984 187.274C478.955 179.397 517.439 174.849 555.629 173.37C598.23 171.721 640.235 174.105 680.48 180.456C739.629 189.79 796.784 208.384 850.359 235.723C866.924 244.198 883.449 252.99 899.428 261.494C910.933 267.616 922.826 273.945 934.602 280.085C992.237 310.135 1055.32 340.897 1126.03 362.312C1149.63 369.466 1174.43 376.136 1199.75 382.137C1231.81 389.683 1261.95 395.688 1291.89 400.494C1337.86 407.873 1395.07 417.057 1451.6 407.393C1481.26 402.321 1504.84 392.69 1523.69 377.95C1558.71 350.567 1571.81 311.522 1583.37 277.071C1588.01 263.229 1592.4 250.155 1597.81 239.419C1599.81 235.448 1601.82 231.345 1603.76 227.376C1611.36 211.852 1619.22 195.797 1629.96 180.403C1641.66 163.525 1655.73 148.794 1671.79 136.623C1689.91 122.889 1710.24 112.714 1732.21 106.381C1746.48 102.268 1761.18 99.4177 1777.16 97.6633C1798.69 95.3012 1822.58 95.3805 1848.17 97.8988C1870.57 100.105 1895.07 104.263 1920.99 110.262C1964.14 120.249 2005.86 135.828 2041.66 155.314C2081.65 177.026 2116.51 204.015 2145.27 235.534C2171.25 264.008 2191.52 295.245 2205.49 328.376L2204.24 328.565C2174.64 258.364 2116.6 197.039 2040.8 155.887C2005.12 136.464 1963.53 120.936 1920.53 110.981C1864.79 98.0793 1817.97 93.9694 1777.39 98.4227C1761.53 100.164 1746.93 102.995 1732.77 107.076C1680.49 122.144 1648.65 155.429 1631.15 180.7C1620.43 196.055 1612.58 212.087 1604.99 227.591C1603.05 231.56 1601.04 235.666 1599.04 239.641C1593.65 250.342 1589.26 263.398 1584.63 277.223C1579.06 293.797 1572.76 312.581 1563.61 330.192C1553.13 350.369 1540.4 366.144 1524.71 378.419C1515.64 385.516 1505.21 391.556 1493.71 396.373C1481.35 401.553 1467.3 405.511 1451.95 408.135C1434.38 411.14 1416.75 412.335 1399.43 412.335Z" fill="#FFE492"/>
<path d="M1422.33 416.233C1409.52 416.233 1396.1 415.485 1381.92 413.99C1354 411.047 1327.28 405.706 1303.7 400.998C1273.98 395.061 1242.94 387.675 1211.46 379.048C1186.27 372.105 1161.6 364.519 1138.12 356.497C1070.75 333.5 1012.71 302.921 949.214 268.241C943.572 265.159 937.841 262.015 932.301 258.973C910.482 247 887.923 234.62 864.938 222.922C810.626 195.339 751.859 177.867 690.267 170.99C612.575 162.314 528.427 169.799 440.172 193.239C394.884 205.267 350.407 220.43 311.55 237.092C282.293 249.637 258.209 264.428 232.711 280.089C230.121 281.68 227.519 283.276 224.903 284.879C218.392 288.872 211.379 293.158 204.245 297.448C189.285 306.476 171.053 316.763 149.27 324.584C124.886 333.341 99.8427 337.755 72.7142 338.074C23.052 338.662 -27.5005 328.782 -76.3895 319.229L-78.2509 318.865C-102.188 314.19 -127.51 309.466 -150.498 306.597C-220.569 297.856 -293.596 291.787 -356.123 289.508L-356.039 288.685C-293.446 290.965 -220.353 297.039 -150.22 305.789C-127.166 308.666 -101.8 313.397 -77.8258 318.079L-75.9645 318.443C-27.1817 327.974 23.2682 337.83 72.6886 337.247C129.763 336.573 169.181 317.439 203.274 296.861C210.408 292.572 217.414 288.286 223.925 284.295C226.541 282.695 229.142 281.097 231.733 279.507C257.275 263.821 281.402 249.003 310.755 236.416C349.685 219.721 394.247 204.529 439.618 192.479C481.026 181.484 521.773 173.906 560.722 169.962C605.225 165.455 648.896 165.526 690.523 170.173C752.35 177.076 811.334 194.61 865.829 222.288C888.831 233.997 911.402 246.382 933.232 258.361C938.772 261.401 944.503 264.545 950.145 267.627C1013.58 302.274 1071.56 332.82 1138.81 355.778C1162.25 363.786 1186.89 371.361 1212.04 378.295C1243.48 386.909 1274.46 394.284 1304.14 400.212C1350.66 409.506 1408.56 421.07 1465.65 412.209C1496.1 407.483 1519.84 397.795 1538.22 382.588C1572.85 353.937 1582.87 310.753 1590.92 276.053C1594.06 262.537 1597.02 249.772 1601.03 239.381C1602.3 236.106 1603.58 232.731 1604.81 229.466C1611.22 212.507 1617.86 194.969 1627.81 178.01C1643.17 151.618 1672.35 116.313 1724.14 97.9908C1738.45 92.9321 1753.2 89.2074 1769.25 86.6054C1811.24 79.6998 1861.23 81.9341 1917.84 93.2425C1962.61 102.187 2005.64 117.149 2042.3 136.514C2083.3 158.123 2118.43 185.371 2146.71 217.509C2159.69 232.249 2171.15 247.993 2180.8 264.303C2190.01 279.882 2197.61 296.059 2203.38 312.387L2202.04 312.558C2176.59 240.614 2119.53 178.314 2041.39 137.133C2004.87 117.84 1962 102.935 1917.4 94.0239C1861.06 82.7662 1811.33 80.5385 1769.61 87.4001C1753.68 89.9823 1739.03 93.6783 1724.84 98.6996C1673.41 116.894 1644.39 152.018 1629.1 178.281C1619.18 195.196 1612.56 212.71 1606.15 229.647C1604.91 232.911 1603.64 236.288 1602.37 239.566C1598.37 249.921 1595.41 262.669 1592.28 276.166C1588.23 293.627 1583.64 313.417 1575.79 332.095C1566.77 353.559 1554.84 370.234 1539.33 383.072C1530.48 390.396 1520.12 396.573 1508.56 401.429C1496.1 406.662 1481.78 410.558 1465.99 413.006C1452.14 415.159 1437.67 416.233 1422.33 416.233Z" fill="#FFE492"/>
<path d="M1443.44 420.35C1428.08 420.35 1411.89 419.155 1394.6 416.758C1366.58 412.877 1339.62 406.436 1315.83 400.752C1285.88 393.597 1254.87 385.014 1223.64 375.238C1198.62 367.368 1174.1 358.875 1150.79 349.993C1086.62 325.569 1031.59 294.09 973.323 260.766C970.44 259.117 967.556 257.466 964.665 255.815C937.57 240.335 909.555 224.327 880.349 209.534C825.092 181.601 764.544 165.196 700.387 160.776C619.8 155.222 532.857 167.904 441.967 198.465C396.504 213.751 350.868 233.02 313.466 252.72C285.224 267.594 262.573 284.331 238.592 302.052C235.752 304.15 232.905 306.254 230.036 308.363C224.305 312.583 217.487 317.587 210.349 322.705C197.129 332.208 179.117 344.285 156.964 353.37C132.969 363.212 107.87 368.229 80.2325 368.702C57.5155 369.043 32.4463 366.937 3.58844 362.259C-21.1877 358.244 -45.1541 352.996 -71.6743 347.052C-95.8824 341.56 -121.432 335.887 -144.354 332.14C-212.252 321.041 -283.971 311.322 -357.516 303.247L-357.252 302.382C-283.664 310.459 -211.904 320.187 -143.969 331.29C-120.985 335.048 -95.3988 340.73 -71.1613 346.226C-26.7094 356.192 28.6137 368.599 80.1922 367.822C139.161 366.809 177.058 345.267 209.224 322.137C216.358 317.023 223.173 312.022 228.9 307.804C231.769 305.695 234.616 303.591 237.452 301.495C261.473 283.746 284.165 266.98 312.499 252.057C349.978 232.318 395.701 213.012 441.252 197.697C532.417 167.043 619.661 154.328 700.555 159.902C731.571 162.04 762.037 167.004 791.101 174.655C822.285 182.864 852.63 194.375 881.294 208.862C910.533 223.671 938.567 239.688 965.677 255.179C968.568 256.832 971.455 258.481 974.338 260.129C1032.55 293.425 1087.53 324.873 1151.57 349.251C1174.86 358.12 1199.33 366.602 1224.32 374.459C1255.5 384.22 1286.47 392.792 1316.37 399.935C1363.37 411.162 1421.86 425.134 1479.69 417.031C1511.02 412.641 1534.91 402.894 1552.73 387.233C1587.05 357.321 1593.16 311.628 1598.07 274.914C1599.83 261.783 1601.49 249.38 1604.24 239.351C1604.81 237.282 1605.38 235.201 1605.95 233.11C1611.08 214.22 1616.4 194.686 1625.63 175.622C1638.82 148.202 1665.2 111.021 1716.06 89.6064C1730.25 83.6319 1745.05 79.0355 1761.32 75.5529C1783.93 70.6682 1809.13 68.3721 1836.21 68.7244C1860.93 69.0458 1887.33 71.5707 1914.67 76.2266C1961.05 84.1228 2005.4 98.469 2042.92 117.713C2084.93 139.216 2120.33 166.728 2148.14 199.482C2160.9 214.511 2171.94 230.579 2180.97 247.238C2189.62 263.194 2196.45 279.735 2201.26 296.401L2199.82 296.551C2178.84 223.926 2121.3 158.986 2041.97 118.382C2004.61 99.2219 1960.45 84.9351 1914.27 77.0697C1857.32 67.3705 1804.61 67.1328 1761.81 76.3785C1745.66 79.8346 1730.97 84.3958 1716.9 90.324C1666.39 111.591 1640.15 148.58 1627.04 175.864C1617.83 194.877 1612.52 214.383 1607.39 233.249C1606.82 235.34 1606.25 237.423 1605.69 239.492C1602.94 249.484 1601.29 261.871 1599.53 274.982C1594.6 311.802 1588.47 357.627 1553.93 387.731C1545.34 395.279 1535.07 401.597 1523.41 406.504C1510.86 411.783 1496.26 415.613 1480.02 417.889C1468.3 419.527 1456.16 420.35 1443.44 420.35Z" fill="#FFE492"/>
<path d="M1463.27 424.637C1445.77 424.637 1427.24 422.937 1407.27 419.525C1379.01 414.698 1351.88 407.158 1327.95 400.508C1297.71 392.103 1266.71 382.318 1235.81 371.43C1210.97 362.647 1186.62 353.245 1163.44 343.49C1106.36 319.478 1057.59 290.062 1005.94 258.917C997.499 253.825 988.768 248.562 980.106 243.386C949.658 225.203 923.658 210.21 895.749 196.145C839.507 167.843 777.182 152.506 710.5 150.56C626.711 148.114 536.961 165.989 443.748 203.687C397.442 222.416 351.847 245.376 315.365 268.341C287.881 285.641 266.395 304.474 243.649 324.411C240.831 326.881 238.002 329.36 235.155 331.841C230.084 336.268 223.372 342.101 216.443 347.95C187.285 372.623 149.19 398.025 87.7408 399.323C85.8245 399.361 83.9009 399.378 81.981 399.378C33.9969 399.378 -14.9911 387.969 -65.1075 375.23L-68.2366 374.428C-93.0604 368.062 -116.51 362.05 -138.216 357.674C-220.015 341.181 -299.125 327.26 -358.907 316.975L-358.479 316.075C-298.682 326.364 -219.55 340.288 -137.721 356.787C-115.957 361.174 -92.4815 367.195 -67.6248 373.568L-64.4993 374.369C-12.5471 387.575 38.1886 399.354 87.6859 398.39C148.454 397.104 186.23 371.899 215.172 347.411C222.097 341.566 228.802 335.737 233.873 331.313C236.72 328.829 239.545 326.353 242.363 323.883C265.145 303.915 286.664 285.051 314.236 267.696C350.792 244.683 396.479 221.677 442.876 202.91C485.939 185.493 529.017 172.12 570.912 163.158C618.98 152.876 665.971 148.323 710.573 149.624C777.599 151.579 840.24 166.991 896.746 195.426C924.695 209.512 950.721 224.521 981.198 242.719C989.864 247.895 998.595 253.16 1007.04 258.252C1058.63 289.366 1107.37 318.754 1164.33 342.718C1187.48 352.461 1211.79 361.848 1236.59 370.618C1267.45 381.492 1298.4 391.262 1328.6 399.654C1376.01 412.829 1435.01 429.224 1493.73 421.843C1525.82 417.808 1549.87 408.003 1567.23 391.87C1601.11 360.595 1603.15 312.33 1604.79 273.549C1605.32 260.896 1605.83 248.943 1607.45 239.312L1607.48 239.091C1611.11 217.525 1614.85 195.225 1623.45 173.223C1630.89 154.031 1641.25 136.777 1654.25 121.936C1668.91 105.203 1686.98 91.502 1707.96 81.2107C1722 74.3249 1736.86 68.8545 1753.37 64.4893C1797.99 52.6262 1852.66 50.7947 1911.49 59.1972C1935.16 62.5785 1958.51 67.701 1980.9 74.4196C2003.41 81.1777 2024.49 89.4174 2043.54 98.9052C2086.57 120.304 2122.24 148.077 2149.56 181.451C2174.12 211.449 2191.26 245.669 2199.14 280.409L2197.6 280.534C2180.74 206.181 2124.23 140.242 2042.54 99.625C2004.35 80.6009 1958.9 66.935 1911.13 60.113C1852.64 51.7589 1798.31 53.5706 1754.01 65.3522C1737.62 69.6845 1722.89 75.1108 1708.95 81.9416C1669.77 101.157 1640.73 132.797 1624.97 173.441C1616.4 195.386 1612.66 217.655 1609.04 239.191L1609 239.411C1607.39 249.006 1606.88 260.942 1606.35 273.578C1604.7 312.478 1602.66 360.888 1568.53 392.382C1560.16 400.162 1549.96 406.616 1538.23 411.565C1525.58 416.901 1510.72 420.668 1494.04 422.765C1484.11 424.011 1473.88 424.637 1463.27 424.637Z" fill="#FFE492"/>
<path d="M88.8798 430.027C67.4233 430.027 44.0578 427.515 17.6879 422.386C-8.51355 417.29 -34.4256 410.255 -58.5275 403.413C-62.8914 402.167 -67.2222 400.923 -71.5238 399.688C-92.9363 393.54 -113.162 387.733 -132.064 383.209C-207.437 365.178 -279.281 348.971 -348.762 333.302L-360.274 330.704L-359.696 329.778L-348.183 332.375C-278.699 348.049 -206.843 364.255 -131.456 382.291C-112.502 386.826 -92.2512 392.639 -70.813 398.797C-66.515 400.032 -62.1842 401.275 -57.824 402.519C-8.34872 416.564 44.2154 430.175 95.1966 428.962C157.866 427.394 195.422 398.064 221.136 372.689C227.724 366.199 234.07 359.731 238.863 354.822C241.508 352.117 244.135 349.414 246.755 346.717C268.483 324.362 289.005 303.247 315.994 283.338C351.62 257.063 397.262 230.351 444.521 208.129C488.365 187.511 532.608 171.221 576.026 159.712C625.828 146.511 674.471 139.66 720.605 139.35C790.024 138.729 854.499 153.078 912.215 181.992C944.209 198.04 972.895 215.4 996.74 230.266C1009.71 238.356 1022.69 246.648 1035.24 254.668C1079.66 283.058 1125.59 312.413 1177.1 336.19C1200.11 346.814 1224.27 357.107 1248.88 366.782C1279.35 378.729 1310.29 389.696 1340.85 399.378C1388.61 414.51 1448.05 433.342 1507.77 426.659C1540.64 422.981 1564.84 413.119 1581.74 396.509C1615.18 363.817 1612.92 312.909 1611.1 272.003C1610.57 259.907 1610.06 248.48 1610.67 239.28C1612.04 218.541 1614.11 194.439 1621.28 170.831C1627.33 150.828 1636.45 132.73 1648.4 117.044C1661.92 99.2986 1679.25 84.4218 1699.89 72.8251C1713.57 65.1402 1728.9 58.6176 1745.45 53.4356C1769.06 46.0171 1795.57 41.3524 1824.22 39.5737C1851.06 37.9073 1879.35 38.7835 1908.32 42.1757C1932.74 45.0375 1956.82 49.744 1979.88 56.1675C2003.08 62.6307 2024.71 70.6832 2044.17 80.1006C2066.6 90.9444 2087.22 103.75 2105.47 118.162C2122.75 131.817 2138.07 147.046 2151 163.424C2175.19 194.064 2191.11 228.991 2197.03 264.422L2195.39 264.521C2182.67 188.436 2127.18 121.499 2043.13 80.8733C2004.64 62.2454 1956.66 48.848 1908 43.1487C1847.84 36.1022 1791.9 39.9634 1746.21 54.314C1729.79 59.4541 1714.58 65.9261 1701.01 73.5494C1662.12 95.4 1635.83 128.189 1622.9 171.01C1615.75 194.553 1613.68 218.614 1612.31 239.32C1611.71 248.486 1612.21 259.896 1612.75 271.977C1613.64 292.157 1614.66 315.031 1611.26 337.143C1607.31 362.802 1598.12 382.39 1583.15 397.027C1575 405.035 1564.88 411.628 1553.07 416.621C1540.32 422.014 1525.18 425.719 1508.08 427.632C1499.45 428.598 1490.83 429.037 1482.26 429.037C1430.93 429.037 1381.2 413.279 1340.08 400.252C1309.48 390.555 1278.49 379.572 1247.99 367.608C1223.33 357.92 1199.14 347.611 1176.1 336.972C1124.48 313.146 1078.5 283.761 1034.04 255.343C1021.49 247.326 1008.52 239.036 995.557 230.95C971.744 216.102 943.099 198.767 911.163 182.75C853.759 153.989 789.661 139.724 720.631 140.336C612.223 141.067 511.199 178.025 445.539 208.904C398.376 231.082 352.825 257.736 317.277 283.959C290.368 303.808 269.875 324.891 248.181 347.21C245.561 349.907 242.93 352.61 240.285 355.318C235.488 360.229 229.139 366.701 222.547 373.197C211.753 383.849 194.807 399.356 172.361 410.979C161.46 416.623 149.86 421.059 137.882 424.165C124.527 427.628 110.186 429.574 95.2662 429.946C93.1521 430.001 91.0233 430.027 88.8798 430.027Z" fill="#FFE492"/>
<path d="M95.7689 460.675C74.2867 460.675 50.9689 457.97 24.7381 452.449C-2.41959 446.734 -29.2696 438.699 -51.9499 431.591C-58.9189 429.403 -65.8731 427.184 -72.6003 425.037C-91.4041 419.039 -109.167 413.37 -125.915 408.743C-186.06 392.123 -245.813 375.897 -303.602 360.203C-322.717 355.012 -342.481 349.646 -361.637 344.433L-360.919 343.48C-341.763 348.692 -321.999 354.059 -302.884 359.25C-245.095 374.943 -185.335 391.172 -125.186 407.794C-108.394 412.435 -90.609 418.107 -71.7832 424.115C-65.0598 426.261 -58.1054 428.478 -51.1438 430.666C-4.10507 445.402 50.4559 461.001 102.701 459.533C166.847 457.688 202.876 425.66 227.102 397.965C233.313 390.87 239.318 383.747 243.854 378.333C246.184 375.555 248.5 372.779 250.812 370.01C271.594 345.102 291.222 321.576 317.757 298.984C352.269 269.6 397.875 239.188 446.167 213.351C513.42 177.524 617.364 133.823 730.634 129.084C802.669 125.988 868.969 139.271 927.685 168.567C954.066 181.735 980.154 196.925 1012.28 217.822C1028.52 228.382 1044.63 239.327 1060.21 249.909C1100.74 277.441 1142.65 305.911 1189.88 329.675C1212.75 341.19 1236.74 352.388 1261.17 362.959C1290.76 375.747 1321.68 387.912 1353.09 399.116C1401.34 416.223 1461.38 437.517 1521.82 431.489C1554.95 428.254 1579.99 418.05 1596.25 401.166C1629.22 366.994 1622.15 311.089 1616.98 270.269C1615.53 258.813 1614.16 247.994 1613.89 239.265C1613.29 219.867 1613.34 194.29 1619.12 168.457C1629.09 123.692 1653.55 88.6998 1691.81 64.4563C1705.22 55.9151 1720.61 48.4944 1737.52 42.3988C1761.59 33.7167 1788.74 27.8765 1818.23 25.0434C1846.02 22.3753 1875.26 22.4172 1905.14 25.1689C1930.36 27.5419 1955.16 31.8434 1978.85 37.9499C2002.78 44.1181 2024.96 51.9769 2044.8 61.3084C2067.73 72.0906 2088.68 84.9399 2107.06 99.5018C2124.49 113.302 2139.75 128.747 2152.44 145.411C2176.26 176.697 2190.95 212.328 2194.92 248.452L2193.18 248.52C2184.62 170.698 2130.15 102.762 2043.73 62.1339C2004.55 43.702 1955.23 30.9408 1904.88 26.2035C1842.81 20.491 1785.25 26.4016 1738.42 43.297C1721.64 49.3419 1706.39 56.7032 1693.08 65.1762C1655.07 89.2589 1630.77 124.053 1620.85 168.598C1615.09 194.36 1615.04 219.887 1615.63 239.248C1615.91 247.945 1617.27 258.752 1618.72 270.192C1621.39 291.292 1624.42 315.21 1622.69 338.56C1620.67 365.748 1612.52 386.399 1597.76 401.692C1589.82 409.94 1579.78 416.677 1567.91 421.713C1555.05 427.175 1539.64 430.811 1522.11 432.524C1494.92 435.234 1465.66 432.799 1432.65 425.079C1403.96 418.367 1376.47 408.62 1352.21 400.021C1320.76 388.801 1289.79 376.619 1260.16 363.813C1235.69 353.227 1211.67 342.013 1188.76 330.483C1141.44 306.671 1099.48 278.17 1058.9 250.609C1043.33 240.029 1027.23 229.091 1011.01 218.54C978.934 197.68 952.894 182.519 926.575 169.381C868.207 140.253 802.328 127.049 730.751 130.125C617.969 134.847 514.369 178.414 447.317 214.133C399.121 239.917 353.61 270.265 319.172 299.587C292.71 322.115 273.111 345.608 252.362 370.479C250.05 373.251 247.734 376.026 245.404 378.805C240.864 384.222 234.855 391.352 228.637 398.454C204.198 426.396 167.807 458.709 102.778 460.578C100.466 460.642 98.1248 460.675 95.7689 460.675Z" fill="#FFE492"/>
<path d="M102.796 491.324C44.0986 491.324 -17.49 469.665 -72.0876 450.462C-88.8651 444.563 -104.712 438.989 -119.771 434.276L-363 358.16L-362.154 357.185L-118.925 433.301C-103.825 438.025 -87.9601 443.605 -71.1606 449.514C-14.4525 469.458 49.8254 492.064 110.205 490.104C175.765 487.98 210.302 453.256 233.067 423.245C240.512 413.429 247.701 403.442 254.655 393.782C273.675 367.366 293.34 340.049 319.512 314.626C340.294 294.44 366.111 273.269 394.17 253.406C424.952 231.615 457.91 211.623 492.121 193.985C529.842 174.541 568.197 158.456 606.116 146.179C648.058 132.601 689.377 123.736 728.934 119.829C808.176 112.003 880.247 123.879 943.14 155.132C995.407 181.101 1039.83 213.214 1082.79 244.271C1120.19 271.303 1158.85 299.254 1202.64 323.147C1253.21 350.744 1307.95 376.211 1365.33 398.839C1413.68 417.904 1473.85 441.635 1535.86 436.301C1588.24 431.797 1618.52 410.744 1628.43 371.934C1636.87 338.922 1628.84 299.763 1622.4 268.299C1620.2 257.576 1618.13 247.447 1617.11 239.234C1611.49 193.957 1615.07 156.58 1628.06 124.971C1636.16 105.249 1648.12 87.6691 1663.6 72.7198C1680.89 56.0203 1703.09 42.099 1729.59 31.3432C1752.5 22.0381 1778.33 15.28 1806.36 11.2559C1833.04 7.42554 1861.12 6.14216 1889.84 7.44096C1946.32 9.99452 2001.57 22.4454 2045.41 42.4974C2068.84 53.2158 2090.12 66.1113 2108.65 80.8229C2126.21 94.7663 2141.42 110.429 2153.86 127.379C2177.3 159.31 2190.76 195.647 2192.79 232.461L2190.96 232.498C2186.64 154.104 2131.81 83.4029 2044.3 43.3758C1951.36 0.867724 1819.43 -3.81014 1730.6 32.2568C1642.61 67.9847 1606.08 135.661 1618.93 239.153C1619.94 247.34 1622.02 257.455 1624.21 268.164C1630.67 299.696 1638.71 338.94 1630.24 372.101C1625.62 390.163 1616.35 404.679 1602.67 415.247C1594.97 421.189 1585.7 426.045 1575.1 429.677C1563.82 433.543 1550.7 436.138 1536.12 437.393C1530.16 437.906 1524.09 438.164 1517.93 438.164C1495.45 438.164 1471.52 434.749 1445.29 427.833C1415.74 420.04 1387.23 408.795 1364.32 399.761C1306.86 377.1 1252.05 351.6 1201.4 323.964C1157.51 300.02 1118.81 272.036 1081.37 244.975C1038.47 213.958 994.099 181.885 941.964 155.981C879.492 124.942 807.915 113.143 729.22 120.916C570.032 136.638 406.053 232.652 321.058 315.207C294.956 340.56 275.317 367.839 256.322 394.22C249.364 403.884 242.172 413.878 234.719 423.703C219.605 443.627 204.678 457.894 187.743 468.597C177.172 475.276 165.704 480.542 153.657 484.247C140.261 488.365 125.671 490.708 110.289 491.207C107.805 491.284 105.302 491.324 102.796 491.324Z" fill="#FFE492"/>
</g>
</svg>
