<svg width="304" height="43" viewBox="0 0 304 43" fill="none" xmlns="http://www.w3.org/2000/svg">
<path d="M286.02 23.1896C285.604 23.2247 285.182 23.2489 284.774 23.3016C284.509 23.3345 284.395 23.2379 284.218 23.1874C284.159 23.1698 284.096 23.1346 284.041 23.139C283.628 23.1742 283.216 23.2137 282.803 23.2533C282.676 23.3389 282.596 23.4531 282.403 23.4949C282.213 23.5344 281.99 23.5344 281.779 23.5542C281.501 23.5784 281.223 23.6025 280.946 23.6245C280.807 23.6355 280.693 23.6772 280.647 23.7563C280.638 23.7695 280.731 23.8024 280.781 23.8222C280.95 23.8881 281.114 23.9628 281.299 24.0133C281.476 24.0616 281.695 23.9825 281.885 24.044C282.31 24.1824 282.314 24.1802 282.639 24.1539C282.917 24.1297 283.195 24.1034 283.473 24.0858C283.527 24.0814 283.59 24.1143 283.649 24.1319C283.826 24.1802 283.94 24.2901 284.201 24.2483C284.399 24.2154 284.618 24.2088 284.824 24.1912C284.997 24.2549 285.157 24.3274 285.342 24.3779C285.515 24.4263 285.566 24.4636 285.473 24.5273C285.389 24.5866 285.271 24.6108 285.115 24.6152C284.976 24.6174 284.837 24.6371 284.698 24.6481C284.626 24.6547 284.559 24.6591 284.492 24.6657C284.226 24.6899 284.226 24.6899 283.742 24.5493C283.552 24.4944 283.338 24.5712 283.157 24.5185C283.034 24.4834 282.929 24.4307 282.811 24.3933C282.761 24.378 282.681 24.3757 282.618 24.3801C282.407 24.3955 282.196 24.4065 281.994 24.4351C281.851 24.4548 281.767 24.5163 281.784 24.5778C281.788 24.602 281.889 24.6372 281.948 24.6394C282.083 24.6437 282.226 24.613 282.356 24.6284C282.483 24.6437 282.613 24.6877 282.706 24.736C282.895 24.837 283.11 24.747 283.291 24.7733C283.481 24.8019 283.637 24.8898 283.818 24.9425C283.864 24.9557 283.953 24.9337 284.024 24.9271C284.231 24.9117 284.437 24.8986 284.643 24.8832C284.816 24.9469 285.001 25.004 285.157 25.0765C285.439 25.2083 285.743 25.2588 286.109 25.1951C286.315 25.1599 286.517 25.1731 286.682 25.2588C286.85 25.3467 287.044 25.3379 287.259 25.3203C287.457 25.3027 287.659 25.2544 287.861 25.3159C288.299 25.4521 288.303 25.4587 288.821 25.406C288.977 25.3906 289.095 25.3862 289.213 25.4367C289.322 25.4829 289.44 25.5224 289.554 25.5663C289.76 25.551 289.971 25.5356 290.177 25.518C290.443 25.4938 290.59 25.5246 290.653 25.6476C290.691 25.7223 290.708 25.7904 290.801 25.8409C290.91 25.9024 291.028 25.9002 291.188 25.8826C291.34 25.8673 291.449 25.8431 291.512 25.764C291.538 25.7311 291.588 25.7003 291.635 25.674C291.673 25.6542 291.732 25.6234 291.765 25.6278C291.828 25.6366 291.913 25.6608 291.934 25.6893C292.14 25.9551 292.14 25.9573 292.351 26.0342C292.582 26.1199 292.822 26.1968 293.033 26.2934C293.222 26.3791 293.412 26.3417 293.618 26.3417C293.774 26.3417 293.875 26.3989 293.863 26.456C293.854 26.4889 293.795 26.5372 293.745 26.5416C293.332 26.5856 292.915 26.6229 292.498 26.6537C292.447 26.658 292.384 26.6185 292.325 26.5987C292.207 26.5592 292.102 26.4977 291.976 26.4845C291.849 26.4713 291.702 26.5043 291.563 26.5153C291.424 26.5262 291.277 26.5548 291.15 26.5373C291.024 26.5197 290.923 26.456 290.805 26.4142C290.75 26.3945 290.674 26.3659 290.628 26.3725C290.321 26.4252 290.093 26.3527 289.874 26.2561C289.828 26.2363 289.748 26.2231 289.689 26.2275C289.2 26.2649 288.716 26.3088 288.227 26.3505C288.03 26.3681 287.869 26.2912 287.827 26.1616C287.806 26.0891 287.764 26.0166 287.764 25.9441C287.764 25.8123 287.533 25.7399 287.364 25.7552C287.086 25.7772 286.804 25.7948 286.53 25.8277C286.307 25.8541 286.117 25.8277 285.966 25.7486C285.789 25.6586 285.587 25.6762 285.385 25.7003C285.233 25.7179 285.191 25.7904 285.199 25.9727C285.208 26.1199 285.136 26.166 284.862 26.1902C284.517 26.2209 284.167 26.2517 283.818 26.2758C283.763 26.2802 283.7 26.2429 283.645 26.2231C283.527 26.1836 283.422 26.1199 283.296 26.1067C283.169 26.0913 283.022 26.1243 282.883 26.1374C282.744 26.1484 282.596 26.1792 282.47 26.1638C282.344 26.1484 282.238 26.0825 282.125 26.0408C282.07 26.021 282.003 25.9925 281.948 25.9969C281.67 26.0144 281.392 26.0408 281.114 26.065C280.802 26.0913 280.802 26.0913 280.36 25.9551C280.158 25.8936 279.956 25.942 279.758 25.9595C279.547 25.9771 279.349 25.9859 279.185 25.898C279.075 25.8409 278.953 25.8058 278.823 25.8167C278.473 25.8431 278.128 25.8761 277.778 25.9024C277.719 25.9068 277.639 25.8958 277.593 25.8761C277.37 25.7838 277.151 25.7113 276.839 25.7574C276.57 25.797 276.279 25.7992 276.009 25.8365C275.862 25.8563 275.795 25.9266 275.824 25.9815C275.841 26.0101 275.929 26.043 275.988 26.043C276.123 26.0452 276.271 26.0122 276.397 26.0254C276.658 26.0518 276.789 26.2363 277.13 26.1858C277.332 26.155 277.542 26.144 277.753 26.1353C277.808 26.1331 277.867 26.1748 277.926 26.1968C278.094 26.2561 278.242 26.3329 278.486 26.2934C278.688 26.2626 278.903 26.2539 279.109 26.2363C279.438 26.2078 279.438 26.21 279.863 26.3439C280.065 26.4076 280.267 26.3571 280.465 26.3417C280.613 26.3308 280.752 26.3088 280.87 26.3396C281.051 26.3857 281.181 26.4911 281.405 26.4845C281.615 26.4779 281.821 26.4472 282.032 26.4362C282.163 26.4296 282.285 26.4648 282.39 26.5241C282.5 26.5834 282.617 26.6097 282.761 26.5965C282.967 26.579 283.178 26.557 283.388 26.546C283.447 26.5438 283.515 26.5636 283.569 26.5812C283.687 26.6207 283.801 26.6668 283.915 26.7086C284.121 26.6954 284.332 26.691 284.534 26.6646C284.69 26.6449 284.799 26.6537 284.926 26.6976C285.086 26.7569 285.216 26.8624 285.477 26.8118C285.608 26.7877 285.759 26.7942 285.89 26.7723C286.05 26.7437 286.159 26.7547 286.273 26.8206C286.488 26.9458 286.758 26.948 287.036 26.8997C287.339 26.847 287.566 26.9085 287.794 27.0051C288.034 27.1062 288.034 27.104 288.219 27.3478C288.274 27.4181 288.43 27.451 288.56 27.4379C288.779 27.4159 288.969 27.4269 289.129 27.5103C289.297 27.6004 289.499 27.5894 289.706 27.5653C289.979 27.5323 290.253 27.5038 290.476 27.6312C290.586 27.6927 290.704 27.708 290.851 27.6927C291.268 27.6531 291.689 27.629 292.098 27.5807C292.346 27.5499 292.49 27.6202 292.658 27.6795C292.885 27.7608 293.134 27.8333 293.134 28.0068C293.134 28.0353 293.193 28.0683 293.243 28.0903C293.353 28.1364 293.471 28.1759 293.585 28.2199C293.753 28.2858 293.917 28.3407 294.149 28.3055C294.351 28.277 294.566 28.2682 294.772 28.2484C294.979 28.2286 295.168 28.2177 295.354 28.3011C295.568 28.3956 295.796 28.4857 296.04 28.556C296.213 28.6065 296.44 28.5208 296.625 28.5889C296.739 28.6306 296.849 28.679 296.971 28.7141C297.021 28.7295 297.101 28.7185 297.169 28.7141C297.308 28.7053 297.451 28.6987 297.586 28.6768C297.742 28.6526 297.859 28.657 297.977 28.7075C298.087 28.7537 298.196 28.8174 298.323 28.8305C298.512 28.8503 298.723 28.7624 298.912 28.8635C299.009 28.914 299.131 28.9623 299.258 28.9777C299.384 28.9931 299.531 28.9601 299.666 28.9623C299.725 28.9623 299.797 28.9975 299.83 29.026C299.851 29.0414 299.822 29.0831 299.793 29.1051C299.755 29.1315 299.7 29.1666 299.645 29.171C299.228 29.2106 298.811 29.2435 298.394 29.2809C298.146 29.3028 298.146 29.3028 297.645 29.1644C297.527 29.1315 297.396 29.1381 297.249 29.1534C297.051 29.1732 296.849 29.2106 296.642 29.171C296.373 29.0216 296.04 29.0084 295.686 29.0656C295.539 29.0897 295.404 29.0897 295.294 29.048C295.063 28.9645 294.819 28.8877 294.612 28.7888C294.452 28.7119 294.376 28.7053 294.309 28.8108C294.288 28.8437 294.267 28.8789 294.271 28.9096C294.296 29.0194 294.343 29.1271 294.368 29.2369C294.376 29.2677 294.343 29.3028 294.322 29.3358C294.254 29.428 294.166 29.4214 294.018 29.3445C293.871 29.2677 293.694 29.2171 293.458 29.2523C293.256 29.283 293.037 29.2787 292.835 29.3116C292.523 29.3599 292.304 29.2896 292.081 29.1952C292.035 29.1754 291.955 29.1644 291.896 29.1688C291.268 29.2193 290.645 29.2765 290.017 29.327C289.883 29.338 289.76 29.305 289.655 29.2457C289.546 29.1864 289.423 29.1556 289.289 29.1666C288.733 29.2128 288.177 29.2545 287.621 29.3116C287.393 29.3358 287.212 29.3072 287.057 29.2303C286.939 29.1732 286.829 29.1556 286.682 29.1622C286.522 29.1688 286.408 29.1908 286.328 29.2545C286.252 29.316 286.307 29.3533 286.475 29.4017C286.656 29.4544 286.825 29.5225 286.998 29.584C287.137 29.5752 287.276 29.5576 287.41 29.5598C287.469 29.5598 287.524 29.5993 287.583 29.6213C287.752 29.685 287.907 29.7487 288.147 29.7136C288.35 29.6828 288.564 29.6762 288.771 29.6565C289.057 29.6323 289.057 29.6323 289.52 29.7707C289.638 29.8058 289.765 29.8036 289.916 29.7839C290.047 29.7685 290.182 29.7992 290.274 29.8651C290.312 29.8915 290.3 29.9355 290.22 30.0804C290.22 30.1881 290.308 30.1397 290.337 30.0694C290.384 29.9684 290.295 29.9354 290.127 29.9904C290.009 30.0299 289.95 30.087 289.979 30.1332C289.996 30.1573 290.076 30.1881 290.22 30.0804C290.59 29.9486 290.872 29.9332 291.142 29.8981C291.302 29.8783 291.403 29.8871 291.529 29.9442C291.681 30.0123 291.833 30.0848 292.081 30.0497C292.351 30.0101 292.637 30.0057 292.911 29.9728C293.163 29.942 293.294 30.0387 293.454 30.0958C293.648 30.1639 293.863 30.087 294.039 30.1266C294.225 30.1661 294.355 30.2627 294.57 30.2803C294.882 30.221 295.08 30.3308 295.316 30.4033C295.501 30.4582 295.72 30.4099 295.918 30.3857C296.141 30.3594 296.326 30.3836 296.482 30.4626C296.659 30.5527 296.857 30.5329 297.059 30.5132C297.531 30.4692 297.548 30.4626 297.821 30.5834C298.019 30.6713 298.209 30.6318 298.407 30.6208C298.58 30.6801 298.748 30.7438 298.929 30.7965C298.976 30.8097 299.064 30.7877 299.136 30.7811C299.342 30.7636 299.552 30.746 299.759 30.7284C299.898 30.7174 300.045 30.6845 300.172 30.6977C300.298 30.7131 300.403 30.7768 300.517 30.8185C300.631 30.8602 300.749 30.902 300.858 30.9459C301.027 31.0118 301.187 31.0667 301.422 31.0338C301.625 31.0052 301.835 30.9964 302.046 30.9767C302.311 30.9525 302.303 30.9591 302.795 31.0909C303.061 31.1634 303.335 31.0755 303.604 31.0667C303.739 31.0623 303.869 31.0865 303.962 31.1502C304 31.1766 303.987 31.2205 304 31.2578C303.305 31.3171 302.606 31.3676 301.919 31.4401C301.654 31.4687 301.515 31.3896 301.372 31.3237C301.136 31.2183 300.824 31.372 300.601 31.2358C300.466 31.1546 300.273 31.1085 300.041 31.148C299.906 31.17 299.763 31.1678 299.624 31.1875C299.27 31.2358 298.946 31.2381 298.664 31.0865C298.567 31.0338 298.428 31.0052 298.327 30.9547C298.209 30.8998 298.095 30.869 297.956 30.88C297.329 30.9327 296.705 30.9854 296.082 31.0425C296.027 31.0469 295.973 31.0799 295.926 31.104C295.808 31.1656 295.846 31.2139 296.036 31.2534C296.099 31.2666 296.15 31.2951 296.208 31.3171C296.322 31.3589 296.427 31.4248 296.554 31.4401C296.68 31.4555 296.828 31.4248 296.967 31.4138C297.106 31.4028 297.253 31.3698 297.379 31.383C297.506 31.3984 297.611 31.4621 297.729 31.5017C297.784 31.5214 297.851 31.5544 297.906 31.5522C298.184 31.539 298.457 31.5148 298.735 31.4951C298.908 31.5544 299.056 31.64 299.262 31.6598C299.392 31.673 299.531 31.6488 299.666 31.6532C299.725 31.6554 299.801 31.6884 299.83 31.7169C299.847 31.7345 299.793 31.7784 299.75 31.8004C299.59 31.8839 299.371 31.8685 299.173 31.8948C298.959 31.9234 298.765 31.9146 298.601 31.8289C298.491 31.7718 298.369 31.7411 298.234 31.7521C297.885 31.7806 297.539 31.8136 297.19 31.8377C297.131 31.8421 297.059 31.8224 297.004 31.807C296.562 31.673 296.562 31.6686 296.251 31.6972C295.791 31.7389 295.792 31.7389 295.484 31.6224C295.425 31.6005 295.362 31.5588 295.311 31.561C294.823 31.5961 294.338 31.6312 293.854 31.6818C293.694 31.6971 293.585 31.6972 293.467 31.64C293.366 31.5917 293.248 31.5368 293.121 31.5236C292.991 31.5104 292.848 31.5434 292.709 31.5544C292.57 31.5654 292.422 31.5939 292.3 31.5763C292.174 31.5588 292.064 31.4973 291.955 31.4533C291.841 31.4072 291.719 31.4094 291.563 31.4269C291.083 31.4775 291.079 31.4709 290.603 31.3347C290.548 31.3193 290.476 31.3018 290.417 31.3061C290.068 31.3325 289.723 31.3655 289.373 31.3918C289.238 31.4028 289.108 31.3742 289.015 31.3105C288.977 31.2842 288.99 31.2402 288.965 31.1546C288.935 31.1348 288.969 31.17 288.977 31.2029C289.04 31.1985 289.116 31.2029 289.162 31.1853C289.28 31.1436 289.339 31.0887 289.31 31.0425C289.293 31.0184 289.213 30.9876 289.162 30.9876C289.07 30.9876 288.99 31.0359 288.965 31.1546C288.699 31.2271 288.417 31.2424 288.143 31.2776C287.983 31.2996 287.882 31.2886 287.756 31.2315C287.604 31.1612 287.448 31.0931 287.2 31.1282C286.93 31.1677 286.644 31.1744 286.366 31.2051C286.046 31.2403 285.907 31.0425 285.637 31.0469C285.359 31.0513 285.081 31.0887 284.803 31.115C284.559 31.137 284.559 31.137 284.054 30.9942C283.868 30.9415 283.649 31.0184 283.468 30.9635C283.346 30.9283 283.241 30.8756 283.123 30.8383C283.072 30.8229 282.992 30.8229 282.929 30.8273C282.58 30.8536 282.226 30.8712 281.889 30.9195C281.506 30.9766 281.215 30.9151 280.941 30.7855C280.596 30.8097 280.246 30.8229 279.905 30.8646C279.657 30.8954 279.514 30.8229 279.345 30.7636C279.286 30.7438 279.236 30.7109 279.172 30.7021C279.109 30.6933 279.033 30.7108 278.966 30.7174C278.688 30.7416 278.402 30.7526 278.132 30.7921C277.799 30.8427 277.673 30.6625 277.416 30.6406C277.243 30.7482 277.151 30.8954 276.81 30.9063C276.532 30.9151 276.254 30.9503 275.976 30.9745C275.837 30.9854 275.698 30.9986 275.559 31.0096C275.336 31.0294 275.23 31.115 275.277 31.2468C275.302 31.3193 275.323 31.3918 275.344 31.4643C275.386 31.5939 275.281 31.7037 275.104 31.7191C274.615 31.7609 274.131 31.8048 273.643 31.8421C273.512 31.8531 273.386 31.8158 273.28 31.7564C273.171 31.6971 273.049 31.6708 272.914 31.6818C272.425 31.7235 271.941 31.7674 271.452 31.8048C271.398 31.8092 271.326 31.7872 271.271 31.7696C271.153 31.7301 271.04 31.684 270.926 31.6422C270.648 31.662 270.374 31.6752 270.101 31.7015C269.658 31.7411 269.658 31.7433 269.334 31.6224C269.275 31.6005 269.216 31.5588 269.161 31.561C268.951 31.5698 268.744 31.5917 268.534 31.6115C267.915 31.6686 267.915 31.6686 267.734 31.6027C267.569 31.5412 267.422 31.4665 267.173 31.5017C266.904 31.5412 266.617 31.5544 266.34 31.5763C266.133 31.5917 265.927 31.6093 265.72 31.6137C265.666 31.6159 265.607 31.5741 265.548 31.5522C265.379 31.4841 265.215 31.4292 264.983 31.4665C264.849 31.4885 264.705 31.4929 264.566 31.5039C264.204 31.5346 264.204 31.5346 263.61 31.4028C263.551 31.3896 263.48 31.3742 263.421 31.3808C262.932 31.4204 262.448 31.4643 261.959 31.5017C261.9 31.506 261.829 31.4928 261.77 31.4819C261.104 31.3545 261.104 31.3545 260.397 31.416C260.127 31.4379 260.119 31.4467 259.837 31.3303C259.71 31.2798 259.605 31.2556 259.458 31.271C258.902 31.3237 258.342 31.3589 257.79 31.4204C257.541 31.4467 257.398 31.3808 257.23 31.3215C257.171 31.3017 257.108 31.2578 257.057 31.26C256.501 31.3018 255.945 31.3523 255.389 31.394C255.339 31.3984 255.276 31.3545 255.217 31.3347C255.103 31.2952 254.993 31.2359 254.867 31.2227C254.736 31.2095 254.593 31.2424 254.45 31.2534C254.1 31.282 254.1 31.2798 253.696 31.1502C253.641 31.1326 253.57 31.1084 253.515 31.1128C252.959 31.1568 252.399 31.1941 251.847 31.2578C251.531 31.293 251.317 31.2293 251.093 31.137C251.047 31.1172 250.967 31.1084 250.908 31.1128C250.281 31.1634 249.657 31.2205 249.03 31.271C248.899 31.282 248.773 31.2446 248.667 31.1875C248.499 31.0975 248.301 31.1084 248.091 31.1282C247.606 31.1743 247.602 31.1722 247.316 31.0667C247.257 31.0448 247.206 31.0162 247.143 31.0052C247.084 30.9942 247.008 31.0008 246.945 31.0052C246.667 31.0272 246.389 31.0513 246.111 31.0755C245.833 31.0997 245.551 31.1129 245.277 31.1502C244.94 31.1963 244.78 31.0535 244.544 30.9876C244.199 31.0162 243.845 31.0338 243.504 31.0799C243.243 31.115 243.121 31.0184 242.948 30.9679C242.889 30.9503 242.826 30.9129 242.771 30.9173C242.144 30.9657 241.516 31.0184 240.893 31.0777C240.741 31.0909 240.64 31.0733 240.514 31.0206C240.232 30.902 240.219 30.9064 239.747 30.9503C239.541 30.9701 239.343 30.9876 239.166 30.8976C239.01 30.8163 238.821 30.7965 238.598 30.8229C238.324 30.8558 238.042 30.8734 237.764 30.8954C237.486 30.9195 237.208 30.9525 236.93 30.9635C236.707 30.9744 236.572 30.8712 236.395 30.8185C236.34 30.8031 236.264 30.8009 236.201 30.8053C235.923 30.8251 235.637 30.8404 235.367 30.8778C235.039 30.9239 234.858 30.8031 234.626 30.7328C234.575 30.7175 234.491 30.7262 234.428 30.7328C233.939 30.7724 233.455 30.8163 232.967 30.858C232.794 30.7987 232.617 30.7416 232.444 30.6823C232.166 30.7043 231.888 30.7284 231.61 30.7504C231.4 30.768 231.185 30.7746 230.987 30.8075C230.73 30.8514 230.604 30.7482 230.431 30.6977C230.372 30.6801 230.309 30.6428 230.254 30.6472C229.905 30.6713 229.555 30.6977 229.21 30.735C228.881 30.7724 228.751 30.5747 228.481 30.5768C228.203 30.579 227.917 30.6076 227.647 30.6472C227.336 30.6933 227.117 30.623 226.893 30.5285C226.847 30.5088 226.767 30.4978 226.708 30.5022C226.359 30.5285 226.013 30.5615 225.664 30.5878C225.605 30.5922 225.533 30.5813 225.474 30.5681C224.809 30.4385 224.809 30.4363 224.518 30.4626C224.312 30.4802 224.101 30.5022 223.891 30.5132C223.832 30.5176 223.76 30.4978 223.705 30.4802C223.267 30.3462 223.267 30.344 222.951 30.3704C222.673 30.3945 222.395 30.4187 222.117 30.4429C221.945 30.3835 221.768 30.3265 221.595 30.2671C221.25 30.2957 220.896 30.3176 220.555 30.3572C220.395 30.3748 220.29 30.3682 220.167 30.3133C220.016 30.2474 219.864 30.1705 219.611 30.2078C219.342 30.2474 219.056 30.2518 218.782 30.2847C218.453 30.3242 218.318 30.1244 218.053 30.1266C217.775 30.1287 217.489 30.1573 217.219 30.1968C216.908 30.243 216.689 30.1727 216.465 30.0782C216.419 30.0585 216.339 30.0475 216.28 30.0519C215.514 30.1156 214.751 30.1793 213.985 30.2474C213.513 30.2891 213.513 30.2913 212.616 30.1705C212.553 30.1617 212.485 30.1529 212.422 30.1573C212.144 30.1771 211.858 30.1924 211.588 30.2298C211.26 30.2759 211.079 30.1573 210.847 30.0848C210.796 30.0694 210.716 30.0782 210.649 30.0826C210.438 30.098 210.232 30.1178 210.022 30.1353C209.744 30.1595 209.466 30.1837 209.188 30.2078C209.015 30.1507 208.838 30.0914 208.665 30.0343C208.32 30.0628 207.966 30.0782 207.625 30.1244C207.364 30.1595 207.242 30.0672 207.069 30.0145C207.01 29.997 206.947 29.9596 206.892 29.9618C206.265 30.0101 205.637 30.0606 205.014 30.1222C204.757 30.1485 204.639 30.0497 204.466 29.9991C204.407 29.9838 204.34 29.9552 204.285 29.9596C203.868 29.9904 203.451 30.0277 203.035 30.065C202.799 30.087 202.799 30.087 202.285 29.9508C202.226 29.9354 202.158 29.9201 202.1 29.9245C200.777 30.0343 199.459 30.1507 198.136 30.2605C198.002 30.2715 197.879 30.2386 197.774 30.1793C197.665 30.12 197.542 30.0892 197.408 30.1002C196.852 30.1463 196.292 30.1881 195.74 30.2452C195.512 30.2693 195.331 30.2408 195.176 30.1639C195.058 30.1068 194.948 30.0848 194.801 30.098C194.523 30.1244 194.245 30.1463 193.967 30.1705C193.689 30.1946 193.411 30.2188 193.133 30.243C192.855 30.2671 192.573 30.2803 192.299 30.3177C191.962 30.3638 191.798 30.2276 191.566 30.1595C191.149 30.1925 190.732 30.2254 190.32 30.2605C189.764 30.3067 189.208 30.3572 188.652 30.4011C188.601 30.4055 188.538 30.366 188.479 30.3462C188.306 30.2913 188.18 30.2144 187.923 30.2386C186.676 30.355 185.421 30.4539 184.171 30.5681C183.909 30.5922 183.796 30.4978 183.619 30.4473C183.56 30.4319 183.493 30.4011 183.438 30.4055C182.743 30.4604 182.048 30.5219 181.353 30.5812C181.071 30.6054 181.071 30.6054 180.599 30.4692C180.544 30.4538 180.473 30.4341 180.414 30.4385C179.508 30.5131 178.607 30.5922 177.701 30.6691C177.567 30.6801 177.445 30.6493 177.335 30.59C177.23 30.5307 177.103 30.4978 176.973 30.5088C176.139 30.5791 175.301 30.6472 174.471 30.724C174.248 30.746 174.063 30.7262 173.903 30.6472C173.789 30.59 173.675 30.5659 173.532 30.579C172.281 30.6867 171.03 30.7899 169.779 30.9042C169.539 30.9261 169.371 30.8844 169.219 30.8119C169.097 30.7548 168.992 30.7438 168.84 30.7526C168.68 30.7636 168.583 30.7877 168.495 30.8536C168.381 30.9393 168.31 31.0469 168.04 31.0535C167.762 31.0601 167.48 31.0865 167.206 31.1238C166.945 31.1612 166.823 31.0623 166.659 31.003C166.536 30.9613 166.423 30.9547 166.267 30.9745C166.124 30.992 166.035 31.0294 165.951 31.0996C165.766 31.249 165.749 31.249 165.521 31.1546C165.399 31.104 165.29 31.0645 165.155 31.0733C164.599 31.1172 164.043 31.1656 163.487 31.2161C163.167 31.2446 163.163 31.249 162.923 31.1392C162.805 31.0843 162.691 31.0579 162.552 31.0711C161.023 31.2029 159.495 31.3303 157.966 31.4687C157.73 31.4907 157.57 31.4445 157.401 31.3786C157.347 31.3567 157.292 31.3259 157.229 31.3171C157.166 31.3083 157.094 31.3171 157.027 31.3215C155.915 31.416 154.799 31.506 153.691 31.6115C153.438 31.6356 153.304 31.5654 153.131 31.5082C153.072 31.4885 153.021 31.4577 152.958 31.4489C152.895 31.4423 152.819 31.4577 152.752 31.4643C151.64 31.5588 150.524 31.6488 149.416 31.7543C149.151 31.7784 149.037 31.6862 148.864 31.6378C148.805 31.6203 148.742 31.5873 148.688 31.5917C148.338 31.6159 147.993 31.6488 147.643 31.6774C146.809 31.7499 145.975 31.818 145.141 31.8927C144.821 31.9212 144.682 31.7257 144.413 31.7345C144.063 31.7455 143.718 31.7894 143.368 31.8202C143.09 31.8443 142.812 31.8663 142.534 31.8927C142.261 31.9168 142.261 31.9168 141.578 31.7894C141.519 31.7784 141.448 31.763 141.389 31.7674C140.416 31.8487 139.439 31.93 138.47 32.0179C138.247 32.0376 138.062 32.0267 137.902 31.9454C137.788 31.8883 137.67 31.8597 137.531 31.8729C136.07 31.9981 134.612 32.1233 133.151 32.2463C133.096 32.2507 133.024 32.2287 132.97 32.2112C132.852 32.1716 132.738 32.1255 132.624 32.0838C132.54 32.1343 132.431 32.1804 132.376 32.2375C132.3 32.3144 132.199 32.3364 132.039 32.3496C131.879 32.3627 131.778 32.3583 131.652 32.3012C131.5 32.2309 131.344 32.176 131.096 32.198C129.567 32.3364 128.038 32.4616 126.509 32.5978C126.256 32.6197 126.138 32.5231 125.962 32.4725C125.903 32.4572 125.835 32.433 125.78 32.4374C125.153 32.4879 124.53 32.5429 123.902 32.5956C122.163 32.7449 120.423 32.8877 118.688 33.0459C118.372 33.0745 118.157 33.0195 117.934 32.9251C117.888 32.9053 117.808 32.8943 117.749 32.8987C115.315 33.1052 112.88 33.3139 110.45 33.5225C110.32 33.5335 110.193 33.4984 110.088 33.4413C109.978 33.382 109.856 33.3534 109.722 33.3644C108.61 33.4589 107.498 33.5533 106.386 33.65C106.108 33.6741 106.104 33.6763 105.817 33.5709C105.758 33.5489 105.695 33.5072 105.649 33.5116C105.552 33.5226 105.459 33.5775 105.392 33.6521C105.325 33.7312 105.219 33.7532 105.063 33.7686C104.903 33.7839 104.798 33.7774 104.676 33.7246C104.52 33.6587 104.377 33.5951 104.124 33.617C100.928 33.8982 97.731 34.1684 94.5343 34.4473C94.2774 34.4693 94.1595 34.377 93.9826 34.3265C93.9236 34.3111 93.8647 34.2892 93.8015 34.2848C93.7341 34.2804 93.6625 34.2936 93.5951 34.3002C88.3811 34.7461 83.1672 35.1942 77.9532 35.6401C77.6415 35.6665 77.6457 35.6665 77.3046 35.8686C77.2625 35.8927 77.2076 35.9257 77.1487 35.9301C75.5525 36.0706 73.9521 36.2068 72.3517 36.343C71.6568 36.4023 70.9619 36.4639 70.2669 36.521C70.0185 36.5407 70.0185 36.5407 69.4246 36.778C69.3741 36.7978 69.3151 36.8241 69.2561 36.8285C66.4764 37.0679 63.6967 37.3074 60.9128 37.5424C60.6938 37.56 60.517 37.5995 60.4159 37.705C60.3443 37.7796 60.2516 37.8236 60.1126 37.8368C58.1669 38.0037 56.2212 38.1728 54.2712 38.3354C54.0395 38.3552 53.9005 38.4167 53.7868 38.5089C53.7489 38.5397 53.7151 38.5748 53.6604 38.5968C53.6099 38.6166 53.5341 38.6231 53.4709 38.6297C51.8031 38.7725 50.1353 38.9197 48.4633 39.0559C48.2148 39.0757 48.1137 39.1569 47.9916 39.2426C47.9494 39.2712 47.9199 39.3107 47.8652 39.3305C47.8104 39.348 47.7304 39.348 47.663 39.3524C46.2732 39.4711 44.8834 39.5919 43.4936 39.7105C43.224 39.6995 43.165 39.8269 43.0345 39.9038C42.9881 39.9302 42.9545 39.9653 42.8998 39.9829C42.8408 40.0004 42.7649 39.9982 42.6933 40.0026C41.5814 40.0971 40.4696 40.1981 39.3535 40.286C39.0966 40.3058 39.046 40.4178 38.907 40.4947C38.8607 40.5188 38.8144 40.5562 38.7597 40.5628C38.0648 40.6265 37.3699 40.6858 36.6749 40.7429C36.4433 40.7627 36.4433 40.7605 36.0348 40.978C35.9884 41.0021 35.9336 41.0285 35.8747 41.0351C34.8344 41.1273 33.7899 41.2152 32.7455 41.3053C32.6107 41.3162 32.5181 41.369 32.4507 41.4436C32.3833 41.5183 32.2864 41.5667 32.1517 41.5776C31.3178 41.6501 30.4838 41.7248 29.6499 41.7907C29.4182 41.8083 29.2666 41.8632 29.1656 41.962C29.0898 42.0367 28.9971 42.0741 28.8497 42.0872C28.0158 42.1575 27.1819 42.2344 26.3438 42.2959C26.0995 42.3135 25.9731 42.3882 25.872 42.4804C25.792 42.5551 25.6994 42.5815 25.5435 42.5947C24.0147 42.7221 22.4817 42.8495 20.9571 42.9901C20.7002 43.0142 20.5696 42.9373 20.4011 42.8824C20.1611 42.8055 19.9379 42.7221 19.9379 42.5507C19.9379 42.5244 19.8663 42.4936 19.8158 42.4717C19.4409 42.3069 19.4409 42.3069 19.382 42.1312C19.3483 42.0236 19.3104 41.9137 19.2809 41.8039C19.2261 41.6238 19.0913 41.5776 18.7038 41.6106C18.5648 41.6216 18.4259 41.6369 18.2869 41.6457C18.0805 41.6611 17.9247 41.5886 17.8868 41.4568C17.8657 41.3843 17.8405 41.3118 17.8195 41.2393C18.03 41.2218 18.0258 41.2196 18.3964 40.9538C18.5522 40.8418 18.5523 40.8418 18.2533 40.7297C18.1395 40.688 18.03 40.6418 17.9079 40.6023C17.8531 40.5847 17.7816 40.5738 17.7226 40.5782C17.373 40.6045 17.0277 40.6353 16.6823 40.666C16.1264 40.7143 16.1263 40.7143 15.562 40.4903C15.5156 40.4727 15.444 40.4398 15.4525 40.4222C15.4988 40.3409 15.6125 40.3058 15.7557 40.297C15.9663 40.2838 16.1726 40.2618 16.379 40.2443C16.518 40.2333 16.657 40.2201 16.7959 40.2091C16.9265 40.1257 17.0614 40.0444 17.1835 39.9587C17.3772 39.8269 17.3772 39.8225 17.1118 39.7303C16.9434 39.6687 16.7623 39.6138 16.5896 39.5567C16.3832 39.5743 16.1726 39.5941 15.9663 39.6094C15.7051 39.6292 15.5998 39.5875 15.5325 39.4447C15.4735 39.3195 15.5451 39.2118 15.7473 39.1855C15.9536 39.1591 16.1474 39.1416 16.2527 39.0295C16.3538 38.9219 16.5307 38.8801 16.7497 38.8714C16.8887 38.8648 17.0276 38.8494 17.1666 38.8362C17.3477 38.8187 17.4446 38.7066 17.4067 38.5814C17.3857 38.5001 17.3435 38.432 17.1793 38.4145C16.4507 38.3376 16.4422 38.3398 16.08 38.1904C16.0463 38.1772 16.0211 38.1377 16.0337 38.1179C16.0548 38.085 16.1011 38.0366 16.1517 38.0301C16.636 37.9817 17.1203 37.9378 17.6047 37.9049C17.7647 37.8939 17.8826 37.8785 17.9374 37.7972C18.0132 37.6852 17.9795 37.5819 17.8321 37.5051C17.7858 37.4809 17.7099 37.4501 17.6594 37.4523C17.1034 37.4919 16.5517 37.5424 15.9958 37.5819C15.9452 37.5863 15.8526 37.549 15.8316 37.5204C15.7895 37.4677 15.8526 37.3974 16 37.3733C16.1937 37.3403 16.3917 37.3381 16.5222 37.2283C16.7033 37.0723 16.9265 36.9296 17.1287 36.7802C17.1624 36.7538 17.2172 36.7033 17.2046 36.6989C17.0993 36.6506 16.9771 36.6132 16.8676 36.5671C16.6823 36.4902 16.6823 36.3826 16.7244 36.2793C16.7581 36.1959 16.8844 36.1629 17.0403 36.1629C17.1076 36.1629 17.1919 36.1629 17.2466 36.1432C17.3898 36.0948 17.4362 36.0333 17.3646 35.9872C17.3224 35.9608 17.2467 35.9235 17.1961 35.9279C16.2948 36.0004 15.3893 36.0707 14.4922 36.1607C14.2269 36.1871 14.1048 36.1036 13.9448 36.0443C13.8226 35.9982 13.7088 35.9806 13.5572 36.0135C13.414 36.0443 13.2751 36.0267 13.1867 35.9542C13.1151 35.8949 13.2414 35.8444 13.5825 35.7873C13.6457 35.7763 13.7173 35.7697 13.7636 35.7477C14.2521 35.5105 14.2521 35.5083 14.5891 35.4776C14.9176 35.449 14.9176 35.4468 15.0903 35.3194C15.1703 35.2601 15.2587 35.2008 15.3345 35.1393C15.364 35.1151 15.4146 35.0712 15.3978 35.058C15.3051 34.9899 15.1787 34.9745 15.0313 34.9899C14.7028 35.0273 14.3154 34.9965 14.1427 35.2052C14.0753 35.2843 13.97 35.3062 13.8184 35.3194C12.2938 35.4468 10.7691 35.583 9.2403 35.706C8.99181 35.7258 8.87817 35.8071 8.7813 35.8971C8.69707 35.9718 8.60439 35.9938 8.44435 36.007C8.28431 36.0201 8.1579 36.0267 8.06524 35.9542C8.01049 35.9103 8.05683 35.8488 8.18318 35.7873C8.36428 35.6994 8.33057 35.5896 8.2716 35.4864C8.22949 35.4183 8.09893 35.3699 7.95995 35.3743C7.75358 35.3831 7.55568 35.4073 7.38301 35.3194C7.28193 35.2689 7.15555 35.2337 7.04184 35.1898C6.82284 35.0997 6.60382 35.0075 6.29637 35.0668C6.08579 35.0448 5.93838 34.9657 5.76992 34.9042C5.48774 34.8032 5.46247 34.7878 5.66463 34.6802C5.89206 34.5594 5.71513 34.4012 5.84148 34.2826C5.97626 34.1552 6.16163 34.0432 6.32588 33.9245C6.368 33.8938 6.40592 33.8652 6.44804 33.8345C6.35117 33.7905 6.26274 33.7356 6.14903 33.7049C6.00162 33.6653 5.92581 33.617 5.93423 33.4808C5.90475 33.4611 5.9173 33.5116 5.95099 33.5247C5.98889 33.5379 6.08162 33.527 6.12795 33.5116C6.24587 33.4698 6.30478 33.4149 6.27529 33.3688C6.25845 33.3446 6.17849 33.3139 6.12795 33.3139C6.03529 33.3139 5.95528 33.3622 5.93001 33.4808C5.45831 33.5709 4.96968 33.6148 4.48113 33.65C4.43059 33.6544 4.36746 33.6104 4.30849 33.5885C4.11476 33.5138 4.11473 33.516 3.54616 33.494C3.4872 33.4918 3.40722 33.4611 3.37774 33.4303C3.2556 33.2963 3.25985 33.1491 3.20088 33.0063C3.31039 32.9141 3.4198 32.824 3.53352 32.734C3.76094 32.5516 4.05582 32.3913 4.23271 32.1914C4.19481 32.0838 4.14426 31.9761 4.32957 31.8883C4.85603 31.7784 4.85185 31.7784 4.99504 31.673C5.40357 31.3743 5.80786 31.0733 6.23324 30.7789C6.34695 30.7021 6.34697 30.6603 6.14481 30.6274C6.08164 30.6186 6.01416 30.6164 5.94677 30.6208C5.73619 30.6362 5.52562 30.6757 5.31924 30.6669C5.11287 30.6603 4.96126 30.5637 4.79279 30.5044C4.62011 30.4429 4.44744 30.3792 4.27477 30.3155C4.07682 30.3221 3.87891 30.3836 3.68096 30.2847C3.52935 30.2078 3.33983 30.1529 3.16716 30.0892C3.29772 29.9223 3.54203 29.7948 3.73155 29.6477C3.90423 29.5137 3.90835 29.5159 4.37163 29.4126C4.59063 29.3643 4.66645 29.1161 4.48113 29.0436C4.25792 28.9557 4.02211 28.8745 3.79469 28.791C3.59674 28.7976 3.39462 28.8569 3.2051 28.7581C3.05769 28.6834 2.88919 28.6328 2.64492 28.6614C2.23218 28.7097 1.81103 28.7339 1.39408 28.7734C1.25088 28.7866 1.095 28.7778 1.03183 28.7031C0.989713 28.6504 1.11186 28.5779 1.25084 28.5625C1.46142 28.5406 1.65093 28.5142 1.75622 28.4044C1.8573 28.2946 2.04259 28.2616 2.26159 28.2462C2.32056 28.2418 2.38799 28.2155 2.41747 28.1891C2.56909 28.0617 2.73757 27.9519 3.06187 27.9563C3.19664 27.9123 3.26819 27.8574 3.22607 27.8047C3.20081 27.7761 3.11241 27.7388 3.06187 27.7432C2.7123 27.7652 2.36275 27.7871 2.02161 27.8267C1.86156 27.8443 1.73936 27.8486 1.63828 27.7827C1.56668 27.7388 1.60458 27.6795 1.73936 27.6158C1.85728 27.5609 1.89101 27.4972 1.88259 27.4225C1.86153 27.2489 1.73516 27.1984 1.33084 27.2094C1.04024 27.2182 0.968635 27.1896 0.90546 27.0403C0.888614 27.0051 0.846571 26.9568 0.876053 26.9326C1.05715 26.7833 1.17509 26.5988 1.51623 26.5285C1.651 26.5021 1.79414 26.5021 1.87837 26.445C1.96261 26.3879 2.03845 26.322 2.1269 26.267C2.2364 26.2011 2.31213 26.1397 2.26159 26.0979C2.17736 26.0232 2.04263 26.0166 1.8868 26.043C1.75203 26.065 1.60884 26.0672 1.46986 26.0803C1.22137 26.1045 1.01926 26.0474 0.989775 25.9507C0.909754 25.6959 0.825497 25.4433 0.753899 25.1885C0.745476 25.1578 0.766476 25.1182 0.800169 25.0918C0.918095 24.9996 1.04449 24.9117 1.16663 24.8217C1.30983 24.7184 1.53729 24.7382 1.73103 24.7184C2.00478 24.6899 2.00469 24.6921 2.3711 24.4812C2.5143 24.3977 2.7628 24.4307 2.9102 24.356C2.95653 24.3318 3.02813 24.2923 3.01549 24.2703C2.99865 24.2418 2.91446 24.2198 2.85128 24.2066C2.79232 24.1934 2.72074 24.1868 2.65757 24.1934C1.89105 24.2571 1.12876 24.3252 0.362246 24.3867C0.231685 24.3977 0.0884854 24.3494 0.0421575 24.2813C-0.0041705 24.2176 0.00842327 24.1407 0 24.0682C0.122137 23.9781 0.261068 23.8947 0.366359 23.798C0.44638 23.7233 0.539052 23.6904 0.699094 23.686C0.909676 23.6794 1.11607 23.653 1.35192 23.6333C1.78993 23.3126 2.21949 22.9765 2.69119 22.6558C2.88071 22.5262 2.83446 22.3944 2.87236 22.256C2.91027 22.1286 3.19243 22.1484 3.38195 22.111C3.53357 22.0803 3.58405 22.01 3.52508 21.9616C3.49139 21.9331 3.41562 21.9001 3.35666 21.9001C3.21768 21.9001 3.0787 21.9199 2.93971 21.9309C2.80073 21.9419 2.64069 21.9353 2.52698 21.9726C2.41748 22.0078 2.34584 22.0824 2.27424 22.1461C2.19422 22.2164 2.089 22.2406 1.92896 22.245C1.72259 22.2494 1.51623 22.2692 1.30986 22.2845C1.08244 22.1989 0.846534 22.1154 0.627529 22.0253C0.585413 22.0078 0.576945 21.9573 0.581156 21.9243C0.589579 21.8386 0.526421 21.7859 0.387437 21.7442C0.269512 21.709 0.172636 21.6585 0.0631334 21.6146C0.147366 21.5553 0.240055 21.4981 0.307441 21.4344C0.454848 21.3004 0.640181 21.2038 0.960265 21.2082C1.08661 21.1225 1.18766 21.0171 1.35192 20.9578C1.50775 20.9007 1.77309 20.9578 1.89102 20.8282C1.94998 20.7645 2.03848 20.692 2.15219 20.6656C2.33329 20.6239 2.56914 20.6459 2.67443 20.5229C2.7376 20.4526 2.83022 20.3888 2.95236 20.3713C3.09134 20.3515 3.2345 20.3471 3.33558 20.3054C3.39033 20.2834 3.4493 20.2483 3.4493 20.2175C3.4493 20.1977 3.36514 20.167 3.30617 20.1538C3.25142 20.1384 3.17974 20.1275 3.11657 20.1318C2.90599 20.145 2.69962 20.1692 2.48904 20.1824C2.43008 20.1868 2.36271 20.1714 2.29954 20.1582C2.11422 20.1231 2.12683 20.0791 2.27424 20.0001C2.42165 19.9232 2.527 19.8243 2.64913 19.7342C2.78391 19.7189 2.95235 19.7255 3.045 19.6837C3.20083 19.6156 3.31031 19.5168 3.43666 19.4311C3.57564 19.4179 3.71883 19.4135 3.84939 19.3894C3.90414 19.3806 3.92943 19.3323 3.97576 19.3037C4.05999 19.2488 4.13165 19.1697 4.24536 19.1434C4.43067 19.1038 4.6581 19.1192 4.7676 18.9984C4.83077 18.9281 4.9276 18.8534 5.04553 18.849C5.37404 18.8402 5.51303 18.7194 5.68149 18.6052C5.80784 18.5195 6.07739 18.5634 6.21638 18.4778C6.30903 18.4229 6.37646 18.3547 6.46912 18.302C6.50702 18.2801 6.58701 18.2691 6.65019 18.2625C6.99554 18.2296 7.34509 18.2054 7.69045 18.1702C7.7452 18.1636 7.79578 18.1307 7.8379 18.1044C7.92634 18.0472 7.98103 17.9682 8.09053 17.9308C8.20004 17.8935 8.35585 17.8935 8.49062 17.8825C8.92442 17.8495 8.95814 17.8583 9.15609 17.6716C9.31613 17.52 9.70786 17.6277 9.83842 17.4607C9.91423 17.3641 10.0532 17.285 10.3016 17.274C10.6512 17.2586 10.9966 17.2169 11.3461 17.1883C11.6578 17.162 11.6536 17.162 11.9905 16.9577C12.1421 16.8654 12.3654 16.8786 12.5633 16.861C12.7739 16.8435 12.9676 16.8171 13.0687 16.7073C13.1698 16.5997 13.3551 16.5645 13.5699 16.5491C13.7678 16.5337 13.9911 16.5447 14.1469 16.4569C14.526 16.246 14.5218 16.2438 14.7871 16.2218C15.204 16.1867 15.621 16.1515 16.0379 16.1142C16.3159 16.09 16.6065 16.0856 16.8676 16.0373C17.0571 16.0022 17.1413 15.8792 17.2635 15.7935C17.6088 15.7605 17.9542 15.7276 18.2995 15.6968C18.7839 15.6529 19.2724 15.6134 19.761 15.5716C19.9715 15.4881 20.0011 15.3036 20.3549 15.2948C20.5654 15.2905 20.7718 15.2619 20.9824 15.2443C21.332 15.2136 21.6773 15.174 22.0269 15.1587C22.2922 15.1477 22.3385 15.029 22.4774 14.9544C22.5238 14.928 22.5659 14.8907 22.6207 14.8841C23.1682 14.8226 23.7325 14.8094 24.2674 14.7193C24.3221 14.7105 24.3727 14.6644 24.3853 14.6315C24.3937 14.6139 24.3221 14.5809 24.2758 14.5656C24.2211 14.548 24.1495 14.5304 24.0905 14.5348C22.3511 14.682 20.6118 14.8314 18.8724 14.9785C18.6281 15.0005 18.6281 14.9983 18.0342 15.2399C17.9837 15.2597 17.9247 15.2817 17.8615 15.2882C17.5835 15.3146 17.3014 15.33 17.0276 15.363C16.8044 15.3893 16.6191 15.3629 16.4591 15.2838C16.3454 15.2267 16.2274 15.2092 16.0842 15.2136C15.9242 15.2202 15.8189 15.2443 15.7263 15.3036C15.6041 15.3849 15.5409 15.4903 15.284 15.5123C14.1006 15.6068 12.917 15.7122 11.7378 15.8132C11.5735 15.7825 11.4935 15.7364 11.5356 15.6815C11.5609 15.6485 11.6115 15.6046 11.662 15.6002C12.1463 15.554 12.6349 15.5145 13.1192 15.4706C13.1866 15.464 13.2792 15.4684 13.3171 15.4464C13.5024 15.3475 13.5699 15.1872 13.9195 15.1762C14.1216 15.1696 14.328 15.1367 14.5217 15.1059C14.5765 15.0971 14.627 15.051 14.6396 15.0181C14.6439 15.0005 14.5765 14.9675 14.5259 14.9522C14.3406 14.8885 14.1259 14.9654 13.9406 14.9214C13.8774 14.906 13.7889 14.8841 13.7762 14.8577C13.7678 14.8336 13.8394 14.794 13.89 14.7698C13.9363 14.7479 13.9994 14.7281 14.0626 14.7215C14.6185 14.671 15.1746 14.6183 15.7305 14.5787C15.9579 14.5634 16.1179 14.5084 16.219 14.4074C16.2948 14.3327 16.3875 14.2932 16.5307 14.2822C17.5036 14.2009 18.4764 14.1109 19.4535 14.0362C19.6978 14.0186 19.8242 13.9461 19.9253 13.8517C20.0053 13.777 20.098 13.7506 20.2538 13.7374C21.6478 13.6232 23.0334 13.4958 24.4275 13.386C24.6844 13.3662 24.7602 13.2717 24.8908 13.1905C24.9371 13.1619 24.9665 13.1268 25.0255 13.1092C25.0845 13.0916 25.1603 13.0938 25.2319 13.0894C26.3437 12.995 27.4557 12.8939 28.5718 12.8061C28.8329 12.7863 28.8833 12.6764 29.0181 12.5996C29.0644 12.5754 29.1066 12.5359 29.1614 12.5293C29.9953 12.4546 30.8291 12.3843 31.663 12.3118C32.219 12.2635 32.7749 12.2152 33.3308 12.169C33.6046 12.1471 33.6046 12.1449 33.9752 11.9362C34.0173 11.912 34.0764 11.8835 34.1311 11.8769C35.7315 11.7363 37.3277 11.6023 38.9281 11.4639C39.0629 11.4529 39.1597 11.4024 39.2271 11.3277C39.2945 11.253 39.3915 11.2025 39.522 11.1915C40.7729 11.0817 42.0237 10.9741 43.2788 10.8708C43.5062 10.8532 43.6662 10.8005 43.7673 10.7017C43.8431 10.627 43.9357 10.5875 44.0789 10.5765C45.3298 10.471 46.5807 10.359 47.8358 10.2579C48.0758 10.2382 48.1937 10.1635 48.3116 10.0756C48.3538 10.0449 48.3875 9.99435 48.438 9.98996C49.0613 9.92845 49.6804 9.86475 50.308 9.82301C50.5691 9.80544 50.6576 9.71317 50.7628 9.62531C50.8471 9.55501 50.944 9.53086 51.104 9.52207C51.4536 9.5023 51.7989 9.46497 52.1401 9.42763C52.1906 9.42104 52.2538 9.37271 52.258 9.34196C52.2664 9.28485 52.1695 9.2453 52.0095 9.22553C50.3417 9.36831 48.6697 9.51108 47.0019 9.65386C46.7281 9.67803 46.7281 9.67804 46.3575 9.88672C46.3154 9.91088 46.2564 9.93944 46.1974 9.94603C44.597 10.0844 43.0008 10.2206 41.4004 10.359C41.2656 10.37 41.1688 10.4205 41.1014 10.4952C41.034 10.5699 40.937 10.6204 40.8065 10.6314C39.2777 10.7632 37.7489 10.8972 36.2158 11.0224C35.9884 11.04 35.8284 11.0905 35.7273 11.1915C35.6515 11.2662 35.5589 11.3058 35.4157 11.3167C33.9542 11.4397 32.4969 11.5693 31.0313 11.688C30.8839 11.6989 30.7745 11.6352 30.7829 11.5759C30.7871 11.5452 30.8502 11.4947 30.9007 11.4903C31.663 11.4178 32.4212 11.3431 33.1877 11.2882C33.4446 11.2706 33.5204 11.1739 33.6509 11.0927C33.693 11.0641 33.7268 11.0268 33.7815 11.0114C33.8405 10.9938 33.9163 10.996 33.9879 10.9916C35.7947 10.8357 37.6015 10.6775 39.4125 10.5303C39.6736 10.5084 39.7241 10.4007 39.8589 10.3238C39.9052 10.2975 39.9473 10.258 40.0021 10.2536C40.558 10.2008 41.1139 10.1547 41.6699 10.1086C42.6428 10.0251 43.6156 9.94164 44.5927 9.85816C44.8749 9.834 44.8749 9.83399 45.2371 9.62751C45.2792 9.60334 45.3383 9.57261 45.393 9.56822C47.9663 9.34636 50.5397 9.12449 53.113 8.90483C53.2477 8.89385 53.3446 8.84332 53.412 8.76864C53.4794 8.69615 53.5762 8.64343 53.7068 8.63025C57.1856 8.33151 60.6602 8.03275 64.139 7.7384C64.3664 7.71863 64.5264 7.6725 64.6275 7.56926C64.6991 7.49457 64.796 7.45504 64.9392 7.44186C68.7633 7.11456 72.5875 6.78727 76.4159 6.45777C78.9892 6.23811 81.5625 6.01405 84.1358 5.79878C84.3717 5.77901 84.498 5.7109 84.6159 5.62084C84.6538 5.59009 84.6917 5.53956 84.7423 5.53517C85.294 5.48025 85.8457 5.42974 86.3974 5.37921C86.5701 5.43852 86.7428 5.49565 86.9154 5.55495C87.046 5.47148 87.1724 5.38581 87.303 5.30234C88.1369 5.23863 88.9581 5.13978 89.8005 5.10903C89.8552 5.10683 89.9141 5.14858 89.9731 5.17054C90.3648 5.30893 90.588 5.29795 90.8365 5.11343C90.9249 5.04753 91.0007 4.98822 91.1355 4.97724C91.5525 4.9377 91.9737 4.91134 92.3865 4.86521C92.6097 4.84104 92.7949 4.863 92.955 4.94208C93.0687 4.9992 93.1867 5.02337 93.3256 5.01019C94.0922 4.94429 94.8544 4.88058 95.621 4.81029C95.6757 4.8059 95.7262 4.76854 95.7683 4.74218C95.8568 4.68507 95.9326 4.62358 96.0168 4.56427C96.1305 4.60161 96.2569 4.63017 96.3496 4.6785C96.4675 4.73561 96.577 4.7356 96.737 4.72022C99.7947 4.45443 102.857 4.19523 105.914 3.92724C106.175 3.90527 106.289 3.99754 106.466 4.04586C106.525 4.06344 106.584 4.08539 106.647 4.08979C106.714 4.09418 106.786 4.08101 106.853 4.07442C109.149 3.87672 111.444 3.68121 113.739 3.48351C114.043 3.45715 114.043 3.45715 114.493 3.59334C114.548 3.61092 114.62 3.63069 114.679 3.6241C115.723 3.53843 116.768 3.44618 117.808 3.35832C117.943 3.34733 118.056 3.38247 118.179 3.43299C118.419 3.53184 118.435 3.53185 118.612 3.38687C118.696 3.31878 118.785 3.27702 118.924 3.25725C119.075 3.23529 119.198 3.2419 119.316 3.28144C119.484 3.33635 119.606 3.4286 119.863 3.40444C120.975 3.30119 122.091 3.21553 123.199 3.11009C123.451 3.08593 123.586 3.16061 123.755 3.21553C123.814 3.2353 123.868 3.26605 123.932 3.27264C123.995 3.27923 124.071 3.26384 124.138 3.25725C125.528 3.13863 126.922 3.02223 128.307 2.89483C128.569 2.87067 128.682 2.9651 128.859 3.01343C128.918 3.031 128.985 3.06177 129.04 3.05738C129.874 2.98928 130.712 2.91677 131.546 2.84428C131.845 2.81792 131.845 2.82012 132.3 2.95412C132.355 2.97169 132.426 2.98926 132.485 2.98487C133.458 2.9036 134.435 2.82012 135.408 2.73665C135.707 2.71029 135.707 2.7103 136.571 2.82452C136.634 2.83331 136.701 2.8465 136.764 2.84211C137.876 2.74766 138.992 2.65538 140.104 2.55434C140.327 2.53457 140.513 2.55214 140.673 2.63122C140.787 2.68833 140.904 2.7125 141.043 2.69932C142.294 2.59169 143.549 2.48845 144.796 2.37423C145.036 2.35226 145.192 2.40057 145.36 2.46427C145.415 2.48624 145.47 2.51699 145.533 2.52578C145.596 2.53457 145.668 2.52577 145.735 2.51918C146.986 2.41155 148.241 2.31051 149.488 2.19409C149.74 2.16992 149.875 2.2446 150.044 2.29952C150.103 2.31929 150.166 2.35883 150.216 2.35664C150.705 2.31929 151.193 2.28636 151.678 2.23144C151.939 2.20069 152.053 2.30171 152.23 2.35004C152.288 2.36542 152.356 2.39838 152.411 2.39399C153.455 2.30832 154.5 2.21826 155.54 2.126C155.687 2.11282 155.797 2.13258 155.915 2.18969C156.071 2.26657 156.252 2.29733 156.479 2.27316C156.963 2.22264 157.452 2.1875 157.941 2.14577C158.227 2.1216 158.227 2.12161 159.103 2.23584C159.166 2.24462 159.233 2.25779 159.297 2.2534C160.131 2.18311 160.969 2.11502 161.798 2.03813C162.022 2.01617 162.207 2.03593 162.367 2.11501C162.481 2.17212 162.594 2.1963 162.738 2.18312C163.504 2.11722 164.266 2.05132 165.033 1.98542C165.311 1.96125 165.589 1.91951 165.867 1.91951C166.069 1.9217 166.216 2.02714 166.398 2.07986C166.448 2.09523 166.532 2.07768 166.6 2.07329C167.573 1.98982 168.55 1.91293 169.518 1.81847C169.771 1.79431 169.906 1.86899 170.074 1.9239C170.133 1.94367 170.196 1.98322 170.247 1.98102C170.596 1.95686 170.942 1.9239 171.291 1.89535C171.708 1.8602 172.129 1.83384 172.542 1.78551C172.879 1.74598 173.005 1.93708 173.275 1.94367C173.481 1.95026 173.692 1.91292 173.898 1.89535C174.315 1.8602 174.732 1.82067 175.149 1.78991C175.297 1.77893 175.41 1.74377 175.457 1.66469C175.465 1.64931 175.394 1.61638 175.347 1.59661C174.787 1.37255 174.787 1.37254 174.223 1.42087C173.873 1.45162 173.528 1.48238 173.178 1.50874C173.119 1.51313 173.052 1.49556 172.993 1.48238C172.824 1.44503 172.841 1.40111 172.984 1.32203C173.128 1.24295 173.237 1.1463 173.359 1.05624C173.532 1.11336 173.7 1.17045 173.873 1.22756C174.012 1.21658 174.151 1.20342 174.29 1.19243C174.985 1.13532 175.68 1.07601 176.375 1.02329C176.425 1.01889 176.489 1.06283 176.547 1.0848C176.716 1.1485 176.868 1.2034 177.112 1.17924C177.735 1.11554 178.363 1.06941 178.986 1.01449C179.26 0.990329 179.26 0.990332 179.74 1.12652C179.795 1.1419 179.866 1.15947 179.925 1.15508C180.553 1.10456 181.176 1.04965 181.804 0.996929C181.938 0.985946 182.069 1.0145 182.166 1.0782C182.204 1.10456 182.195 1.14849 182.355 1.50874C182.852 1.80089 183.193 1.77015 183.539 1.74379C183.686 1.73281 183.817 1.72181 183.914 1.67788C183.964 1.65372 184.027 1.61857 184.027 1.59001C184.027 1.56804 183.935 1.53289 183.876 1.5285C183.459 1.48457 183.063 1.57684 182.654 1.59661C182.465 1.60539 182.301 1.52851 182.267 1.4033C182.258 1.36816 182.246 1.33081 182.233 1.29567C182.221 1.26052 182.212 1.22318 182.2 1.18804C182.035 1.17705 181.938 1.21659 181.867 1.29127C181.808 1.35278 181.724 1.42307 181.61 1.45602C181.496 1.49117 181.34 1.48459 181.201 1.49557C181.067 1.50655 180.919 1.53511 180.793 1.51973C180.666 1.50216 180.565 1.43844 180.447 1.3989C180.393 1.37913 180.325 1.35059 180.271 1.35498C179.786 1.39233 179.306 1.42965 178.826 1.47798C178.573 1.50434 178.447 1.41209 178.287 1.35498C178.161 1.31105 178.034 1.32202 178.013 1.42306C177.958 1.66469 178.152 1.76573 178.582 1.7196C178.936 1.68007 179.256 1.6735 179.534 1.82287C179.571 1.84264 179.66 1.85142 179.715 1.84703C180.06 1.82067 180.401 1.78771 180.746 1.76136C180.81 1.75696 180.877 1.76573 180.936 1.77452C181.795 1.89314 181.795 1.89535 182.086 1.86899C182.225 1.85581 182.36 1.84482 182.347 1.51094C182.612 1.15288 183.033 1.12872 183.442 1.076C183.707 1.04306 183.821 1.13971 183.994 1.19023C184.053 1.20781 184.116 1.24295 184.171 1.23855C185.076 1.16606 185.977 1.08917 186.879 1.0079C187.03 0.994716 187.14 1.0079 187.258 1.06501C187.409 1.1375 187.578 1.18364 187.818 1.15728C188.298 1.10456 188.786 1.07162 189.275 1.02769C189.524 1.00572 189.524 1.0057 190.025 1.14189C190.079 1.15726 190.151 1.17484 190.21 1.17045C190.699 1.1331 191.183 1.08699 191.667 1.04745C191.802 1.03646 191.924 1.06721 192.029 1.12652C192.135 1.18583 192.261 1.21658 192.392 1.2056C192.88 1.16606 193.365 1.12214 193.849 1.0826C193.908 1.07821 193.979 1.09358 194.034 1.10896C194.548 1.24515 194.548 1.24513 194.784 1.22316C195.129 1.19021 195.483 1.17485 195.824 1.13092C196.157 1.08699 196.33 1.21438 196.557 1.28467C197.18 1.23415 197.808 1.19243 198.427 1.13092C198.68 1.10456 198.814 1.17704 198.983 1.23416C199.042 1.25393 199.101 1.29567 199.156 1.29347C199.366 1.28468 199.573 1.26052 199.779 1.24295C199.985 1.22538 200.196 1.20781 200.402 1.19023C200.638 1.25394 200.794 1.40331 201.131 1.35278C201.333 1.32203 201.548 1.31544 201.754 1.29787C201.961 1.28029 202.171 1.26272 202.377 1.24515C202.516 1.23417 202.66 1.22757 202.794 1.2078C203.043 1.17485 203.165 1.2825 203.342 1.33082C203.401 1.3462 203.468 1.37254 203.523 1.36815C203.94 1.3374 204.361 1.31104 204.77 1.26051C205.086 1.22098 205.3 1.28688 205.524 1.37914C205.57 1.39891 205.65 1.40989 205.709 1.4055C206.197 1.36816 206.682 1.32202 207.166 1.28248C207.297 1.27149 207.423 1.30664 207.528 1.36375C207.638 1.42306 207.76 1.45164 207.895 1.44065C208.379 1.40111 208.868 1.35717 209.352 1.31763C209.411 1.31324 209.482 1.33081 209.537 1.34839C210.009 1.48458 210.009 1.48678 210.287 1.46042C210.354 1.45383 210.426 1.44942 210.493 1.44283C210.839 1.41207 211.197 1.40111 211.534 1.34839C211.921 1.28908 212.203 1.36377 212.477 1.48897C212.822 1.46261 213.176 1.44723 213.513 1.4033C213.766 1.37035 213.9 1.45382 214.069 1.50874C214.128 1.52851 214.191 1.56805 214.242 1.56365C214.73 1.52631 215.219 1.49337 215.699 1.43846C215.96 1.4077 216.074 1.50653 216.251 1.55706C216.31 1.57463 216.373 1.6054 216.427 1.601C216.705 1.58343 216.983 1.55706 217.261 1.5329C217.586 1.50434 217.586 1.50653 218.015 1.64053C218.217 1.70423 218.42 1.65371 218.618 1.63833C218.828 1.62076 219.026 1.60758 219.194 1.69764C219.3 1.75476 219.426 1.7899 219.557 1.78112C219.835 1.76135 220.117 1.74159 220.391 1.70864C220.61 1.68228 220.799 1.69984 220.959 1.78112C221.073 1.83823 221.191 1.8668 221.33 1.85362C221.953 1.8009 222.581 1.74597 223.204 1.69545C223.259 1.69105 223.335 1.71083 223.385 1.7306C223.503 1.77014 223.617 1.81406 223.73 1.85799C224.004 1.83822 224.286 1.82946 224.556 1.79871C224.842 1.76795 225.103 1.75697 225.327 1.87778C225.373 1.90414 225.44 1.94147 225.495 1.93927C225.706 1.93048 225.912 1.90852 226.118 1.89095C226.325 1.87338 226.535 1.85581 226.742 1.83823C226.982 1.89315 227.133 2.0513 227.47 2.00078C227.673 1.97003 227.887 1.96344 228.094 1.94587C228.3 1.92829 228.511 1.90852 228.717 1.89315C228.784 1.88875 228.86 1.87777 228.919 1.88655C228.982 1.89534 229.037 1.9261 229.092 1.94806C229.26 2.01177 229.416 2.07548 229.656 2.03813C229.858 2.00738 230.073 2.00079 230.28 1.98102C230.562 1.95686 230.562 1.95686 231.029 2.09525C231.219 2.15236 231.434 2.07768 231.615 2.126C231.737 2.15895 231.842 2.21386 231.96 2.2512C232.011 2.26658 232.091 2.27316 232.149 2.26876C232.427 2.249 232.71 2.22923 232.983 2.19629C233.207 2.16993 233.392 2.19628 233.548 2.27536C233.661 2.33247 233.775 2.35665 233.918 2.34347C234.613 2.28196 235.308 2.22923 235.999 2.16113C236.235 2.13697 236.424 2.17432 236.555 2.2534C236.778 2.38959 237.094 2.22924 237.326 2.33907C237.469 2.40717 237.612 2.48625 237.873 2.4533C238.353 2.39619 238.842 2.36542 239.326 2.32588C239.499 2.38519 239.671 2.44451 239.848 2.50382C240.126 2.47966 240.404 2.45548 240.682 2.43351C240.889 2.41594 241.099 2.39617 241.306 2.3808C241.373 2.3764 241.445 2.36761 241.508 2.3786C241.571 2.38958 241.622 2.41814 241.68 2.44011C241.971 2.54774 241.971 2.54995 242.451 2.50602C242.658 2.48625 242.855 2.47307 243.028 2.56093C243.188 2.64221 243.378 2.65758 243.597 2.63341C244.009 2.58948 244.426 2.55653 244.848 2.52578C244.978 2.5148 245.1 2.55214 245.21 2.60925C245.374 2.69932 245.576 2.69053 245.783 2.66637C246.056 2.63562 246.326 2.60487 246.557 2.72788C246.604 2.75424 246.675 2.79156 246.726 2.78937C247.071 2.77179 247.421 2.75862 247.758 2.71689C248.095 2.67515 248.259 2.81134 248.491 2.87724C248.836 2.84868 249.186 2.82012 249.531 2.79157C249.598 2.78498 249.678 2.76522 249.737 2.7762C249.986 2.82233 250.129 2.98707 250.47 2.93655C250.668 2.908 250.883 2.89922 251.089 2.89263C251.144 2.89043 251.216 2.92776 251.254 2.95631C251.275 2.97169 251.253 3.01342 251.228 3.03539C251.152 3.0969 251.06 3.15403 250.992 3.21773C250.984 3.22651 251.064 3.26604 251.11 3.28361C251.224 3.32315 251.355 3.31658 251.506 3.299C251.637 3.28363 251.772 3.31438 251.864 3.38028C251.902 3.40664 251.889 3.45057 251.809 3.59554C251.809 3.70318 251.898 3.65484 251.927 3.58455C251.974 3.4835 251.885 3.45056 251.717 3.50547C251.599 3.54501 251.54 3.60213 251.569 3.64826C251.586 3.67242 251.666 3.70318 251.809 3.59554C252.18 3.46374 252.458 3.43959 252.736 3.41543C252.808 3.40884 252.892 3.38686 252.942 3.40004C253.123 3.45276 253.292 3.51647 253.469 3.57578C253.671 3.5626 253.86 3.52964 254.058 3.61531C254.336 3.73612 254.349 3.72514 254.619 3.70098C254.758 3.6878 254.897 3.67683 255.036 3.66585C255.175 3.65487 255.284 3.68781 255.406 3.73833C255.655 3.84157 255.676 3.84156 255.84 3.70098C255.937 3.61531 256.004 3.58676 256.126 3.6263C256.531 3.76029 256.535 3.76907 256.88 3.72953C257.167 3.69659 257.436 3.6878 257.647 3.81301C257.79 3.90087 257.836 3.88111 257.95 3.78885C258.253 3.54502 258.392 3.54941 258.961 3.72514C259.226 3.80861 259.5 3.71856 259.769 3.70757C259.997 3.69879 260.157 3.7515 260.174 3.88989C260.186 3.97555 260.224 4.03707 260.376 4.06563C260.435 4.07661 260.506 4.09198 260.565 4.08759C260.915 4.06123 261.26 4.03047 261.61 3.99972C261.787 3.98434 261.884 3.88112 261.85 3.74493C261.812 3.59995 261.879 3.54721 262.132 3.50547C262.284 3.48131 262.406 3.48572 262.528 3.52526C262.663 3.5692 262.625 3.60873 262.507 3.68781C262.225 3.88112 262.258 3.99971 262.621 4.13371C262.747 4.17984 262.848 4.22159 262.878 4.28969C262.894 4.32483 262.878 4.37096 262.915 4.39732C263.122 4.5445 263.408 4.63896 263.728 4.70925C264.036 4.64995 264.246 4.74878 264.482 4.82785C264.668 4.88936 264.887 4.83665 265.084 4.81469C265.308 4.79053 265.493 4.80809 265.653 4.88937C265.767 4.94648 265.885 4.97283 266.024 4.96185C266.302 4.93768 266.584 4.92231 266.858 4.88717C267.093 4.85642 267.27 4.90035 267.418 4.97504C267.603 5.06949 267.809 5.00578 268.003 5.01896C268.264 5.03434 268.395 5.22983 268.736 5.17711C268.938 5.14636 269.149 5.13538 269.359 5.12659C269.414 5.1244 269.481 5.16175 269.528 5.18811C269.751 5.30892 270.012 5.30233 270.298 5.26718C270.496 5.24302 270.69 5.22106 270.884 5.30453C271.204 5.44512 271.558 5.56814 271.895 5.69774C271.941 5.79879 271.907 5.91738 272.147 5.97669C272.274 6.00745 272.392 6.05359 272.489 6.10411C272.606 6.16342 272.716 6.1788 272.868 6.16343C273.141 6.13268 273.428 6.12606 273.697 6.08652C273.946 6.05138 274.102 6.12389 274.253 6.19199C274.375 6.2469 274.489 6.27325 274.637 6.23371C274.788 6.19637 274.898 6.22052 275.02 6.27983C275.192 6.3611 275.205 6.35233 275.778 6.3765C275.837 6.37869 275.908 6.41162 275.942 6.44018C275.959 6.45556 275.921 6.49952 275.892 6.52148C275.854 6.54784 275.795 6.57858 275.74 6.58517C275.117 6.64228 274.489 6.6928 273.866 6.74991C273.803 6.7565 273.735 6.7719 273.689 6.79386C273.638 6.81803 273.575 6.85095 273.575 6.88171C273.575 6.90367 273.659 6.93004 273.718 6.94542C273.904 6.99594 274.123 6.91906 274.304 6.97617C274.426 7.01352 274.527 7.06622 274.649 7.10137C274.7 7.11675 274.78 7.11456 274.843 7.11017C275.053 7.09479 275.26 7.07283 275.47 7.05965C275.529 7.05745 275.597 7.07943 275.651 7.097C276.056 7.2288 276.056 7.22879 276.405 7.20024C276.544 7.18925 276.692 7.1563 276.822 7.16948C276.949 7.18266 277.058 7.24197 277.172 7.27931C277.408 7.35839 277.631 7.43527 277.648 7.60661C277.656 7.67251 277.795 7.72961 277.934 7.734C278.069 7.7384 278.212 7.71425 278.351 7.70108C278.68 7.67472 278.68 7.67471 279.105 7.80871C279.223 7.84605 279.349 7.85044 279.501 7.82847C279.56 7.81968 279.632 7.82848 279.695 7.83946C279.901 7.87241 279.901 7.91414 279.766 7.99322C279.577 8.10964 279.594 8.12063 280.124 8.21948C280.326 8.25682 280.482 8.32712 280.651 8.38862C280.924 8.48747 280.92 8.48745 280.739 8.61706C280.697 8.64561 280.659 8.67637 280.617 8.70713C280.495 8.7928 280.398 8.88505 280.145 8.89384C279.867 8.90262 279.589 8.93778 279.311 8.96194C279.042 8.98611 278.97 9.03881 278.995 9.18818C279.025 9.3683 279.08 9.38808 279.564 9.38588C279.703 9.38588 279.825 9.40345 279.93 9.46276C279.88 9.53305 279.787 9.58797 279.653 9.60115C279.307 9.6341 278.958 9.66266 278.612 9.69122C278.334 9.71538 278.056 9.73953 277.778 9.7637C277.606 9.77907 277.496 9.89331 277.542 10.0207C277.568 10.0932 277.589 10.1657 277.61 10.2382C277.656 10.3832 277.745 10.4205 278.027 10.4139C278.098 10.4117 278.166 10.3941 278.233 10.3985C278.507 10.4139 278.637 10.5962 278.966 10.5589C279.24 10.5281 279.526 10.5215 279.796 10.482C280.044 10.4469 280.183 10.526 280.356 10.5853C280.415 10.605 280.478 10.6467 280.529 10.6446C280.878 10.6204 281.228 10.5962 281.569 10.5545C281.729 10.5369 281.826 10.5501 281.952 10.6028C282.255 10.7302 282.264 10.7236 282.714 10.6841C283.043 10.6533 283.047 10.6577 283.468 10.7917C283.586 10.8291 283.713 10.8291 283.864 10.8115C284.062 10.7895 284.268 10.7544 284.475 10.7873C284.538 10.7961 284.618 10.8225 284.639 10.851C284.652 10.8708 284.593 10.9191 284.542 10.9345C284.172 11.0487 283.738 11.029 283.333 11.0751C283.207 11.0883 283.081 11.0465 282.975 10.9872C282.866 10.9279 282.748 10.9038 282.605 10.9148C282.327 10.9389 282.045 10.9543 281.771 10.9894C281.535 11.0202 281.371 10.9697 281.207 10.9016C281.152 10.8796 281.089 10.8379 281.034 10.8401C280.411 10.884 279.783 10.9279 279.164 10.9894C278.916 11.0158 278.772 10.9455 278.604 10.8862C278.545 10.8664 278.486 10.8247 278.431 10.8269C278.221 10.8357 278.014 10.8598 277.804 10.8774C277.037 10.9433 276.275 11.0092 275.508 11.0707C275.458 11.0751 275.395 11.029 275.336 11.0092C275.222 10.9697 275.104 10.9323 274.986 10.895C274.775 10.9125 274.569 10.9345 274.358 10.9477C274.207 10.9565 274.072 10.9872 274.051 11.0707C274.038 11.1256 274.177 11.1761 274.325 11.1717C274.468 11.1674 274.611 11.141 274.729 11.1695C275.315 11.3101 275.315 11.3123 275.681 11.2838C276.001 11.2574 275.967 11.2354 276.249 11.3563C276.372 11.409 276.481 11.4397 276.62 11.4266C276.966 11.3958 277.315 11.3651 277.665 11.3387C277.719 11.3343 277.791 11.3563 277.846 11.3738C278.258 11.5056 278.258 11.51 278.6 11.4771C279.046 11.4375 279.063 11.4266 279.362 11.5606C279.568 11.6528 279.758 11.5891 279.956 11.5847C280.183 11.6704 280.432 11.7473 280.638 11.8439C280.882 11.9582 281.139 11.9384 281.417 11.9054C281.624 11.8813 281.826 11.8725 281.994 11.9625C282.154 12.046 282.348 12.0548 282.567 12.0328C282.765 12.0131 282.967 11.9713 283.173 12.0196C283.228 12.0328 283.312 12.0658 283.308 12.0856C283.304 12.1163 283.249 12.1602 283.194 12.1734C282.807 12.2635 282.382 12.2613 281.973 12.303C281.918 12.3096 281.847 12.2854 281.792 12.2679C281.674 12.2283 281.56 12.1822 281.447 12.1405C281.24 12.1537 281.03 12.158 280.828 12.1844C280.672 12.2042 280.554 12.202 280.44 12.1493C280.335 12.1009 280.221 12.0416 280.095 12.0262C279.968 12.0109 279.821 12.0438 279.682 12.057C279.543 12.0702 279.383 12.0636 279.274 12.0987C279.164 12.1339 279.097 12.2108 279.025 12.2723C278.945 12.3404 278.835 12.3623 278.675 12.3689C278.528 12.3755 278.41 12.3667 278.301 12.3052C278.254 12.2789 278.191 12.2591 278.128 12.2415C278.069 12.2261 278.002 12.202 277.947 12.2064C277.319 12.2569 276.696 12.3118 276.068 12.3645C275.757 12.3909 275.761 12.3909 275.112 12.2613C275.053 12.2503 274.982 12.2349 274.923 12.2393C274.573 12.2657 274.228 12.2964 273.878 12.3272C273.525 12.3579 273.529 12.3535 272.927 12.2152C272.817 12.1888 272.657 12.2239 272.526 12.2195C272.253 12.2086 272.118 12.0241 271.798 12.0592C271.524 12.09 271.238 12.0965 270.964 12.1361C270.715 12.1712 270.572 12.0943 270.404 12.035C270.345 12.0153 270.282 11.9713 270.231 11.9757C269.604 12.0241 268.98 12.079 268.146 12.0856C267.94 12.0856 268.033 12.1317 268.167 12.1471C268.361 12.1712 268.424 12.1251 268.319 12.0372C268.243 11.9757 268.134 11.945 268.045 11.9603C267.999 11.9691 267.94 12.0109 268.146 12.0856C268.365 12.169 268.353 12.2152 268.391 12.2415C268.483 12.3052 268.614 12.3316 268.749 12.3228C268.959 12.3074 269.166 12.2854 269.376 12.2723C269.435 12.2679 269.507 12.2833 269.561 12.3008C270.025 12.437 270.029 12.4458 270.522 12.3931C270.678 12.3777 270.791 12.3777 270.913 12.4195C271.082 12.4766 271.204 12.5732 271.461 12.5424C271.802 12.5007 272.152 12.4766 272.501 12.4524C272.556 12.448 272.615 12.4876 272.678 12.5051C272.851 12.5578 272.977 12.6567 273.234 12.615C273.432 12.582 273.647 12.5732 273.857 12.5666C273.912 12.5644 273.996 12.5996 274.022 12.6281C274.072 12.6786 274.009 12.738 273.866 12.7797C273.807 12.7973 273.727 12.7929 273.659 12.7995C273.381 12.8236 273.103 12.85 272.825 12.8697C272.678 12.8807 272.539 12.9137 272.522 12.995C272.51 13.0499 272.661 13.0982 272.804 13.0938C273.015 13.0872 273.226 13.0696 273.428 13.0411C273.786 12.9928 274.097 13.0059 274.388 13.1443C274.594 13.241 274.582 13.2058 274.801 13.4914C274.855 13.5639 275.02 13.5705 275.163 13.5661C275.508 13.5551 275.668 13.5881 275.639 13.6562C275.601 13.7396 275.479 13.766 275.323 13.777C275.045 13.7945 274.767 13.8231 274.489 13.8473C274.422 13.8539 274.346 13.867 274.283 13.8626C274.22 13.8582 274.161 13.8319 274.106 13.8121C273.988 13.7704 273.887 13.7067 273.76 13.6913C273.634 13.6759 273.487 13.7089 273.348 13.722C273.209 13.733 273.061 13.766 272.935 13.7506C272.809 13.7352 272.703 13.6693 272.59 13.6298C272.535 13.61 272.467 13.5793 272.413 13.5815C272.135 13.599 271.857 13.6276 271.579 13.6496C271.238 13.6781 271.238 13.6781 270.825 13.5419C270.707 13.5024 270.585 13.5046 270.429 13.5222C270.092 13.5573 270.088 13.5507 269.473 13.4233C269.414 13.4101 269.342 13.3948 269.283 13.4013C268.656 13.4519 268.033 13.5068 267.409 13.5595C266.874 13.6056 266.874 13.6056 266.58 13.8253C266.361 13.9879 266.356 13.9878 266.571 14.0625C266.744 14.124 266.9 14.2141 267.089 14.247C267.266 14.2778 267.485 14.179 267.679 14.28C267.776 14.3305 267.902 14.3854 268.024 14.3942C268.218 14.4052 268.424 14.3415 268.61 14.4381C268.702 14.4865 268.841 14.537 268.959 14.5392C269.166 14.5436 269.376 14.5084 269.583 14.4931C269.646 14.4887 269.717 14.4887 269.776 14.4997C269.839 14.5128 269.894 14.5392 269.949 14.5612C270.117 14.6359 270.299 14.671 270.518 14.6337C270.875 14.5721 271.196 14.6029 271.474 14.7435C271.511 14.7633 271.604 14.7655 271.663 14.7567C271.815 14.7347 271.945 14.7325 272.059 14.7742C272.105 14.7918 272.173 14.8226 272.164 14.8423C272.152 14.8753 272.101 14.9192 272.046 14.9302C271.65 15.0049 271.225 15.0137 270.817 15.0532C270.762 15.0576 270.694 15.029 270.64 15.0093C270.522 14.9697 270.421 14.9038 270.294 14.8885C270.168 14.8731 270.021 14.9016 269.882 14.9126C269.743 14.9236 269.595 14.9566 269.469 14.9434C269.342 14.928 269.225 14.8731 269.123 14.8248C269.006 14.7698 268.892 14.7633 268.736 14.7852C268.534 14.8138 268.323 14.8182 268.117 14.8336C268.003 14.7918 267.889 14.7457 267.772 14.7061C267.717 14.6864 267.649 14.6622 267.59 14.6644C267.312 14.682 267.034 14.7083 266.756 14.7325C266.478 14.7567 266.479 14.7567 266.007 14.6205C265.952 14.6051 265.88 14.5875 265.821 14.5919C265.472 14.6183 265.127 14.6512 264.777 14.6776C264.642 14.6886 264.52 14.6578 264.411 14.5985C264.305 14.5392 264.179 14.5062 264.048 14.5172C263.492 14.5634 262.937 14.6073 262.381 14.6622C262.157 14.6842 261.968 14.6644 261.816 14.5853C261.639 14.4953 261.441 14.5172 261.235 14.5348C260.768 14.5787 260.763 14.5765 260.464 14.4645C260.405 14.4425 260.346 14.4008 260.292 14.403C259.807 14.4359 259.319 14.4667 258.839 14.5194C258.586 14.548 258.451 14.4711 258.283 14.414C258.224 14.3942 258.161 14.3525 258.11 14.3569C257.76 14.381 257.411 14.403 257.07 14.4469C256.729 14.4909 256.598 14.2866 256.341 14.2888C255.992 14.291 255.646 14.3415 255.301 14.3723C255.023 14.3964 254.745 14.4206 254.467 14.4447C254.189 14.4689 253.911 14.4887 253.633 14.5172C253.486 14.5326 253.376 14.5128 253.254 14.4579C253.098 14.3854 252.913 14.3283 252.744 14.2624C252.488 14.168 252.487 14.168 252.176 14.1943C252.108 14.2009 252.037 14.2053 251.969 14.2119C251.46 14.2602 251.46 14.2558 250.811 14.1174C250.782 14.1109 250.706 14.135 250.676 14.1526C250.588 14.2097 250.508 14.2712 250.428 14.3305C250.314 14.2954 250.175 14.2756 250.1 14.2251C249.885 14.0823 249.548 14.2778 249.329 14.1372C249.249 14.0845 249.11 14.0384 248.983 14.0252C248.853 14.012 248.705 14.0428 248.571 14.0559C248.221 14.0889 248.221 14.0867 247.922 14.2822C247.77 14.3788 247.551 14.3613 247.354 14.3832C247.147 14.4074 246.949 14.4206 246.776 14.3305C246.621 14.2492 246.431 14.2295 246.208 14.2558C245.934 14.2888 245.652 14.3085 245.374 14.3283C245.315 14.3327 245.243 14.3217 245.184 14.3086C244.54 14.179 244.54 14.1768 244.228 14.2053C244.089 14.2185 243.946 14.2229 243.811 14.2426C243.584 14.2778 243.411 14.2317 243.247 14.1614C243.192 14.1394 243.129 14.0977 243.074 14.0999C242.796 14.1109 242.523 14.1306 242.249 14.1504C242.038 14.1658 241.828 14.1746 241.626 14.2053C241.289 14.2558 241.124 14.113 240.893 14.0471C240.547 14.0757 240.198 14.0955 239.853 14.135C239.693 14.1526 239.587 14.146 239.465 14.0933C239.309 14.0274 239.166 13.9527 238.913 13.9857C238.576 14.0296 238.223 14.045 237.877 14.0713C237.646 14.0032 237.477 13.8648 237.145 13.9153C236.942 13.9461 236.728 13.9527 236.521 13.9703C236.243 13.9944 235.965 14.0164 235.687 14.0428C235.388 14.0691 235.392 14.0625 234.933 13.9329C234.668 13.8561 234.394 13.9417 234.125 13.9549C233.914 13.9659 233.809 14.0669 233.859 14.1965C233.91 14.3261 233.796 14.4272 233.602 14.4447C233.118 14.4865 232.63 14.5304 232.145 14.5677C232.086 14.5721 232.015 14.5568 231.96 14.5414C231.442 14.403 231.442 14.4052 231.21 14.425C230.865 14.4579 230.511 14.4755 230.17 14.5172C229.934 14.5458 229.761 14.4997 229.61 14.425C229.492 14.3679 229.382 14.3547 229.231 14.3679C227.563 14.515 225.895 14.6512 224.232 14.8028C223.983 14.8248 223.84 14.7611 223.672 14.7018C223.613 14.682 223.558 14.6403 223.499 14.6403C223.36 14.6403 223.221 14.66 223.082 14.6732C222.458 14.7259 221.835 14.7896 221.208 14.8292C220.942 14.8467 220.871 14.9478 220.757 15.0313C220.669 15.095 220.568 15.1213 220.412 15.1301C220.26 15.1389 220.151 15.1279 220.033 15.0708C219.881 14.9961 219.708 14.95 219.473 14.9807C219.199 15.0159 218.921 15.0313 218.639 15.0554C218.495 15.0664 218.386 15.1059 218.34 15.185C218.331 15.1982 218.42 15.2312 218.47 15.2509C218.639 15.3168 218.799 15.3937 218.988 15.4398C219.182 15.486 219.392 15.4332 219.595 15.42C219.666 15.4156 219.734 15.4025 219.801 15.4047C219.864 15.4069 219.94 15.4179 219.986 15.4376C220.205 15.5365 220.437 15.6046 220.74 15.5453C221.001 15.5738 221.136 15.7561 221.469 15.7078C221.671 15.6793 221.882 15.6661 222.092 15.6551C222.147 15.6529 222.206 15.6924 222.265 15.7122C222.433 15.7671 222.568 15.855 222.821 15.8176C223.09 15.7781 223.377 15.7715 223.65 15.7408C223.802 15.7232 223.912 15.7386 224.029 15.7957C224.181 15.8682 224.354 15.9231 224.59 15.8879C224.792 15.8572 225.007 15.8506 225.213 15.8308C225.482 15.8066 225.482 15.8088 225.963 15.945C226.017 15.9604 226.089 15.978 226.148 15.9736C226.497 15.9472 226.843 15.9143 227.192 15.8879C227.327 15.8769 227.458 15.9055 227.55 15.9692C227.588 15.9956 227.576 16.0395 227.588 16.0769C226.893 16.1362 226.198 16.1867 225.508 16.2592C225.247 16.2877 225.129 16.1977 224.956 16.1471C224.897 16.1296 224.834 16.0922 224.779 16.0966C224.291 16.134 223.806 16.1735 223.322 16.2218C223.17 16.2372 223.057 16.2284 222.943 16.1647C222.652 15.9956 222.299 16.0878 221.97 16.112C221.717 16.1296 221.637 16.1977 221.667 16.3426C221.705 16.514 221.856 16.5667 222.244 16.5359C222.383 16.525 222.522 16.5096 222.661 16.5008C222.795 16.492 222.918 16.5206 223.027 16.5799C223.132 16.6392 223.259 16.6699 223.389 16.6611C223.667 16.6414 223.949 16.6216 224.219 16.5887C224.442 16.5623 224.628 16.5843 224.783 16.6655C224.956 16.7556 225.158 16.7358 225.36 16.7161C225.832 16.6721 225.836 16.6743 226.131 16.7842C226.19 16.8061 226.249 16.8479 226.304 16.8457C226.788 16.8127 227.277 16.7842 227.753 16.7315C228.001 16.7051 228.144 16.7754 228.309 16.8325C228.367 16.8523 228.426 16.8962 228.481 16.8918C228.831 16.8676 229.18 16.8435 229.521 16.8017C229.681 16.782 229.778 16.7951 229.909 16.8479C230.221 16.9775 230.229 16.9731 230.671 16.9313C230.806 16.9181 230.953 16.894 231.08 16.9116C231.206 16.9291 231.307 16.9929 231.425 17.0324C231.48 17.05 231.547 17.0741 231.606 17.0697C231.884 17.0521 232.162 17.0258 232.44 17.0016C232.701 16.9775 232.701 16.9797 233.19 17.1159C233.388 17.173 233.594 17.1246 233.792 17.1071C234.007 17.0873 234.201 17.0873 234.365 17.173C234.529 17.2586 234.727 17.2542 234.938 17.2367C235.136 17.2191 235.338 17.1708 235.54 17.2301C236.003 17.3663 236.003 17.3685 236.29 17.3421C236.706 17.3048 237.119 17.2696 237.54 17.2367C237.595 17.2323 237.667 17.2586 237.721 17.2762C237.839 17.3158 237.941 17.3816 238.067 17.397C238.193 17.4146 238.341 17.3882 238.475 17.3751C238.909 17.3333 238.939 17.3179 239.229 17.4629C239.474 17.5815 239.777 17.4102 240.004 17.5464C240.135 17.6233 240.312 17.6848 240.556 17.6474C240.758 17.6167 240.969 17.6079 241.179 17.5903C241.512 17.5618 241.512 17.564 241.933 17.6958C241.988 17.7134 242.059 17.7353 242.114 17.7309C242.392 17.7133 242.674 17.698 242.944 17.6584C243.26 17.6123 243.462 17.6958 243.698 17.7771C243.883 17.8408 244.102 17.788 244.3 17.7661C244.515 17.7441 244.709 17.7507 244.869 17.8363C245.037 17.9242 245.235 17.9132 245.446 17.8957C245.644 17.8803 245.846 17.8298 246.048 17.8913C246.482 18.0275 246.482 18.0275 246.798 18.0011C247.076 17.9769 247.353 17.9506 247.631 17.933C247.686 17.9286 247.754 17.9572 247.808 17.9769C247.926 18.0165 248.027 18.0824 248.154 18.0978C248.28 18.1131 248.427 18.0846 248.566 18.0736C248.705 18.0626 248.853 18.0297 248.979 18.0428C249.105 18.056 249.223 18.1109 249.325 18.1593C249.442 18.2164 249.552 18.223 249.712 18.201C249.914 18.1724 250.125 18.1658 250.331 18.1505C250.445 18.1922 250.563 18.2339 250.672 18.2801C250.786 18.3284 250.908 18.324 251.064 18.3086C251.582 18.2559 251.586 18.2625 252.02 18.3987C252.218 18.4602 252.424 18.4097 252.622 18.3943C252.833 18.3767 253.031 18.3679 253.195 18.4558C253.355 18.5393 253.553 18.5503 253.764 18.5239C253.898 18.5063 254.042 18.4954 254.181 18.4888C254.244 18.4866 254.32 18.4954 254.366 18.5129C254.589 18.6052 254.808 18.6887 255.116 18.6294C255.385 18.6469 255.52 18.827 255.844 18.7919C256.118 18.7611 256.404 18.7545 256.674 18.715C256.922 18.6799 257.099 18.7414 257.226 18.8183C257.453 18.9545 257.773 18.7699 258.001 18.9039C258.131 18.9808 258.299 19.0423 258.552 19.0094C258.83 18.9742 258.919 19.0203 258.999 19.1587C259.045 19.2378 259.037 19.3015 258.952 19.363C258.868 19.4267 258.776 19.4158 258.641 19.3433C258.485 19.262 258.3 19.2466 258.076 19.2642C257.857 19.2817 257.723 19.1675 257.541 19.1236C257.36 19.0775 257.146 19.1543 256.956 19.095C256.51 18.9567 256.51 18.9566 256.206 18.983C256 19.0006 255.785 19.0094 255.583 19.0401C255.343 19.0775 255.187 19.0094 255.023 18.9479C254.964 18.9259 254.905 18.8841 254.854 18.8863C254.37 18.9193 253.882 18.9501 253.401 19.005C253.149 19.0335 253.014 18.9545 252.846 18.8995C252.787 18.8798 252.723 18.8402 252.673 18.8446C252.256 18.8754 251.843 18.9149 251.426 18.9523C251.346 19.0116 251.258 19.0687 251.182 19.1324C251.102 19.1983 250.992 19.2268 250.832 19.2246C250.567 19.2246 250.306 19.3169 250.04 19.2005C249.767 19.0819 249.746 19.0884 249.48 19.117C249.143 19.1543 248.785 19.1456 248.47 19.2312C248.415 19.2466 248.356 19.2883 248.356 19.3191C248.352 19.3388 248.44 19.3674 248.495 19.385C248.68 19.4377 248.895 19.3608 249.08 19.4157C249.202 19.4509 249.303 19.5036 249.426 19.5409C249.476 19.5563 249.552 19.5541 249.619 19.5519C249.691 19.5497 249.758 19.5344 249.826 19.5366C249.889 19.5388 249.956 19.5519 250.007 19.5717C250.239 19.6552 250.483 19.7321 250.689 19.8309C250.891 19.9276 251.081 19.8617 251.283 19.8573C252.092 20.011 252.092 20.0132 252.635 19.9649C252.77 19.9539 252.909 19.9407 253.048 19.9429C253.107 19.9429 253.161 19.9825 253.22 20.0044C253.389 20.0703 253.549 20.1296 253.785 20.0945C253.987 20.0637 254.202 20.0571 254.408 20.0374C254.686 20.0132 254.686 20.0132 255.158 20.1516C255.276 20.1868 255.402 20.1824 255.554 20.1648C255.684 20.1494 255.819 20.1824 255.911 20.2461C255.949 20.2724 255.937 20.3164 255.949 20.3537C255.532 20.3889 255.111 20.413 254.707 20.4657C254.446 20.4987 254.328 20.4042 254.155 20.3537C254.096 20.3361 254.033 20.2988 253.978 20.3032C253.566 20.3361 253.153 20.3735 252.74 20.4174C252.69 20.4218 252.626 20.4723 252.622 20.5031C252.614 20.5602 252.719 20.6151 252.871 20.6129C253.073 20.6107 253.271 20.5734 253.452 20.6634C253.604 20.7425 253.793 20.7777 254.016 20.7425C254.151 20.7227 254.294 20.7227 254.429 20.7052C254.787 20.6524 255.111 20.6634 255.381 20.8128C255.587 20.8523 255.789 20.815 255.987 20.7952C256.135 20.7799 256.278 20.7645 256.383 20.8062C256.606 20.8941 256.825 20.9819 257.133 20.9226C257.466 20.9841 257.718 21.1137 257.996 21.2192C258.127 21.2697 258.228 21.2983 258.38 21.2653C258.443 21.2521 258.519 21.2521 258.586 21.2455C258.725 21.2345 258.872 21.2016 258.999 21.2148C259.125 21.2302 259.23 21.2939 259.344 21.3334C259.399 21.3532 259.462 21.3861 259.517 21.3839C259.727 21.3729 259.934 21.351 260.14 21.3334C260.346 21.318 260.553 21.3027 260.759 21.2873C260.932 21.3444 261.109 21.4015 261.281 21.4586C261.559 21.4345 261.837 21.4103 262.111 21.3883C262.419 21.362 262.418 21.3642 262.861 21.5003C263.059 21.5619 263.269 21.5223 263.459 21.4938C263.775 21.4476 263.985 21.5311 264.208 21.619C264.255 21.6365 264.339 21.6475 264.394 21.6387C264.613 21.608 264.802 21.6321 264.962 21.7134C265.076 21.7705 265.19 21.7969 265.329 21.7859C265.813 21.7442 266.297 21.7002 266.782 21.6629C266.841 21.6585 266.908 21.6783 266.963 21.6959C267.392 21.8298 267.397 21.8364 267.712 21.8013C267.995 21.7705 268.256 21.7573 268.479 21.8782C268.525 21.9045 268.597 21.9419 268.647 21.9397C268.993 21.9177 269.342 21.8935 269.684 21.8562C269.839 21.8386 269.949 21.8452 270.071 21.8958C270.227 21.9595 270.366 22.0363 270.623 22.0078C271.335 21.9265 271.339 21.9397 272.181 22.0912C272.24 22.1022 272.32 22.0847 272.387 22.0759C272.531 22.0539 272.636 22.0847 272.762 22.1352C273.044 22.2494 273.053 22.2428 273.322 22.2187C273.529 22.1989 273.744 22.1945 273.946 22.1615C274.257 22.1132 274.464 22.1989 274.695 22.2802C274.881 22.3439 275.095 22.2911 275.293 22.2714C275.508 22.2494 275.702 22.256 275.862 22.3395C275.972 22.3966 276.089 22.4273 276.228 22.4164C276.713 22.3768 277.197 22.3329 277.682 22.2933C277.74 22.2889 277.812 22.3065 277.867 22.3219C278.347 22.4581 278.347 22.4647 278.823 22.4142C278.974 22.3988 279.101 22.3944 279.215 22.4405C279.324 22.4844 279.442 22.5262 279.556 22.5679C279.762 22.5525 279.973 22.5482 280.175 22.5218C280.331 22.502 280.44 22.5108 280.562 22.5569C280.722 22.6163 280.857 22.7195 281.11 22.6689C281.24 22.6448 281.392 22.6514 281.522 22.6294C281.678 22.6009 281.784 22.6184 281.906 22.6755C282.057 22.7436 282.213 22.8139 282.457 22.7788C282.727 22.7392 283.013 22.7327 283.287 22.7019C283.439 22.6843 283.544 22.7019 283.666 22.759C283.818 22.8315 283.991 22.8776 284.226 22.8491C284.707 22.7942 284.711 22.8051 285.178 22.9435C285.296 22.9787 285.422 22.9743 285.574 22.9567C285.705 22.9413 285.839 22.9743 285.932 23.038C286.02 23.1083 286.012 23.1522 286.02 23.1896ZM248.491 3.37808C248.352 3.38906 248.213 3.40224 248.01 3.21113C247.998 3.17818 248.006 3.13865 247.977 3.11009C247.909 3.05079 247.804 3.00905 247.678 3.00246C247.45 2.99367 247.177 3.06835 247.181 3.12546C247.185 3.17379 247.257 3.21551 247.396 3.25505C247.455 3.27043 247.501 3.29679 247.556 3.31437C247.716 3.36489 247.842 3.46375 248.074 3.41323C248.032 3.27704 248.053 3.34514 248.074 3.41323C248.053 3.4967 248.116 3.55602 248.267 3.58018C248.31 3.58677 248.373 3.58236 248.406 3.56918C248.537 3.52086 248.558 3.45497 248.461 3.28144C248.444 3.31 248.457 3.3605 248.495 3.37368C248.533 3.38686 248.625 3.37589 248.672 3.36051C248.79 3.31878 248.849 3.26386 248.819 3.21773C248.802 3.19356 248.722 3.16281 248.672 3.16281C248.583 3.16281 248.503 3.21113 248.491 3.37808ZM282.546 28.8525C282.238 28.8942 281.885 28.8789 281.577 28.9645C281.523 28.9799 281.468 29.0194 281.464 29.0502C281.459 29.07 281.544 29.0985 281.594 29.1139C281.708 29.1491 281.834 29.1381 281.982 29.1271C282.205 29.1117 282.335 29.2127 282.508 29.2633C282.563 29.2786 282.634 29.2896 282.693 29.2852C283.034 29.2589 283.371 29.2303 283.712 29.1996C283.771 29.193 283.835 29.1776 283.885 29.1578C284.054 29.0941 284.037 29.0524 283.873 29.0041C283.691 28.9514 283.548 28.8635 283.363 28.8217C283.098 28.7624 282.828 28.8415 282.546 28.8525ZM258.628 30.456C258.422 30.4736 258.219 30.4912 258.013 30.5088C257.946 30.5154 257.874 30.5175 257.811 30.5263C257.68 30.5417 257.584 30.5878 257.52 30.6603C257.617 30.7174 257.735 30.7504 257.866 30.7438C258.072 30.7306 258.274 30.7021 258.481 30.6955C258.704 30.6867 258.834 30.7855 259.007 30.8361C259.062 30.8514 259.129 30.8536 259.192 30.8558C259.504 30.8646 259.694 30.7504 259.635 30.59C259.592 30.4648 259.432 30.3902 259.239 30.4055C259.037 30.4209 258.83 30.4385 258.628 30.456ZM283.986 25.6059C284.037 25.5685 284.092 25.5422 284.117 25.5092C284.193 25.3972 284.163 25.3137 284.024 25.2258C283.856 25.1182 283.649 25.1907 283.46 25.2017C283.414 25.2039 283.363 25.25 283.338 25.2786C283.321 25.2983 283.321 25.3401 283.346 25.3511C283.553 25.4389 283.772 25.5202 283.986 25.6059ZM247.45 19.117C247.248 19.1346 247.042 19.1478 246.84 19.1719C246.789 19.1785 246.743 19.2202 246.713 19.2488C246.659 19.3015 246.718 19.374 246.89 19.3806C247.088 19.3894 247.294 19.352 247.501 19.3345C247.762 19.3125 247.918 19.2312 247.821 19.1609C247.728 19.0928 247.602 19.0797 247.45 19.117ZM25.7541 14.4228C25.8889 14.4118 26.0278 14.403 26.1626 14.3876C26.289 14.3723 26.3859 14.3239 26.4491 14.2514C26.3438 14.1943 26.2258 14.1636 26.0953 14.1702C25.8889 14.1833 25.6868 14.2009 25.4846 14.2229C25.3583 14.2361 25.2362 14.2844 25.2067 14.3591C25.1772 14.4162 25.4593 14.4491 25.7541 14.4228ZM229.639 14.0845C229.694 14.1043 229.749 14.1438 229.804 14.1438C229.938 14.1438 230.077 14.1306 230.204 14.1087C230.259 14.0999 230.301 14.0603 230.326 14.0296C230.343 14.0098 230.339 13.9747 230.313 13.9571C230.191 13.8517 229.703 13.889 229.622 14.0098C229.614 14.0318 229.635 14.0603 229.639 14.0845ZM216.352 2.0557C216.364 2.09084 216.369 2.12599 216.385 2.16113C216.419 2.22703 216.512 2.27537 216.646 2.30832C216.752 2.2534 216.807 2.1919 216.802 2.126C216.798 2.09086 216.785 2.05569 216.769 2.02054C216.735 1.95464 216.642 1.90634 216.508 1.87339C216.402 1.92611 216.352 1.9876 216.352 2.0557ZM293.719 30.8383C293.681 30.8668 293.644 30.8954 293.601 30.9217C293.715 30.9854 293.82 31.0052 293.901 30.9701C293.951 30.9481 293.981 30.9151 294.018 30.8866C293.905 30.8229 293.804 30.8053 293.719 30.8383ZM291.1 31.137C291.154 31.1568 291.205 31.1831 291.264 31.1963C291.361 31.2183 291.449 31.1809 291.517 31.1018C291.462 31.0821 291.411 31.0557 291.352 31.0425C291.256 31.0206 291.167 31.0579 291.1 31.137ZM292.759 30.735C292.73 30.7877 292.789 30.8317 292.944 30.869C292.982 30.8405 293.033 30.8141 293.058 30.7833C293.1 30.7328 293.029 30.6867 292.877 30.6516C292.835 30.6779 292.797 30.7065 292.759 30.735ZM283.868 28.367C283.839 28.4198 283.898 28.4637 284.054 28.501C284.092 28.4725 284.142 28.4461 284.167 28.4154C284.21 28.3648 284.138 28.3187 283.986 28.2836C283.944 28.3099 283.906 28.3385 283.868 28.367ZM271.756 12.8236C271.718 12.8522 271.68 12.8807 271.638 12.9071C271.751 12.9708 271.857 12.9906 271.937 12.9554C271.987 12.9335 272.017 12.9005 272.055 12.8719C271.941 12.8082 271.84 12.7907 271.756 12.8236ZM260.153 4.57743C260.254 4.59281 260.338 4.56207 260.41 4.4808C260.355 4.46103 260.304 4.43466 260.245 4.42148C260.148 4.39952 260.06 4.43687 259.993 4.51595C260.047 4.53792 260.102 4.55766 260.153 4.57743ZM253.991 4.06123C253.953 4.08979 253.915 4.11834 253.873 4.1447C253.987 4.20841 254.092 4.22817 254.172 4.19302C254.223 4.17106 254.252 4.13811 254.29 4.10955C254.176 4.04585 254.075 4.03048 253.991 4.06123ZM212.207 2.0535C212.17 2.08205 212.132 2.11061 212.09 2.13697C212.203 2.20067 212.309 2.22044 212.389 2.18529C212.439 2.16333 212.469 2.13037 212.506 2.10182C212.393 2.03812 212.292 2.02275 212.207 2.0535ZM4.15683 19.9253C4.10208 19.9056 4.04738 19.8858 3.99684 19.8639C3.8747 19.9232 3.83681 19.9781 3.90419 20.0198C3.94631 20.0462 4.00943 20.0616 4.06419 20.0813C4.19054 20.022 4.22 19.9693 4.15683 19.9253Z" fill="#4F9CF9"/>
</svg>
